FiraMath-Thin.sfdir
StartChar: uni0022
Encoding: 34 34 2
Width: 327
Flags: W
HStem: 661 20G<83 106 106 106 221 245 245 245>
VStem: 84.5 20 222.5 21
LayerCount: 2
Fore
SplineSet
86 441 m 1
 83 681 l 1
 106 681 l 1
 103 441 l 1
 86 441 l 1
224 441 m 1
 221 681 l 1
 245 681 l 1
 242 441 l 1
 224 441 l 1
EndSplineSet
EndChar
StartChar: uni0024
Encoding: 36 36 4
Width: 523
Flags: W
HStem: -10 21<248 248 267 267> 650 20<249 249>
VStem: 79 22<477 555.5 477 559.5> 248 19<-146 -10 -146 -10> 432 22<126 224>
LayerCount: 2
Fore
SplineSet
454 177 m 0
 454 71 378 -3 267 -10 c 1
 267 -146 l 1
 248 -146 l 1
 248 -10 l 1
 163 -9 104 23 54 68 c 1
 68 83 l 1
 115 41 167 11 250 11 c 0
 359 11 432 76 432 176 c 0
 432 272 382 308 259 347 c 0
 125 390 79 430 79 517 c 0
 79 602 146 667 249 670 c 1
 249 811 l 1
 269 811 l 1
 269 670 l 1
 343 667 389 642 433 603 c 1
 418 587 l 1
 372 630 326 650 256 650 c 0
 162 650 101 594 101 517 c 0
 101 437 144 405 267 367 c 0
 396 326 454 284 454 177 c 0
EndSplineSet
EndChar
StartChar: uni0027
Encoding: 39 39 7
Width: 189
Flags: W
HStem: 661 20G<83 106 106 106>
VStem: 84.5 20
LayerCount: 2
Fore
SplineSet
86 441 m 1
 83 681 l 1
 106 681 l 1
 103 441 l 1
 86 441 l 1
EndSplineSet
EndChar
StartChar: uni002C
Encoding: 44 44 12
Width: 163
Flags: W
HStem: -6 21G<73 73>
VStem: 58 47<9.5 21>
LayerCount: 2
Fore
SplineSet
81 38 m 0
 96 38 105 28 105 14 c 0
 105 4 100 -7 96 -17 c 2
 52 -130 l 1
 35 -130 l 1
 73 -6 l 1
 63 -3 58 5 58 14 c 0
 58 28 67 38 81 38 c 0
EndSplineSet
EndChar
StartChar: uni002E
Encoding: 46 46 14
Width: 163
Flags: W
HStem: -8 46<74 88.5>
VStem: 58 47<8 21>
LayerCount: 2
Fore
SplineSet
81 38 m 0
 96 38 105 28 105 14 c 0
 105 2 96 -8 81 -8 c 0
 67 -8 58 2 58 14 c 0
 58 28 67 38 81 38 c 0
EndSplineSet
EndChar
StartChar: uni0035
Encoding: 53 53 21
Width: 474
Flags: W
HStem: -10 21<183.5 272 183.5 279> 354 22<87 109> 394 21<205 280> 641 20<109 389 109 109>
VStem: 87 22<376 641 376 661 376 661> 391 23<153.5 273>
LayerCount: 2
Fore
SplineSet
393 661 m 1
 389 641 l 1
 109 641 l 1
 109 376 l 1
 139 397 177 415 232 415 c 0
 345 415 414 339 414 214 c 0
 414 84 341 -10 217 -10 c 0
 143 -10 87 18 43 65 c 1
 59 79 l 1
 100 35 149 11 218 11 c 0
 326 11 391 93 391 214 c 0
 391 332 328 394 232 394 c 0xbc
 178 394 146 381 105 354 c 1
 87 354 l 1xfc
 87 661 l 1
 393 661 l 1
EndSplineSet
EndChar
StartChar: uni0039
Encoding: 57 57 25
Width: 508
Flags: W
HStem: 255 21<192.5 273> 652 21<201 309>
VStem: 61 24<401 520 401 525> 415 22
LayerCount: 2
Fore
SplineSet
250 673 m 0
 382 673 437 569 437 397 c 0
 437 149 322 48 126 -15 c 1
 119 3 l 1
 300 61 405 154 415 365 c 1
 369 294 310 255 236 255 c 0
 136 255 61 333 61 459 c 0
 61 591 140 673 250 673 c 0
238 276 m 0
 314 276 368 318 415 394 c 1
 413 558 368 652 250 652 c 0
 152 652 85 582 85 458 c 0
 85 344 147 276 238 276 c 0
EndSplineSet
EndChar
StartChar: uni0041
Encoding: 65 65 33
Width: 557
Flags: W
HStem: 0 21G<28 51 28 28 505 530 505 505> 203 21<128 428 128 435 121 428> 663 18<278 278>
VStem: 28 502<0 0>
LayerCount: 2
Fore
SplineSet
505 0 m 1
 435 203 l 1
 121 203 l 1
 51 0 l 1
 28 0 l 1
 265 681 l 1
 292 681 l 1
 530 0 l 1
 505 0 l 1
128 224 m 1
 428 224 l 1
 278 663 l 1
 128 224 l 1
EndSplineSet
EndChar
StartChar: uni0049
Encoding: 73 73 41
Width: 268
Flags: W
HStem: 0 21G<123 146 123 123> 661 20G<123 146 146 146>
VStem: 123 23<0 681 0 681>
LayerCount: 2
Fore
SplineSet
146 681 m 1
 146 0 l 1
 123 0 l 1
 123 681 l 1
 146 681 l 1
EndSplineSet
EndChar
StartChar: uni004A
Encoding: 74 74 42
Width: 277
Flags: W
HStem: 661 20G<138 161 161 161>
VStem: 138 23<89 681>
LayerCount: 2
Fore
SplineSet
161 681 m 1
 161 87 l 2
 161 -13 138 -53 30 -100 c 1
 23 -83 l 1
 116 -40 138 -4 138 89 c 2
 138 681 l 1
 161 681 l 1
EndSplineSet
EndChar
StartChar: uni0052
Encoding: 82 82 50
Width: 572
Flags: W
HStem: 0 21G<123 146 123 123 501 528 501 501> 324 21<146 287 287 313 146 287> 660 21<146 269 146 146>
VStem: 123 23<0 324 345 660> 473 23<448.5 553>
LayerCount: 2
Fore
SplineSet
501 0 m 1
 313 324 l 1
 146 324 l 1
 146 0 l 1
 123 0 l 1
 123 681 l 1
 272 681 l 2
 431 681 496 616 496 504 c 0
 496 393 428 343 337 327 c 1
 528 0 l 1
 501 0 l 1
146 345 m 1
 287 345 l 2
 398 345 473 393 473 504 c 0
 473 602 420 660 269 660 c 2
 146 660 l 1
 146 345 l 1
EndSplineSet
EndChar
StartChar: uni0068
Encoding: 104 104 72
Width: 581
Flags: W
HStem: 0 21G<118 140 118 118 447 469 447 447> 509 20<289 369.5> 713 20G<118 118> 716 20G<140 140>
VStem: 118 22<0 384 414 733 733 733> 447 22<0 367 367 369 0 413>
LayerCount: 2
Fore
SplineSet
330 529 m 0xdc
 424 529 469 469 469 369 c 2
 469 0 l 1
 447 0 l 1
 447 367 l 2
 447 459 409 509 330 509 c 0
 246 509 189 459 140 384 c 1
 140 0 l 1
 118 0 l 1
 118 733 l 1xec
 140 736 l 1
 140 414 l 1
 187 484 248 529 330 529 c 0xdc
EndSplineSet
EndChar
StartChar: uni0069
Encoding: 105 105 73
Width: 258
Flags: W
HStem: 0 21G<118 140 118 118> 499 20G<118 140 140 140> 685 39<123 136>
VStem: 118 22<0 519 0 519> 129 21
LayerCount: 2
Fore
SplineSet
129 724 m 0xe8
 143 724 150 714 150 704 c 0
 150 694 143 685 129 685 c 0
 117 685 109 694 109 704 c 0
 109 714 117 724 129 724 c 0xe8
140 519 m 1xf0
 140 0 l 1
 118 0 l 1
 118 519 l 1
 140 519 l 1xf0
EndSplineSet
EndChar
StartChar: uni0070
Encoding: 112 112 80
Width: 564
Flags: W
HStem: -196 21G<118 118> -192 21G<140 140> -10 21<266 356 266 364.5> 499 20G<118 137 137 137> 509 20<269.5 360.5>
VStem: 118 20 469 22<183.5 344>
LayerCount: 2
Fore
SplineSet
308 529 m 0x6e
 426 529 491 435 491 264 c 0
 491 94 426 -10 303 -10 c 0
 228 -10 174 31 140 80 c 1
 140 -192 l 1x6e
 118 -196 l 1
 118 519 l 1
 137 519 l 1xb6
 139 434 l 1
 177 489 231 529 308 529 c 0x6e
302 11 m 0
 410 11 469 103 469 264 c 0
 469 424 413 509 308 509 c 0
 231 509 184 469 140 410 c 1
 140 106 l 1
 179 50 230 11 302 11 c 0
EndSplineSet
EndChar
StartChar: uni0072
Encoding: 114 114 82
Width: 362
Flags: W
HStem: 0 21G<118 140 118 118> 499 20G<118 137 137 137> 503 20G<345 345> 509 20<255 303>
VStem: 118 19.5
LayerCount: 2
Fore
SplineSet
294 529 m 0x98
 317 529 333 526 345 523 c 1xa8
 340 504 l 1
 327 507 312 509 294 509 c 0x98
 216 509 173 456 140 344 c 1
 140 0 l 1
 118 0 l 1
 118 519 l 1
 137 519 l 1xc8
 138 390 l 1
 167 485 215 529 294 529 c 0x98
EndSplineSet
EndChar
StartChar: uni0075
Encoding: 117 117 85
Width: 576
Flags: W
HStem: -10 21<221.5 302 221.5 302> 0 21G<439 459 439 439> 499 20G<113 135 135 135 437 459 459 459>
VStem: 113 22<149 151 151 519> 437 22<133 519 0 519>
LayerCount: 2
Fore
SplineSet
459 519 m 1xb8
 459 0 l 1
 439 0 l 1x78
 439 106 l 1
 403 41 345 -10 259 -10 c 0
 167 -10 113 46 113 149 c 2
 113 519 l 1
 135 519 l 1
 135 151 l 2
 135 56 181 11 262 11 c 0
 342 11 396 61 437 133 c 1
 437 519 l 1
 459 519 l 1xb8
EndSplineSet
EndChar
StartChar: uni0076
Encoding: 118 118 86
Width: 447
Flags: W
HStem: 0 19<228 228 228 243 214 228> 499 20G<23 48 48 48 400 424 424 424>
VStem: 23 401<519 519>
LayerCount: 2
Fore
SplineSet
424 519 m 1
 243 0 l 1
 214 0 l 1
 23 519 l 1
 48 519 l 1
 228 19 l 1
 400 519 l 1
 424 519 l 1
EndSplineSet
EndChar
StartChar: uni007B
Encoding: 123 123 91
Width: 328
Flags: W
HStem: -120 18<216 244 216 244> 338 22<64 87.5> 800 18<216 244>
VStem: 144 20<-17 -14 -14 257 432 441 441 712>
LayerCount: 2
Fore
SplineSet
244 818 m 1
 244 800 l 1
 188 800 164 771 164 712 c 2
 164 441 l 2
 164 379 139 356 88 349 c 1
 139 342 164 319 164 257 c 2
 164 -14 l 2
 164 -73 188 -102 244 -102 c 1
 244 -120 l 1
 183 -120 144 -90 144 -17 c 2
 144 266 l 2
 144 319 111 338 64 338 c 1
 64 360 l 1
 111 360 144 379 144 432 c 2
 144 715 l 2
 144 788 183 818 244 818 c 1
EndSplineSet
EndChar
StartChar: uni007E
Encoding: 126 126 94
Width: 457
Flags: W
HStem: 280 22<281 321> 335 22<138 178.5>
VStem: 71 315<302 335>
LayerCount: 2
Fore
SplineSet
305 280 m 0
 253 280 202 335 155 335 c 0
 121 335 105 317 86 293 c 1
 71 302 l 1
 93 334 115 357 155 357 c 0
 210 357 257 302 305 302 c 0
 337 302 353 319 371 343 c 1
 386 335 l 1
 365 303 343 280 305 280 c 0
EndSplineSet
EndChar
StartChar: uni00A1
Encoding: 161 161 96
Width: 238
Flags: W
HStem: -192 21G<109 130 109 109> 406 47<111.5 126>
VStem: 96 47<423.5 436> 109 21<-192 252 -192 252>
LayerCount: 2
Fore
SplineSet
119 453 m 0xe0
 133 453 143 442 143 430 c 0
 143 417 133 406 119 406 c 0
 104 406 96 417 96 430 c 0
 96 442 104 453 119 453 c 0xe0
130 252 m 1xd0
 130 -192 l 1
 109 -192 l 1
 109 252 l 1
 130 252 l 1xd0
EndSplineSet
EndChar
StartChar: uni00A2
Encoding: 162 162 97
Width: 464
Flags: W
HStem: -10 21<271 271 291 291> 509 20<273 273 273 292 273 309.5>
VStem: 73 23<176 339 176 339.5> 273 19<529 676 529 676>
LayerCount: 2
Fore
SplineSet
423 44 m 1
 388 13 346 -8 291 -10 c 1
 291 -146 l 1
 271 -146 l 1
 271 -10 l 1
 153 -3 73 93 73 257 c 0
 73 422 152 523 273 529 c 1
 273 676 l 1
 292 676 l 1
 292 529 l 1
 343 527 381 512 418 479 c 1
 405 464 l 1
 372 493 335 509 284 509 c 0
 174 509 96 421 96 257 c 0
 96 95 175 11 283 11 c 0
 337 11 377 30 410 59 c 1
 423 44 l 1
EndSplineSet
EndChar
StartChar: uni00A4
Encoding: 164 164 99
Width: 560
Flags: W
HStem: 161 20<258 302.5> 500 20<257.5 303 257.5 329.5> 539 20G<88 88 472 472>
VStem: 108 22<315.5 364.5> 431 22<315 364.5 315 386>
LayerCount: 2
Fore
SplineSet
453 340 m 0
 453 290 436 246 407 213 c 1
 487 134 l 1
 472 119 l 1
 391 199 l 1
 363 175 325 161 280 161 c 0
 236 161 198 175 169 199 c 1
 88 119 l 1
 73 134 l 1
 154 214 l 1
 125 246 108 291 108 340 c 0
 108 389 124 432 152 465 c 1
 73 544 l 1
 88 559 l 1
 167 479 l 1
 196 505 235 520 280 520 c 0
 326 520 364 505 393 480 c 1
 472 559 l 1
 487 544 l 1
 408 465 l 1
 437 433 453 389 453 340 c 0
130 340 m 0
 130 247 186 181 280 181 c 0
 377 181 431 248 431 340 c 0
 431 432 379 500 280 500 c 0
 184 500 130 432 130 340 c 0
EndSplineSet
EndChar
StartChar: uni00AC
Encoding: 172 172 107
Width: 495
Flags: W
HStem: 309 22<78 394 78 417>
VStem: 394 23<198 309 309 309>
LayerCount: 2
Fore
SplineSet
417 331 m 1
 417 198 l 1
 394 198 l 1
 394 309 l 1
 78 309 l 1
 78 331 l 1
 417 331 l 1
EndSplineSet
EndChar
StartChar: uni00B1
Encoding: 177 177 112
Width: 485
Flags: W
HStem: 0 21<78 407 78 407> 320 21<78 232 78 232 254 407>
VStem: 232 22<165 320 165 320 341 496>
LayerCount: 2
Fore
SplineSet
254 496 m 1
 254 341 l 1
 407 341 l 1
 407 320 l 1
 254 320 l 1
 254 165 l 1
 232 165 l 1
 232 320 l 1
 78 320 l 1
 78 341 l 1
 232 341 l 1
 232 496 l 1
 254 496 l 1
78 0 m 1
 78 21 l 1
 407 21 l 1
 407 0 l 1
 78 0 l 1
EndSplineSet
EndChar
StartChar: uni00B2
Encoding: 178 178 113
Width: 400
Flags: W
HStem: 322 21<111 317> 662 20G<79 79> 718 20<175 225.5>
VStem: 286 23<594.5 658.5>
LayerCount: 2
Fore
SplineSet
198 738 m 0
 268 738 309 693 309 633 c 0
 309 548 265 502 111 343 c 1
 321 343 l 1
 317 322 l 1
 84 322 l 1
 84 342 l 1
 249 513 286 557 286 632 c 0
 286 685 253 718 198 718 c 0
 152 718 121 699 96 670 c 1
 79 682 l 1
 113 721 150 738 198 738 c 0
EndSplineSet
EndChar
StartChar: uni00B3
Encoding: 179 179 114
Width: 400
Flags: W
HStem: 315 20<173.5 228.5 173.5 233.5> 530 19<175 195 195 197 172 195> 720 20<181 227.5>
VStem: 292 22<610 663.5> 302 22<406 468.5>
LayerCount: 2
Fore
SplineSet
201 740 m 0xf0
 269 740 314 698 314 639 c 0xf0
 314 581 275 547 226 541 c 1
 280 539 324 503 324 436 c 0
 324 365 273 315 194 315 c 0
 144 315 107 333 75 368 c 1
 90 379 l 1
 122 346 154 335 193 335 c 0
 264 335 302 377 302 435 c 0xe8
 302 502 260 530 197 530 c 2
 172 530 l 1
 175 549 l 1
 195 549 l 2
 241 549 292 575 292 638 c 0
 292 689 255 720 200 720 c 0
 162 720 133 709 99 681 c 1
 86 694 l 1
 120 724 152 740 201 740 c 0xf0
EndSplineSet
EndChar
StartChar: uni00BF
Encoding: 191 191 126
Width: 441
Flags: W
HStem: -197 21<170 243 170 245.5> 406 47<241.5 256>
VStem: 56 23<-99 -1 -99 4.5> 225 47<423.5 436> 239 22<206 252>
LayerCount: 2
Fore
SplineSet
249 406 m 0xf0
 234 406 225 417 225 430 c 0
 225 442 234 453 249 453 c 0
 263 453 272 442 272 430 c 0
 272 417 263 406 249 406 c 0xf0
209 -197 m 0
 115 -197 56 -136 56 -69 c 0
 56 78 239 63 239 206 c 2
 239 252 l 1
 261 252 l 1
 261 204 l 2xa8
 261 50 79 67 79 -69 c 0
 79 -129 131 -176 209 -176 c 0
 277 -176 322 -152 369 -99 c 1
 385 -112 l 1
 335 -169 282 -197 209 -197 c 0
EndSplineSet
EndChar
StartChar: uni00C1
Encoding: 193 193 128
Width: 557
Flags: W
HStem: 0 21G<28 51 28 28 505 530 505 505> 203 21<128 428 128 435 121 428> 663 18<278 278>
VStem: 28 502<0 0>
LayerCount: 2
Fore
SplineSet
371 838 m 1
 192 764 l 1
 185 779 l 1
 360 861 l 1
 371 838 l 1
505 0 m 1
 435 203 l 1
 121 203 l 1
 51 0 l 1
 28 0 l 1
 265 681 l 1
 292 681 l 1
 530 0 l 1
 505 0 l 1
128 224 m 1
 428 224 l 1
 278 663 l 1
 128 224 l 1
EndSplineSet
EndChar
StartChar: uni00C2
Encoding: 194 194 129
Width: 557
Flags: W
HStem: 0 21G<28 51 28 28 505 530 505 505> 203 21<128 428 128 435 121 428> 663 18<278 278> 845 24<279 279>
VStem: 28 502<0 0>
LayerCount: 2
Fore
SplineSet
279 845 m 1
 164 766 l 1
 153 780 l 1
 273 869 l 1
 285 869 l 1
 405 780 l 1
 393 766 l 1
 279 845 l 1
505 0 m 1
 435 203 l 1
 121 203 l 1
 51 0 l 1
 28 0 l 1
 265 681 l 1
 292 681 l 1
 530 0 l 1
 505 0 l 1
128 224 m 1
 428 224 l 1
 278 663 l 1
 128 224 l 1
EndSplineSet
EndChar
StartChar: uni00CE
Encoding: 206 206 141
Width: 268
Flags: W
HStem: 0 21G<123 146 123 123> 661 20G<123 146 146 146> 845 24<134 134>
VStem: 123 23<0 681 0 681>
LayerCount: 2
Fore
SplineSet
19 766 m 1
 8 780 l 1
 128 869 l 1
 140 869 l 1
 260 780 l 1
 248 766 l 1
 134 845 l 1
 19 766 l 1
146 681 m 1
 146 0 l 1
 123 0 l 1
 123 681 l 1
 146 681 l 1
EndSplineSet
EndChar
StartChar: uni00D6
Encoding: 214 214 149
Width: 689
Flags: W
HStem: -10 22<271.5 421 271.5 427.5> 670 21<272 418> 799 39<256 268 421.5 434> 818 20<256 268 421.5 434>
VStem: 78 23<233 446.5 233 451> 407 40<812.5 823.5> 588 23<233.5 448.5>
LayerCount: 2
Fore
SplineSet
262 838 m 0xea
 274 838 282 829 282 818 c 0
 282 807 274 799 262 799 c 0
 250 799 242 807 242 818 c 0
 242 829 250 838 262 838 c 0xea
428 838 m 0xde
 440 838 447 829 447 818 c 0
 447 807 440 799 428 799 c 0
 415 799 407 807 407 818 c 0
 407 829 415 838 428 838 c 0xde
344 691 m 0
 505 691 611 569 611 340 c 0
 611 119 511 -10 344 -10 c 0
 185 -10 78 115 78 339 c 0
 78 563 187 691 344 691 c 0
344 670 m 0
 200 670 101 554 101 339 c 0
 101 127 199 12 344 12 c 0
 498 12 588 127 588 340 c 0
 588 557 492 670 344 670 c 0
EndSplineSet
EndChar
StartChar: uni00D8
Encoding: 216 216 151
Width: 689
Flags: W
HStem: -10 22<329 421> 670 21<272 359>
VStem: 78 23<259.5 446.5 259.5 451> 588 23<233.5 422>
LayerCount: 2
Fore
SplineSet
450 670 m 1
 550 626 611 514 611 340 c 0
 611 119 511 -10 344 -10 c 0
 312 -10 282 -5 255 5 c 1
 224 -111 l 1
 201 -104 l 1
 237 12 l 1
 139 58 78 170 78 339 c 0
 78 563 187 691 344 691 c 0
 375 691 405 686 432 677 c 1
 432 678 l 1
 465 798 l 1
 488 792 l 1
 450 670 l 1
101 339 m 0
 101 180 156 76 245 33 c 1
 427 656 l 1
 402 665 374 670 344 670 c 0
 200 670 101 554 101 339 c 0
344 12 m 0
 498 12 588 127 588 340 c 0
 588 504 534 608 443 650 c 1
 261 26 l 1
 287 17 314 12 344 12 c 0
EndSplineSet
EndChar
StartChar: uni00DF
Encoding: 223 223 158
Width: 572
Flags: W
HStem: -10 21<348 405.5 348 414.5> 0 21G<118 140 118 118> 716 21<248 329.5>
VStem: 118 22<0 538 0 541 0 604.5> 296 22<376 455 376 460> 416 23<560 642> 492 22<105 234>
LayerCount: 2
Fore
SplineSet
291 737 m 0xbe
 379 737 439 684 439 611 c 0
 439 503 318 489 318 421 c 0
 318 331 514 327 514 148 c 0
 514 55 460 -10 369 -10 c 0
 326 -10 299 0 277 12 c 1
 286 29 l 1
 305 19 328 11 368 11 c 0xbe
 443 11 492 62 492 148 c 0
 492 320 296 314 296 421 c 0
 296 499 416 509 416 611 c 0
 416 673 368 716 291 716 c 0
 205 716 140 659 140 538 c 2
 140 0 l 1
 118 0 l 1x7e
 118 541 l 2
 118 668 192 737 291 737 c 0xbe
EndSplineSet
EndChar
StartChar: uni00EB
Encoding: 235 235 170
Width: 526
Flags: W
HStem: -10 21<227.5 311 227.5 313.5> 246 19<96 439 96 459 96 439> 509 20<224.5 331> 673 39<185 197 350.5 363>
VStem: 73 23<246 246 246 265 246 340.5> 336 21<686.5 697.5> 439 22<277 292 292 355>
LayerCount: 2
Fore
SplineSet
191 673 m 0
 179 673 171 681 171 692 c 0
 171 703 179 712 191 712 c 0
 203 712 211 703 211 692 c 0
 211 681 203 673 191 673 c 0
357 673 m 0
 344 673 336 681 336 692 c 0
 336 703 344 712 357 712 c 0
 369 712 376 703 376 692 c 0
 376 681 369 673 357 673 c 0
461 284 m 0
 461 270 460 257 459 246 c 1
 96 246 l 1
 101 87 175 11 280 11 c 0
 342 11 382 31 427 68 c 1
 439 51 l 1
 394 13 347 -10 280 -10 c 0
 154 -10 73 87 73 255 c 0
 73 426 152 529 272 529 c 0
 400 529 461 429 461 284 c 0
439 265 m 1
 439 292 l 2
 439 418 388 509 274 509 c 0
 175 509 99 430 96 265 c 1
 439 265 l 1
EndSplineSet
EndChar
StartChar: uni00EF
Encoding: 239 239 174
Width: 258
Flags: W
HStem: 0 21G<118 140 118 118> 499 20G<118 140 140 140> 673 39<40 52 205.5 218> 692 20<40 52 205.5 218>
VStem: 118 22<0 519 0 519> 191 40<686.5 697.5>
LayerCount: 2
Fore
SplineSet
46 712 m 0xe8
 58 712 66 703 66 692 c 0
 66 681 58 673 46 673 c 0
 34 673 26 681 26 692 c 0
 26 703 34 712 46 712 c 0xe8
212 712 m 0xdc
 224 712 231 703 231 692 c 0
 231 681 224 673 212 673 c 0
 199 673 191 681 191 692 c 0
 191 703 199 712 212 712 c 0xdc
140 519 m 1
 140 0 l 1
 118 0 l 1
 118 519 l 1
 140 519 l 1
EndSplineSet
EndChar
StartChar: uni00F2
Encoding: 242 242 177
Width: 560
Flags: W
HStem: -10 21<222.5 336.5 222.5 343> 509 20<225 338.5> 718 20G<189 189>
VStem: 73 23<180 340.5 180 345> 465 23<180.5 341.5>
LayerCount: 2
Fore
SplineSet
199 761 m 1
 375 670 l 1
 367 654 l 1
 189 738 l 1
 199 761 l 1
281 529 m 0
 408 529 488 434 488 262 c 0
 488 89 406 -10 280 -10 c 0
 151 -10 73 91 73 259 c 0
 73 431 156 529 281 529 c 0
281 509 m 0
 169 509 96 422 96 259 c 0
 96 101 165 11 280 11 c 0
 393 11 465 99 465 262 c 0
 465 421 396 509 281 509 c 0
EndSplineSet
EndChar
StartChar: uni00F4
Encoding: 244 244 179
Width: 560
Flags: W
HStem: -10 21<222.5 336.5 222.5 343> 509 20<225 338.5> 738 24<281 281>
VStem: 73 23<180 340.5 180 345> 465 23<180.5 341.5>
LayerCount: 2
Fore
SplineSet
166 654 m 1
 155 667 l 1
 275 762 l 1
 287 762 l 1
 407 667 l 1
 395 654 l 1
 281 738 l 1
 166 654 l 1
281 529 m 0
 408 529 488 434 488 262 c 0
 488 89 406 -10 280 -10 c 0
 151 -10 73 91 73 259 c 0
 73 431 156 529 281 529 c 0
281 509 m 0
 169 509 96 422 96 259 c 0
 96 101 165 11 280 11 c 0
 393 11 465 99 465 262 c 0
 465 421 396 509 281 509 c 0
EndSplineSet
EndChar
StartChar: uni00F6
Encoding: 246 246 181
Width: 560
Flags: W
HStem: -10 21<222.5 336.5 222.5 343> 509 20<225 338.5> 673 39<192 204 357.5 370> 692 20<192 204 357.5 370>
VStem: 73 23<180 340.5 180 345> 343 40<686.5 697.5> 465 23<180.5 341.5>
LayerCount: 2
Fore
SplineSet
198 712 m 0xea
 210 712 218 703 218 692 c 0
 218 681 210 673 198 673 c 0
 186 673 178 681 178 692 c 0
 178 703 186 712 198 712 c 0xea
364 712 m 0xde
 376 712 383 703 383 692 c 0
 383 681 376 673 364 673 c 0
 351 673 343 681 343 692 c 0
 343 703 351 712 364 712 c 0xde
281 529 m 0
 408 529 488 434 488 262 c 0
 488 89 406 -10 280 -10 c 0
 151 -10 73 91 73 259 c 0
 73 431 156 529 281 529 c 0
281 509 m 0
 169 509 96 422 96 259 c 0
 96 101 165 11 280 11 c 0
 393 11 465 99 465 262 c 0
 465 421 396 509 281 509 c 0
EndSplineSet
EndChar
StartChar: uni00FF
Encoding: 255 255 190
Width: 444
Flags: W
HStem: -195 21G<59 59> 0 17<211 225 211 225> 0 21G<211 219 211 211> 499 20G<23 47 47 47 396 421 421 421> 673 39<133 145 298.5 311> 692 20<133 145 298.5 311>
VStem: 284 40<686.5 697.5>
LayerCount: 2
Fore
SplineSet
139 712 m 0xba
 151 712 159 703 159 692 c 0
 159 681 151 673 139 673 c 0
 127 673 119 681 119 692 c 0
 119 703 127 712 139 712 c 0xba
305 712 m 0xd6
 317 712 324 703 324 692 c 0
 324 681 317 673 305 673 c 0
 292 673 284 681 284 692 c 0
 284 703 292 712 305 712 c 0xd6
421 519 m 1
 240 -1 l 2
 200 -116 169 -163 59 -195 c 1
 56 -177 l 1
 159 -146 181 -103 219 0 c 1
 211 0 l 1
 23 519 l 1
 47 519 l 1
 225 17 l 1
 396 519 l 1
 421 519 l 1
EndSplineSet
EndChar
StartChar: uni0108
Encoding: 264 264 199
Width: 538
Flags: W
HStem: -10 22<273.5 380.5 273.5 381.5> 670 21<277 378.5> 845 24<342 342>
VStem: 78 23<231.5 455 231.5 458.5>
LayerCount: 2
Fore
SplineSet
227 766 m 1
 216 780 l 1
 336 869 l 1
 348 869 l 1
 468 780 l 1
 456 766 l 1
 342 845 l 1
 227 766 l 1
344 691 m 0
 419 691 463 668 505 633 c 1
 492 617 l 1
 449 651 411 670 346 670 c 0
 208 670 101 570 101 340 c 0
 101 123 205 12 342 12 c 0
 419 12 461 39 499 71 c 1
 513 54 l 1
 472 19 421 -10 342 -10 c 0
 189 -10 78 113 78 340 c 0
 78 577 195 691 344 691 c 0
EndSplineSet
EndChar
StartChar: uni0109
Encoding: 265 265 200
Width: 464
Flags: W
HStem: -10 21<229 310 229 313> 509 20<229 309.5> 738 24<281 281>
VStem: 73 23<176 339 176 341.5>
LayerCount: 2
Fore
SplineSet
166 654 m 1
 155 667 l 1
 275 762 l 1
 287 762 l 1
 407 667 l 1
 395 654 l 1
 281 738 l 1
 166 654 l 1
283 529 m 0
 339 529 379 514 418 479 c 1
 405 464 l 1
 372 493 335 509 284 509 c 0
 174 509 96 421 96 257 c 0
 96 95 175 11 283 11 c 0
 337 11 377 30 410 59 c 1
 423 44 l 1
 387 12 342 -10 284 -10 c 0
 159 -10 73 87 73 257 c 0
 73 426 156 529 283 529 c 0
EndSplineSet
EndChar
StartChar: uni010D
Encoding: 269 269 204
Width: 464
Flags: W
HStem: -10 21<229 310 229 313> 509 20<229 309.5> 641 24<281 281 281 287 275 281> 716 20G<155 155 407 407>
VStem: 73 23<176 339 176 341.5>
LayerCount: 2
Fore
SplineSet
395 749 m 1
 407 736 l 1
 287 641 l 1
 275 641 l 1
 155 736 l 1
 166 749 l 1
 281 665 l 1
 395 749 l 1
283 529 m 0
 339 529 379 514 418 479 c 1
 405 464 l 1
 372 493 335 509 284 509 c 0
 174 509 96 421 96 257 c 0
 96 95 175 11 283 11 c 0
 337 11 377 30 410 59 c 1
 423 44 l 1
 387 12 342 -10 284 -10 c 0
 159 -10 73 87 73 257 c 0
 73 426 156 529 283 529 c 0
EndSplineSet
EndChar
StartChar: uni0114
Encoding: 276 276 211
Width: 494
Flags: W
HStem: 0 21<146 451 146 451> 349 21<146 400 146 400> 660 21<146 441 146 146> 771 21<263.5 310.5 263.5 316.5>
VStem: 123 23<21 349 370 660>
LayerCount: 2
Fore
SplineSet
287 771 m 0
 229 771 189 807 179 847 c 1
 195 851 l 1
 208 817 240 792 287 792 c 0
 334 792 367 817 379 851 c 1
 395 847 l 1
 386 807 346 771 287 771 c 0
444 681 m 1
 441 660 l 1
 146 660 l 1
 146 370 l 1
 400 370 l 1
 400 349 l 1
 146 349 l 1
 146 21 l 1
 451 21 l 1
 451 0 l 1
 123 0 l 1
 123 681 l 1
 444 681 l 1
EndSplineSet
EndChar
StartChar: uni0115
Encoding: 277 277 212
Width: 526
Flags: W
HStem: -10 21<227.5 311 227.5 313.5> 246 19<96 439 96 459 96 439> 509 20<224.5 331> 662 22<250.5 297.5 250.5 303.5>
VStem: 73 23<246 246 246 265 246 340.5> 439 22<277 292 292 355>
LayerCount: 2
Fore
SplineSet
274 662 m 0
 216 662 176 699 166 748 c 1
 182 752 l 1
 195 708 227 684 274 684 c 0
 321 684 354 708 366 752 c 1
 382 748 l 1
 373 699 333 662 274 662 c 0
461 284 m 0
 461 270 460 257 459 246 c 1
 96 246 l 1
 101 87 175 11 280 11 c 0
 342 11 382 31 427 68 c 1
 439 51 l 1
 394 13 347 -10 280 -10 c 0
 154 -10 73 87 73 255 c 0
 73 426 152 529 272 529 c 0
 400 529 461 429 461 284 c 0
439 265 m 1
 439 292 l 2
 439 418 388 509 274 509 c 0
 175 509 99 430 96 265 c 1
 439 265 l 1
EndSplineSet
EndChar
StartChar: uni011D
Encoding: 285 285 220
Width: 495
Flags: W
HStem: -197 21<184 316 184 322> 43 21<176.5 305 218 304> 190 20<231 293 202.5 299.5> 509 20<193 243 189 292> 512 17 738 24<245 245>
VStem: 44 22<-108.5 -58> 66 22<322.5 402 309 409.5> 96 23<110 144.5> 399 23<309.5 398 305 404.5> 436 22<-95 -26.5>
LayerCount: 2
Fore
SplineSet
130 654 m 1xf540
 119 667 l 1
 239 762 l 1
 251 762 l 1
 371 667 l 1
 359 654 l 1
 245 738 l 1
 130 654 l 1xf540
463 550 m 1
 471 526 l 1
 440 518 396 512 318 512 c 1
 382 490 422 440 422 356 c 0
 422 254 354 190 245 190 c 0
 217 190 192 196 171 204 c 1
 139 186 119 161 119 129 c 0
 119 91 147 64 218 64 c 2xedc0
 305 64 l 2
 403 64 458 15 458 -57 c 0
 458 -145 393 -197 251 -197 c 0
 107 -197 44 -159 44 -58 c 1
 66 -58 l 1xf660
 68 -146 117 -176 251 -176 c 0
 381 -176 436 -132 436 -58 c 0
 436 5 387 43 304 43 c 2
 216 43 l 2
 137 43 96 78 96 126 c 0xf5e0
 96 163 120 191 153 212 c 1
 97 241 66 287 66 358 c 0
 66 461 135 529 243 529 c 0
 393 528 422 537 463 550 c 1
244 509 m 0xf540
 142 509 88 446 88 358 c 0
 88 260 160 210 245 210 c 0
 341 210 399 263 399 356 c 0
 399 453 340 509 244 509 c 0xf540
EndSplineSet
EndChar
StartChar: uni0120
Encoding: 288 288 223
Width: 605
Flags: W
HStem: -10 22<277.5 385.5> 333 21<365 510 365 365> 670 21<288 378.5> 811 39<339 352>
VStem: 78 23<233.5 460.5 233.5 464> 345 21 510 23<53 333 333 333>
LayerCount: 2
Fore
SplineSet
345 850 m 0
 359 850 366 840 366 830 c 0
 366 820 359 811 345 811 c 0
 333 811 325 820 325 830 c 0
 325 840 333 850 345 850 c 0
348 691 m 0
 417 691 465 672 516 632 c 1
 503 616 l 1
 455 653 409 670 348 670 c 0
 228 670 101 576 101 345 c 0
 101 122 202 12 353 12 c 0
 419 12 467 28 510 53 c 1
 510 333 l 1
 365 333 l 1
 362 354 l 1
 533 354 l 1
 533 41 l 1
 480 10 418 -10 353 -10 c 0
 189 -10 78 110 78 345 c 0
 78 583 215 691 348 691 c 0
EndSplineSet
EndChar
StartChar: uni0122
Encoding: 290 290 225
Width: 605
Flags: W
HStem: -10 22<277.5 385.5> 333 21<365 510 365 365> 670 21<288 378.5>
VStem: 78 23<233.5 460.5 233.5 464> 311 49<-125 -112.5> 510 23<53 333 333 333>
LayerCount: 2
Fore
SplineSet
348 691 m 0
 417 691 465 672 516 632 c 1
 503 616 l 1
 455 653 409 670 348 670 c 0
 228 670 101 576 101 345 c 0
 101 122 202 12 353 12 c 0
 419 12 467 28 510 53 c 1
 510 333 l 1
 365 333 l 1
 362 354 l 1
 533 354 l 1
 533 41 l 1
 480 10 418 -10 353 -10 c 0
 189 -10 78 110 78 345 c 0
 78 583 215 691 348 691 c 0
335 -96 m 0
 352 -96 360 -106 360 -119 c 0
 360 -131 357 -139 346 -162 c 2
 311 -258 l 1
 296 -258 l 1
 327 -142 l 1
 316 -138 311 -131 311 -119 c 0
 311 -106 321 -96 335 -96 c 0
EndSplineSet
EndChar
StartChar: uni0125
Encoding: 293 293 228
Width: 581
Flags: W
HStem: 0 21G<118 140 118 118 447 469 447 447> 509 20<289 369.5> 713 20G<118 118> 716 20G<140 140> 896 24<295 295>
VStem: 118 22<0 384 414 733 733 733> 447 22<0 367 367 369 0 413>
LayerCount: 2
Fore
SplineSet
295 896 m 1xde
 180 817 l 1
 169 831 l 1
 289 920 l 1
 301 920 l 1
 421 831 l 1
 409 817 l 1
 295 896 l 1xde
330 529 m 0
 424 529 469 469 469 369 c 2
 469 0 l 1
 447 0 l 1
 447 367 l 2
 447 459 409 509 330 509 c 0
 246 509 189 459 140 384 c 1
 140 0 l 1
 118 0 l 1
 118 733 l 1xee
 140 736 l 1
 140 414 l 1
 187 484 248 529 330 529 c 0
EndSplineSet
EndChar
StartChar: uni012A
Encoding: 298 298 233
Width: 268
Flags: W
HStem: 0 21G<123 146 123 123> 661 20G<123 146 146 146> 811 21<30 237 30 237>
VStem: 123 23<0 681 0 681>
LayerCount: 2
Fore
SplineSet
237 811 m 1
 30 811 l 1
 30 832 l 1
 237 832 l 1
 237 811 l 1
146 681 m 1
 146 0 l 1
 123 0 l 1
 123 681 l 1
 146 681 l 1
EndSplineSet
EndChar
StartChar: uni012D
Encoding: 301 301 236
Width: 258
Flags: W
HStem: 0 21G<118 140 118 118> 499 20G<118 140 140 140> 662 22<105.5 152.5 105.5 158.5>
VStem: 118 22<0 519 0 519>
LayerCount: 2
Fore
SplineSet
129 662 m 0
 71 662 31 699 21 748 c 1
 37 752 l 1
 50 708 82 684 129 684 c 0
 176 684 209 708 221 752 c 1
 237 748 l 1
 228 699 188 662 129 662 c 0
140 519 m 1
 140 0 l 1
 118 0 l 1
 118 519 l 1
 140 519 l 1
EndSplineSet
EndChar
StartChar: uni012F
Encoding: 303 303 238
Width: 258
Flags: W
HStem: -203 22<61.5 93.5> -196 21G<138 138> 0 21G<140 140> 499 20G<118 140 140 140> 685 39<123 136>
VStem: -9 24<-140 -93.5> 118 22<7 519> 129 21
LayerCount: 2
Fore
SplineSet
129 724 m 0xbd
 143 724 150 714 150 704 c 0
 150 694 143 685 129 685 c 0
 117 685 109 694 109 704 c 0
 109 714 117 724 129 724 c 0xbd
118 7 m 1xbe
 118 519 l 1
 140 519 l 1
 140 0 l 1
 69 -31 15 -63 15 -122 c 0
 15 -158 38 -181 85 -181 c 0xbe
 103 -181 119 -179 140 -174 c 1x7e
 138 -196 l 1
 118 -201 103 -203 84 -203 c 0
 21 -203 -9 -169 -9 -123 c 0
 -9 -64 42 -25 118 7 c 1xbe
EndSplineSet
EndChar
StartChar: uni0132
Encoding: 306 306 241
Width: 546
Flags: W
HStem: 0 21G<123 146 123 123> 661 20G<123 146 146 146 406 429 429 429>
VStem: 123 23<0 681 0 681> 406 23<89 681>
LayerCount: 2
Fore
SplineSet
146 681 m 1
 146 0 l 1
 123 0 l 1
 123 681 l 1
 146 681 l 1
429 681 m 1
 429 87 l 2
 429 -13 406 -53 298 -100 c 1
 291 -83 l 1
 384 -40 406 -4 406 89 c 2
 406 681 l 1
 429 681 l 1
EndSplineSet
EndChar
StartChar: uni013D
Encoding: 317 317 252
Width: 456
Flags: W
HStem: 0 22<146 430> 661 20G<123 146 146 146>
VStem: 123 23<22 681 22 681 22 681>
LayerCount: 2
Fore
SplineSet
236 537 m 1
 262 682 l 1
 238 684 l 1
 220 540 l 1
 236 537 l 1
146 681 m 1
 146 22 l 1
 434 22 l 1
 430 0 l 1
 123 0 l 1
 123 681 l 1
 146 681 l 1
EndSplineSet
EndChar
StartChar: uni0146
Encoding: 326 326 261
Width: 581
Flags: W
HStem: 0 21G<118 140 118 118 447 469 447 447> 499 20G<118 137 137 137> 509 20<289 369.5>
VStem: 118 20 264 49<-125 -112.5> 447 22<0 367 367 369 0 414>
LayerCount: 2
Fore
SplineSet
330 529 m 0xb4
 425 529 469 471 469 369 c 2
 469 0 l 1
 447 0 l 1
 447 367 l 2
 447 461 409 509 330 509 c 0xb4
 246 509 189 459 140 384 c 1
 140 0 l 1
 118 0 l 1
 118 519 l 1
 137 519 l 1xd4
 139 413 l 1
 186 483 248 529 330 529 c 0xb4
288 -96 m 0xbc
 305 -96 313 -106 313 -119 c 0
 313 -131 310 -139 299 -162 c 2
 264 -258 l 1
 249 -258 l 1
 280 -142 l 1
 269 -138 264 -131 264 -119 c 0
 264 -106 274 -96 288 -96 c 0xbc
EndSplineSet
EndChar
StartChar: uni014E
Encoding: 334 334 269
Width: 689
Flags: W
HStem: -10 22<271.5 421 271.5 427.5> 670 21<272 418> 771 21<321.5 368.5 321.5 374.5>
VStem: 78 23<233 446.5 233 451> 588 23<233.5 448.5>
LayerCount: 2
Fore
SplineSet
345 771 m 0
 287 771 247 807 237 847 c 1
 253 851 l 1
 266 817 298 792 345 792 c 0
 392 792 425 817 437 851 c 1
 453 847 l 1
 444 807 404 771 345 771 c 0
344 691 m 0
 505 691 611 569 611 340 c 0
 611 119 511 -10 344 -10 c 0
 185 -10 78 115 78 339 c 0
 78 563 187 691 344 691 c 0
344 670 m 0
 200 670 101 554 101 339 c 0
 101 127 199 12 344 12 c 0
 498 12 588 127 588 340 c 0
 588 557 492 670 344 670 c 0
EndSplineSet
EndChar
StartChar: uni0152
Encoding: 338 338 273
Width: 845
Flags: W
HStem: -10 22<265 343.5> 0 12<397 404 265 802 397 397> 0 21<445 802 445 802> 349 21<588 751 588 751> 660 21<448 792 448 448> 670 11<265 795> 670 21<265 345 258.5 401.5>
VStem: 78 23<233 446.5 233 451> 565 23<349 349 349 370 349 454.5>
LayerCount: 2
Fore
SplineSet
802 21 m 1x3580
 802 0 l 1
 397 0 l 1x3580
 377 -7 355 -10 332 -10 c 0
 183 -10 78 115 78 339 c 0
 78 563 185 691 332 691 c 0x9380
 358 691 382 688 403 681 c 1
 795 681 l 1x3580
 792 660 l 1
 448 660 l 1x3980
 533 613 584 513 588 370 c 1
 751 370 l 1
 751 349 l 1
 588 349 l 1
 587 177 535 67 445 21 c 1
 802 21 l 1x3580
101 339 m 0x5580
 101 127 198 12 332 12 c 0
 476 12 565 127 565 352 c 0
 565 557 471 670 332 670 c 0
 198 670 101 554 101 339 c 0x5580
EndSplineSet
EndChar
StartChar: uni0153
Encoding: 339 339 274
Width: 918
Flags: W
HStem: -10 21<222.5 329.5 622.5 703> 246 19<488 831 488 851 488 831> 509 20<225 331 218.5 338.5 617 723>
VStem: 73 23<180.5 340.5 180.5 345> 465 23<246 246 246 265 246 341.5> 831 22<277 292 292 355>
LayerCount: 2
Fore
SplineSet
853 284 m 0
 853 270 852 257 851 246 c 1
 488 246 l 1
 493 87 567 11 672 11 c 0
 734 11 774 31 819 68 c 1
 831 51 l 1
 786 13 739 -10 672 -10 c 0
 573 -10 502 54 476 159 c 1
 449 53 379 -10 280 -10 c 0
 151 -10 73 91 73 259 c 0
 73 431 156 529 281 529 c 0
 381 529 451 466 477 360 c 1
 503 464 570 529 664 529 c 0
 792 529 853 429 853 284 c 0
280 11 m 0
 393 11 465 100 465 262 c 0
 465 421 396 509 281 509 c 0
 169 509 96 422 96 259 c 0
 96 102 165 11 280 11 c 0
831 265 m 1
 831 292 l 2
 831 418 780 509 666 509 c 0
 567 509 491 430 488 265 c 1
 831 265 l 1
EndSplineSet
EndChar
StartChar: uni0158
Encoding: 344 344 279
Width: 572
Flags: W
HStem: 0 21G<123 146 123 123 501 528 501 501> 324 21<146 287 287 313 146 287> 660 21<146 269 146 146> 760 24<284 284 284 290 278 284>
VStem: 123 23<0 324 345 660> 473 23<448.5 553>
LayerCount: 2
Fore
SplineSet
290 760 m 1
 278 760 l 1
 158 850 l 1
 169 863 l 1
 284 784 l 1
 398 863 l 1
 410 850 l 1
 290 760 l 1
501 0 m 1
 313 324 l 1
 146 324 l 1
 146 0 l 1
 123 0 l 1
 123 681 l 1
 272 681 l 2
 431 681 496 616 496 504 c 0
 496 393 428 343 337 327 c 1
 528 0 l 1
 501 0 l 1
146 345 m 1
 287 345 l 2
 398 345 473 393 473 504 c 0
 473 602 420 660 269 660 c 2
 146 660 l 1
 146 345 l 1
EndSplineSet
EndChar
StartChar: uni0160
Encoding: 352 352 287
Width: 536
Flags: W
HStem: -10 22<214 313 214 319.5> 670 21<215.5 300.5> 760 24<269 269 269 275 263 269>
VStem: 80 23<492.5 573.5 492.5 578.5> 444 22<129.5 231>
LayerCount: 2
Fore
SplineSet
383 863 m 1
 395 850 l 1
 275 760 l 1
 263 760 l 1
 143 850 l 1
 154 863 l 1
 269 784 l 1
 383 863 l 1
265 691 m 0
 348 691 397 664 445 622 c 1
 430 605 l 1
 383 649 336 670 265 670 c 0
 166 670 103 613 103 534 c 0
 103 451 148 417 274 378 c 0
 407 337 466 293 466 182 c 0
 466 68 381 -10 258 -10 c 0
 168 -10 108 23 54 72 c 1
 69 87 l 1
 118 42 171 12 257 12 c 0
 369 12 444 78 444 181 c 0
 444 281 393 318 266 358 c 0
 128 401 80 443 80 534 c 0
 80 623 153 691 265 691 c 0
EndSplineSet
EndChar
StartChar: uni0166
Encoding: 358 358 293
Width: 476
Flags: W
HStem: 0 21G<226 249 226 226> 360 20<102 226 102 226 249 373> 659 22<16 226 16 463 249 459 249 249>
VStem: 226 23<0 360 0 360 380 659>
LayerCount: 2
Fore
SplineSet
459 659 m 1
 249 659 l 1
 249 380 l 1
 373 380 l 1
 373 360 l 1
 249 360 l 1
 249 0 l 1
 226 0 l 1
 226 360 l 1
 102 360 l 1
 102 380 l 1
 226 380 l 1
 226 659 l 1
 16 659 l 1
 16 681 l 1
 463 681 l 1
 459 659 l 1
EndSplineSet
EndChar
StartChar: uni0167
Encoding: 359 359 294
Width: 333
Flags: W
HStem: -10 21<198.5 247 198.5 247.5> 322 19<28 115 28 115 137 274> 499 20<29 115 29 115 137 277>
VStem: 115 22<117 118 118 322 341 499 519 650 650 650>
LayerCount: 2
Fore
SplineSet
318 37 m 1
 328 20 l 1
 300 3 268 -10 227 -10 c 0
 158 -10 115 33 115 117 c 2
 115 322 l 1
 28 322 l 1
 28 341 l 1
 115 341 l 1
 115 499 l 1
 29 499 l 1
 29 519 l 1
 115 519 l 1
 115 650 l 1
 137 652 l 1
 137 519 l 1
 281 519 l 1
 277 499 l 1
 137 499 l 1
 137 341 l 1
 274 341 l 1
 274 322 l 1
 137 322 l 1
 137 118 l 2
 137 48 168 11 229 11 c 0
 265 11 293 22 318 37 c 1
EndSplineSet
EndChar
StartChar: uni0172
Encoding: 370 370 305
Width: 640
Flags: W
HStem: -203 22<318 347.5> -196 21G<392 392> -10 22<254.5 324.5> 661 20G<113 136 136 136 505 528 528 528>
VStem: 113 23<207 210 210 681> 245 24<-139.5 -96.5> 505 23<210 681>
LayerCount: 2
Fore
SplineSet
505 681 m 1xbe
 528 681 l 1
 528 207 l 2
 528 104 486 23 389 -2 c 1
 321 -32 269 -64 269 -121 c 0
 269 -158 295 -181 341 -181 c 0xbe
 359 -181 373 -179 394 -174 c 1x7e
 392 -196 l 1
 371 -201 357 -203 338 -203 c 0
 275 -203 245 -169 245 -121 c 0
 245 -72 281 -38 341 -9 c 1
 335 -10 328 -10 321 -10 c 0
 173 -10 113 82 113 207 c 2
 113 681 l 1
 136 681 l 1
 136 210 l 2
 136 93 188 12 321 12 c 0
 454 12 505 95 505 210 c 2
 505 681 l 1xbe
EndSplineSet
EndChar
StartChar: uni0178
Encoding: 376 376 311
Width: 494
Flags: W
HStem: 0 21G<237 260 237 237> 661 20G<21 47 47 47 447 473 473 473> 799 39<158 170 323.5 336> 818 20<158 170 323.5 336>
VStem: 237 23<0 270 270 270> 309 40<812.5 823.5>
LayerCount: 2
Fore
SplineSet
164 838 m 0xe8
 176 838 184 829 184 818 c 0
 184 807 176 799 164 799 c 0
 152 799 144 807 144 818 c 0
 144 829 152 838 164 838 c 0xe8
330 838 m 0xdc
 342 838 349 829 349 818 c 0
 349 807 342 799 330 799 c 0
 317 799 309 807 309 818 c 0
 309 829 317 838 330 838 c 0xdc
473 681 m 1
 260 271 l 1
 260 0 l 1
 237 0 l 1
 237 270 l 1
 21 681 l 1
 47 681 l 1
 249 292 l 1
 447 681 l 1
 473 681 l 1
EndSplineSet
EndChar
StartChar: uni017A
Encoding: 378 378 313
Width: 405
Flags: W
HStem: 0 21<59 364> 499 20<58 346 58 374>
VStem: 31 343
LayerCount: 2
Fore
SplineSet
288 761 m 1
 298 738 l 1
 120 654 l 1
 112 670 l 1
 288 761 l 1
374 519 m 1
 374 501 l 1
 59 21 l 1
 366 21 l 1
 364 0 l 1
 31 0 l 1
 31 18 l 1
 346 499 l 1
 58 499 l 1
 58 519 l 1
 374 519 l 1
EndSplineSet
EndChar
StartChar: uni017D
Encoding: 381 381 316
Width: 509
Flags: W
HStem: 0 22<69 443> 660 21<79 432 79 459> 760 24<255 255 255 261 249 255>
VStem: 41 418
LayerCount: 2
Fore
SplineSet
369 863 m 1
 381 850 l 1
 261 760 l 1
 249 760 l 1
 129 850 l 1
 140 863 l 1
 255 784 l 1
 369 863 l 1
459 681 m 1
 459 662 l 1
 69 22 l 1
 446 22 l 1
 443 0 l 1
 41 0 l 1
 41 21 l 1
 432 660 l 1
 79 660 l 1
 79 681 l 1
 459 681 l 1
EndSplineSet
EndChar
StartChar: uni0180
Encoding: 384 384 319
Width: 569
Flags: W
HStem: -10 21<270.5 360.5 270.5 369> 0 21G<123 142 123 123> 509 20<275 365.5> 629 20<48 123 48 123 145 327> 629 107<48 145 48 145 145 145 145 327> 713 20G<123 123>
VStem: 123 20 474 22<183.5 344>
LayerCount: 2
Fore
SplineSet
313 529 m 0xb7
 432 529 496 434 496 264 c 0
 496 95 431 -10 307 -10 c 0
 232 -10 178 31 144 81 c 1xb7
 142 0 l 1
 123 0 l 1
 123 629 l 1
 48 629 l 1
 48 649 l 1
 123 649 l 1
 123 733 l 1x77
 145 736 l 1xab
 145 649 l 1
 327 649 l 1
 327 629 l 1
 145 629 l 1
 145 436 l 1
 184 490 237 529 313 529 c 0xb7
306 11 m 0
 415 11 474 103 474 264 c 0
 474 424 418 509 313 509 c 0
 236 509 189 469 145 410 c 1
 145 106 l 1
 183 50 235 11 306 11 c 0
EndSplineSet
EndChar
StartChar: uni0182
Encoding: 386 386 321
Width: 562
Flags: W
HStem: 0 21<146 277> 384 21<146 276 276 278 146 276> 660 21<146 434 146 146>
VStem: 123 23<21 384 405 660> 478 23<145.5 270>
LayerCount: 2
Fore
SplineSet
276 405 m 2
 418 405 501 340 501 211 c 0
 501 66 411 0 277 0 c 2
 123 0 l 1
 123 681 l 1
 439 681 l 1
 434 660 l 1
 146 660 l 1
 146 405 l 1
 276 405 l 2
283 21 m 2
 402 21 478 80 478 211 c 0
 478 329 404 384 278 384 c 2
 146 384 l 1
 146 21 l 1
 283 21 l 2
EndSplineSet
EndChar
StartChar: uni0183
Encoding: 387 387 322
Width: 564
Flags: W
HStem: -10 21<265.5 355.5 265.5 364> 0 21G<118 137 118 118> 509 20<270 360.5> 711 21<140 380 140 140>
VStem: 118 20 469 22<183.5 344>
LayerCount: 2
Fore
SplineSet
308 529 m 0xbc
 426 529 491 435 491 264 c 0
 491 94 426 -10 302 -10 c 0
 227 -10 173 31 139 81 c 1xbc
 137 0 l 1
 118 0 l 1x7c
 118 732 l 1
 384 732 l 1
 380 711 l 1
 140 711 l 1
 140 436 l 1
 179 490 232 529 308 529 c 0xbc
301 11 m 0
 410 11 469 103 469 264 c 0
 469 424 413 509 308 509 c 0
 231 509 184 469 140 410 c 1
 140 106 l 1
 178 50 230 11 301 11 c 0
EndSplineSet
EndChar
StartChar: uni0184
Encoding: 388 388 323
Width: 550
Flags: W
HStem: 0 21<146 277> 387 21<146 276 276 278 146 276> 661 20G<126 146 146 146>
VStem: 123 23<21 387 408 587 587 587> 478 23<146.5 272.5>
LayerCount: 2
Fore
SplineSet
276 408 m 2
 418 408 501 344 501 212 c 0
 501 66 410 0 277 0 c 2
 123 0 l 1
 123 587 l 1
 91 609 l 1
 107 626 120 649 126 681 c 1
 146 681 l 1
 146 408 l 1
 276 408 l 2
283 21 m 2
 402 21 478 80 478 213 c 0
 478 332 404 387 278 387 c 2
 146 387 l 1
 146 21 l 1
 283 21 l 2
EndSplineSet
EndChar
StartChar: uni0185
Encoding: 389 389 324
Width: 491
Flags: W
HStem: 0 21<140 258 258 261> 315 20<140 256 256 257 140 256> 499 20G<121 140 140 140>
VStem: 118 22<21 315 335 434 434 434> 424 23<120 218>
LayerCount: 2
Fore
SplineSet
256 335 m 2
 392 335 447 274 447 174 c 0
 447 55 373 0 261 0 c 2
 118 0 l 1
 118 434 l 1
 86 456 l 1
 101 473 112 490 121 519 c 1
 140 519 l 1
 140 335 l 1
 256 335 l 2
258 21 m 2
 363 21 424 66 424 174 c 0
 424 262 379 315 257 315 c 2
 140 315 l 1
 140 21 l 1
 258 21 l 2
EndSplineSet
EndChar
StartChar: uni0186
Encoding: 390 390 325
Width: 538
Flags: W
HStem: -10 22<163 266.5 163 274.5> 670 21<176 276>
VStem: 437 23<231.5 455>
LayerCount: 2
Fore
SplineSet
211 691 m 0
 357 691 460 577 460 340 c 0
 460 113 349 -10 200 -10 c 0
 119 -10 67 19 25 54 c 1
 39 70 l 1
 82 37 126 12 200 12 c 0
 333 12 437 123 437 340 c 0
 437 570 342 670 210 670 c 0
 142 670 93 651 46 617 c 1
 34 633 l 1
 79 667 134 691 211 691 c 0
EndSplineSet
EndChar
StartChar: uni0187
Encoding: 391 391 326
Width: 538
Flags: W
HStem: -10 22<274 380.5 274 381.5> 670 21<277.5 375.5 269.5 378.5> 794 20<559 598>
VStem: 78 23<231.5 455 231.5 458.5> 483 22<648 702 633 703 633 740>
LayerCount: 2
Fore
SplineSet
580 814 m 0
 622 814 649 799 669 784 c 1
 658 769 l 1
 638 783 616 794 580 794 c 0
 538 794 505 769 505 702 c 2
 505 633 l 1
 493 618 l 1
 449 651 411 670 346 670 c 0
 209 670 101 570 101 340 c 0
 101 123 206 12 342 12 c 0
 419 12 461 39 499 71 c 1
 513 54 l 1
 472 19 421 -10 342 -10 c 0
 189 -10 78 113 78 340 c 0
 78 577 195 691 344 691 c 0
 407 691 449 673 483 648 c 1
 483 703 l 2
 483 777 522 814 580 814 c 0
EndSplineSet
EndChar
StartChar: uni0189
Encoding: 393 393 328
Width: 617
Flags: W
HStem: 0 21<143 246> 341 22<26 120 26 120 143 335> 660 21<143 240 143 143>
VStem: 120 23<21 341 21 341 21 341 363 660> 516 23<215 482.5>
LayerCount: 2
Fore
SplineSet
242 681 m 2
 388 681 539 627 539 348 c 0
 539 63 382 0 246 0 c 2
 120 0 l 1
 120 341 l 1
 26 341 l 1
 26 363 l 1
 120 363 l 1
 120 681 l 1
 242 681 l 2
247 21 m 2
 378 21 516 82 516 348 c 0
 516 617 373 660 240 660 c 2
 143 660 l 1
 143 363 l 1
 335 363 l 1
 335 341 l 1
 143 341 l 1
 143 21 l 1
 247 21 l 2
EndSplineSet
EndChar
StartChar: uni018A
Encoding: 394 394 329
Width: 662
Flags: W
HStem: 0 21<188 291> 660 21<188 285 188 188>
VStem: 23 22<567.5 606.5 567.5 613.5> 165 23<21 660 21 661 21 661> 561 23<215 482.5>
LayerCount: 2
Fore
SplineSet
287 681 m 2
 433 681 584 627 584 348 c 0
 584 63 427 0 291 0 c 2
 165 0 l 1
 165 661 l 1
 132 661 l 2
 71 661 45 629 45 584 c 0
 45 551 57 529 70 508 c 1
 53 498 l 1
 38 521 23 544 23 584 c 0
 23 643 61 681 135 681 c 2
 287 681 l 2
292 21 m 2
 422 21 561 82 561 348 c 0
 561 617 418 660 285 660 c 2
 188 660 l 1
 188 21 l 1
 292 21 l 2
EndSplineSet
EndChar
StartChar: uni018D
Encoding: 397 397 332
Width: 557
Flags: W
HStem: -204 21<246.5 315.5 246.5 323> 508 21<222 337>
VStem: 73 23<231.5 361 231.5 367> 408 23<-111 -83 -117 -53> 461 23<232.5 364>
LayerCount: 2
Fore
SplineSet
311 49 m 1
 395 15 430 -20 431 -83 c 0
 431 -151 370 -204 276 -204 c 0
 216 -204 172 -188 127 -159 c 1
 141 -143 l 1
 183 -170 219 -183 274 -183 c 0
 357 -183 408 -140 408 -82 c 0xf8
 408 -24 379 4 267 46 c 0
 130 98 73 160 73 295 c 0
 73 439 151 529 281 529 c 0
 407 529 484 443 484 296 c 0xe8
 484 169 415 89 311 49 c 1
96 295 m 0xe8
 96 168 143 113 289 57 c 1
 384 92 461 167 461 296 c 0
 461 432 393 508 281 508 c 0
 163 508 96 427 96 295 c 0xe8
EndSplineSet
EndChar
StartChar: uni018F
Encoding: 399 399 334
Width: 646
Flags: W
HStem: -10 22<249.5 384 249.5 392> 339 20<92 544 92 92> 670 21<282 386>
VStem: 68 24<215.5 339> 544 25<224 339 359 359>
LayerCount: 2
Fore
SplineSet
319 691 m 0
 472 691 569 589 569 337 c 0
 569 101 466 -10 318 -10 c 0
 166 -10 68 106 68 325 c 0
 68 337 68 346 69 359 c 1
 544 359 l 1
 538 581 453 670 319 670 c 0
 245 670 189 647 126 596 c 1
 113 612 l 1
 176 665 236 691 319 691 c 0
319 12 m 0
 449 12 544 109 544 339 c 1
 92 339 l 1
 90 120 180 12 319 12 c 0
EndSplineSet
EndChar
StartChar: uni0193
Encoding: 403 403 338
Width: 550
Flags: W
HStem: -10 22<277.5 385.5> 333 21<365 510 365 365> 670 21<288 377 281.5 378> 794 20<570.5 610>
VStem: 78 23<233.5 460.5 233.5 464> 494 22<648 702 632 703 632 740> 510 23<53 333 333 333>
LayerCount: 2
Fore
SplineSet
592 814 m 0xfc
 634 814 661 799 680 784 c 1
 669 769 l 1
 650 783 628 794 592 794 c 0
 549 794 516 769 516 702 c 2
 516 632 l 1
 505 619 l 1xfc
 456 654 409 670 347 670 c 0
 229 670 101 576 101 345 c 0
 101 122 202 12 353 12 c 0
 420 12 467 28 510 53 c 1
 510 333 l 1
 365 333 l 1
 362 354 l 1
 533 354 l 1
 533 41 l 1xfa
 480 10 418 -10 353 -10 c 0
 189 -10 78 110 78 345 c 0
 78 583 216 691 347 691 c 0
 407 691 451 677 494 648 c 1
 494 703 l 2
 494 777 534 814 592 814 c 0xfc
EndSplineSet
EndChar
StartChar: uni0194
Encoding: 404 404 339
Width: 534
Flags: W
HStem: -197 20<251.5 284 251.5 291> 661 20G<28 52 52 52 482 506 506 506>
VStem: 197 23<-138.5 -100 -138.5 -100> 316 22<-138 -100.5>
LayerCount: 2
Fore
SplineSet
506 681 m 1
 281 54 l 1
 316 -28 338 -75 338 -123 c 0
 338 -164 314 -197 268 -197 c 0
 224 -197 197 -166 197 -123 c 0
 197 -77 220 -28 254 54 c 1
 28 681 l 1
 52 681 l 1
 268 71 l 1
 482 681 l 1
 506 681 l 1
316 -122 m 0
 316 -79 297 -36 268 37 c 1
 239 -36 220 -78 220 -122 c 0
 220 -155 235 -177 268 -177 c 0
 300 -177 316 -154 316 -122 c 0
EndSplineSet
EndChar
StartChar: uni0195
Encoding: 405 405 340
Width: 890
Flags: W
HStem: -10 21<566 648 566 657.5> 0 21G<118 140 118 118> 499 20G<748 771 771 771> 509 20<289 369.5> 713 20G<118 118> 716 20G<140 140>
VStem: 118 22<0 384 414 733 733 733> 447 22<155 156 156 367 367 369> 775 22<170.5 312>
LayerCount: 2
Fore
SplineSet
771 519 m 1xa780
 784 445 797 358 797 266 c 0
 797 72 711 -10 604 -10 c 0x9780
 515 -10 447 45 447 155 c 2
 447 367 l 2
 447 459 409 509 330 509 c 0
 246 509 189 459 140 384 c 1
 140 0 l 1
 118 0 l 1
 118 733 l 1x5b80
 140 736 l 1
 140 414 l 1
 187 484 248 529 330 529 c 0x9780
 424 529 469 469 469 369 c 2
 469 156 l 2
 469 55 528 11 604 11 c 0
 692 11 775 75 775 266 c 0
 775 358 761 445 748 519 c 1
 771 519 l 1xa780
EndSplineSet
EndChar
StartChar: uni0197
Encoding: 407 407 342
Width: 314
Flags: W
HStem: 0 21G<145 168 145 145> 350 21<35 145 35 145 168 279> 661 20G<145 168 168 168>
VStem: 145 23<0 350 0 350 371 681>
LayerCount: 2
Fore
SplineSet
279 371 m 1
 279 350 l 1
 168 350 l 1
 168 0 l 1
 145 0 l 1
 145 350 l 1
 35 350 l 1
 35 371 l 1
 145 371 l 1
 145 681 l 1
 168 681 l 1
 168 371 l 1
 279 371 l 1
EndSplineSet
EndChar
StartChar: uni0198
Encoding: 408 408 343
Width: 544
Flags: W
HStem: 0 21G<123 146 123 123 478 478 478 506> 661 20G<123 146 146 146> 671 20<444 474.5>
VStem: 123 23<0 681 0 681>
LayerCount: 2
Fore
SplineSet
478 0 m 1xb0
 149 367 l 1
 349 624 l 2
 389 676 416 691 460 691 c 0
 493 691 521 674 540 655 c 1
 527 642 l 1
 509 658 489 671 460 671 c 0
 428 671 405 664 364 610 c 2
 178 367 l 1
 506 0 l 1
 478 0 l 1xb0
146 681 m 1xd0
 146 0 l 1
 123 0 l 1
 123 681 l 1
 146 681 l 1xd0
EndSplineSet
EndChar
StartChar: uni0199
Encoding: 409 409 344
Width: 463
Flags: W
HStem: 0 21G<118 140 118 118 418 418 418 445> 499 20G<392 420 420 420> 716 21<212.5 262.5>
VStem: 118 22<0 614 0 617 0 656>
LayerCount: 2
Fore
SplineSet
243 716 m 0
 182 716 140 686 140 614 c 2
 140 0 l 1
 118 0 l 1
 118 617 l 2
 118 695 168 737 242 737 c 0
 284 737 324 725 358 706 c 1
 349 689 l 1
 316 706 282 716 243 716 c 0
174 284 m 1
 445 0 l 1
 418 0 l 1
 146 284 l 1
 392 519 l 1
 420 519 l 1
 174 284 l 1
EndSplineSet
EndChar
StartChar: uni019A
Encoding: 410 410 345
Width: 286
Flags: W
HStem: -10 21<189 213 189 214> 0 21G<252 252> 360 21<21 133 21 133 155 265> 713 20G<133 133> 716 20G<155 155>
VStem: 133 22<72 73 73 360 381 733 733 733>
LayerCount: 2
Fore
SplineSet
265 360 m 1xac
 155 360 l 1
 155 73 l 2
 155 32 172 11 206 11 c 0xac
 220 11 234 14 246 19 c 1x6c
 252 0 l 1
 239 -5 223 -10 205 -10 c 0
 162 -10 133 16 133 72 c 2
 133 360 l 1
 21 360 l 1
 21 381 l 1
 133 381 l 1
 133 733 l 1xb4
 155 736 l 1
 155 381 l 1
 265 381 l 1
 265 360 l 1xac
EndSplineSet
EndChar
StartChar: uni019B
Encoding: 411 411 346
Width: 458
Flags: W
HStem: -5 21G<64 64 434 434> 0 21G<43 43> 499 20G<226 236 236 236> 714 20G<279 279> 716 20G<88 88>
VStem: 43 412<0 4>
LayerCount: 2
Fore
SplineSet
258 511 m 0x6c
 326 167 389 90 455 4 c 1
 434 -5 l 1
 368 82 306 162 239 497 c 1
 64 -5 l 1xac
 43 0 l 1
 226 519 l 1
 236 519 l 1
 224 572 212 614 193 646 c 1
 115 566 l 1
 97 573 l 1
 183 661 l 1
 161 689 130 708 85 719 c 1
 88 736 l 1
 138 724 172 705 196 675 c 1
 264 746 l 1x6c
 279 734 l 1
 207 660 l 1x74
 231 625 245 576 258 511 c 0x6c
EndSplineSet
EndChar
StartChar: uni019C
Encoding: 412 412 347
Width: 923
Flags: W
HStem: -10 21<224.5 305.5 557.5 637> 0 21G<780 800 780 780> 661 20G<113 136 136 136 445 468 468 468 777 800 800 800>
VStem: 113 23<177 681> 445 23<177 681> 777 23<144 681 0 681>
LayerCount: 2
Fore
SplineSet
777 681 m 1xbc
 800 681 l 1
 800 0 l 1
 780 0 l 1x7c
 778 111 l 1
 738 42 678 -10 596 -10 c 0
 519 -10 467 34 451 116 c 1
 408 43 347 -10 264 -10 c 0
 169 -10 113 56 113 177 c 2
 113 681 l 1
 136 681 l 1
 136 173 l 2
 136 67 184 11 265 11 c 0
 347 11 403 67 447 143 c 1
 446 154 445 165 445 177 c 2
 445 681 l 1
 468 681 l 1
 468 173 l 2
 468 67 516 11 597 11 c 0
 680 11 737 69 777 144 c 1
 777 681 l 1xbc
EndSplineSet
EndChar
StartChar: uni019D
Encoding: 413 413 348
Width: 661
Flags: W
HStem: -197 20<29 68 29 75.5> 0 26<519 519 519 538 510 519> 656 25<142 142>
VStem: 123 22<-86 477> 516 22<205 681 0 681>
LayerCount: 2
Fore
SplineSet
516 681 m 1
 538 681 l 1
 538 0 l 1
 510 0 l 1
 142 656 l 1
 144 621 145 576 145 477 c 2
 145 -86 l 2
 145 -160 104 -197 47 -197 c 0
 6 -197 -22 -182 -41 -167 c 1
 -30 -152 l 1
 -11 -166 11 -177 47 -177 c 0
 89 -177 123 -152 123 -86 c 2
 123 681 l 1
 152 681 l 1
 519 26 l 1
 518 66 516 127 516 205 c 2
 516 681 l 1
EndSplineSet
EndChar
StartChar: uni019E
Encoding: 414 414 349
Width: 581
Flags: W
HStem: -196 21G<469 469> -192 21G<447 447> 0 21G<118 140 118 118> 499 20G<118 137 137 137> 509 20<289 369.5>
VStem: 118 20 447 22<-192 367 367 369 -196 414>
LayerCount: 2
Fore
SplineSet
330 529 m 0x6e
 425 529 469 471 469 369 c 2
 469 -196 l 1xae
 447 -192 l 1
 447 367 l 2
 447 461 409 509 330 509 c 0x6e
 246 509 189 459 140 384 c 1
 140 0 l 1
 118 0 l 1
 118 519 l 1
 137 519 l 1x76
 139 413 l 1
 186 483 248 529 330 529 c 0x6e
EndSplineSet
EndChar
StartChar: uni01A1
Encoding: 417 417 352
Width: 565
Flags: W
HStem: -10 21<222.5 336.5 222.5 343> 446 15 509 20<225 312.5 218.5 338.5>
VStem: 73 23<180 340.5 180 345> 465 23<180.5 301 175.5 341.5> 495 20<504 537.5>
LayerCount: 2
Fore
SplineSet
515 523 m 0
 515 476 489 451 442 446 c 1
 472 402 488 340 488 262 c 0xf8
 488 89 406 -10 280 -10 c 0
 151 -10 73 91 73 259 c 0
 73 431 156 529 281 529 c 0
 344 529 395 506 431 461 c 1
 477 467 495 485 495 523 c 0
 495 552 489 575 481 595 c 1
 498 602 l 1
 507 583 515 557 515 523 c 0
280 11 m 0xb8
 393 11 465 99 465 262 c 0
 465 421 396 509 281 509 c 0
 169 509 96 422 96 259 c 0
 96 101 165 11 280 11 c 0xb8
EndSplineSet
EndChar
StartChar: uni01A3
Encoding: 419 419 354
Width: 740
Flags: W
HStem: -197 21G<622 622> -192 21G<600 600> -10 21<222.5 336.5 222.5 343> 509 20<225 301 218.5 338.5 481.5 532.5>
VStem: 73 23<180.5 340.5 180.5 345> 465 23<181 315 175.5 341.5> 600 22<-192 401 -197 439.5>
LayerCount: 2
Fore
SplineSet
502 529 m 0x7e
 578 529 622 486 622 401 c 2
 622 -197 l 1xbe
 600 -192 l 1
 600 401 l 2
 600 478 564 509 501 509 c 0
 462 509 433 501 404 488 c 1
 457 445 488 368 488 262 c 0
 488 89 406 -10 280 -10 c 0
 151 -10 73 91 73 259 c 0
 73 431 156 529 281 529 c 0
 321 529 356 519 386 501 c 1
 419 517 457 529 502 529 c 0x7e
465 262 m 0
 465 421 396 509 281 509 c 0
 169 509 96 422 96 259 c 0
 96 102 165 11 280 11 c 0
 393 11 465 100 465 262 c 0
EndSplineSet
EndChar
StartChar: uni01A4
Encoding: 420 420 355
Width: 601
Flags: W
HStem: 0 21G<165 188 165 165> 282 21<188 299 188 301> 660 21<188 303 188 188>
VStem: 23 22<567.5 606.5 567.5 613.5> 165 23<0 282 0 303 303 660> 520 23<415.5 547.5>
LayerCount: 2
Fore
SplineSet
303 681 m 2
 458 681 543 623 543 484 c 0
 543 337 444 282 299 282 c 2
 188 282 l 1
 188 0 l 1
 165 0 l 1
 165 661 l 1
 132 661 l 2
 71 661 45 629 45 584 c 0
 45 551 57 529 70 508 c 1
 53 498 l 1
 38 521 23 544 23 584 c 0
 23 643 61 681 135 681 c 2
 303 681 l 2
301 303 m 2
 430 303 520 348 520 483 c 0
 520 612 445 660 303 660 c 2
 188 660 l 1
 188 303 l 1
 301 303 l 2
EndSplineSet
EndChar
StartChar: uni01A5
Encoding: 421 421 356
Width: 564
Flags: W
HStem: -196 21G<118 118> -192 21G<140 140> -10 21<266 356 266 364.5> 509 20<270 360.5> 716 21<212.5 262.5>
VStem: 118 22<-192 80 106 410 436 614> 469 22<183.5 344>
LayerCount: 2
Fore
SplineSet
308 529 m 0x7e
 426 529 491 435 491 264 c 0
 491 94 426 -10 303 -10 c 0
 228 -10 174 31 140 80 c 1
 140 -192 l 1x7e
 118 -196 l 1xbe
 118 617 l 2
 118 695 168 737 242 737 c 0
 284 737 324 725 358 706 c 1
 349 689 l 1
 316 706 282 716 243 716 c 0
 182 716 140 686 140 614 c 2
 140 436 l 1
 179 490 232 529 308 529 c 0x7e
302 11 m 0
 410 11 469 103 469 264 c 0
 469 424 413 509 308 509 c 0
 231 509 184 469 140 410 c 1
 140 106 l 1
 179 50 230 11 302 11 c 0
EndSplineSet
EndChar
StartChar: uni01A6
Encoding: 422 422 357
Width: 572
Flags: W
HStem: 0 21G<123 146 123 123> 191 21<146 287 287 313 146 287> 527 22<146 269 146 272> 661 20G<123 146 146 146>
VStem: 123 23<0 191 212 527 549 681> 473 23<315.5 420.5>
LayerCount: 2
Fore
SplineSet
501 -133 m 1
 313 191 l 1
 146 191 l 1
 146 0 l 1
 123 0 l 1
 123 681 l 1
 146 681 l 1
 146 549 l 1
 272 549 l 2
 431 549 496 483 496 371 c 0
 496 260 428 211 337 194 c 1
 528 -133 l 1
 501 -133 l 1
146 212 m 1
 287 212 l 2
 398 212 473 260 473 371 c 0
 473 470 420 527 269 527 c 2
 146 527 l 1
 146 212 l 1
EndSplineSet
EndChar
StartChar: uni01A7
Encoding: 423 423 358
Width: 529
Flags: W
HStem: -10 22<218.5 314 218.5 315> 670 21<244.5 330>
VStem: 69 24<124.5 225 124.5 230> 433 23<497 578.5>
LayerCount: 2
Fore
SplineSet
282 691 m 0
 391 691 456 627 456 540 c 0
 456 447 408 405 270 359 c 0
 142 316 93 275 93 175 c 0
 93 74 167 12 270 12 c 0
 358 12 411 42 460 87 c 1
 475 72 l 1
 422 23 361 -10 269 -10 c 0
 155 -10 69 63 69 175 c 0
 69 285 129 334 262 378 c 0
 388 419 433 454 433 540 c 0
 433 617 378 670 282 670 c 0
 207 670 159 649 105 606 c 1
 91 622 l 1
 145 664 195 691 282 691 c 0
EndSplineSet
EndChar
StartChar: uni01A8
Encoding: 424 424 359
Width: 443
Flags: W
HStem: -10 21<180 255.5 180 259> 509 20<202 270>
VStem: 58 23<91 166.5 91 171> 361 23<374 437.5>
LayerCount: 2
Fore
SplineSet
232 529 m 0
 320 529 384 480 384 405 c 0
 384 335 339 300 229 268 c 0
 115 235 81 204 81 129 c 0
 81 53 141 11 219 11 c 0
 292 11 337 35 382 71 c 1
 395 56 l 1
 351 19 299 -10 219 -10 c 0
 125 -10 58 45 58 129 c 0
 58 213 102 250 219 285 c 0
 322 315 361 343 361 405 c 0
 361 470 308 509 232 509 c 0
 172 509 130 493 85 459 c 1
 71 474 l 1
 120 511 169 529 232 529 c 0
EndSplineSet
EndChar
StartChar: uni01AD
Encoding: 429 429 364
Width: 331
Flags: W
HStem: -10 21<197 245 197 246.5> 499 20<28 113 28 113 135 276> 717 20<197 245>
VStem: 113 22<117 118 118 499 519 610>
LayerCount: 2
Fore
SplineSet
227 11 m 0
 263 11 291 22 317 37 c 1
 327 20 l 1
 299 3 267 -10 226 -10 c 0
 156 -10 113 33 113 117 c 2
 113 499 l 1
 28 499 l 1
 28 519 l 1
 113 519 l 1
 113 610 l 2
 113 694 158 737 226 737 c 0
 267 737 299 724 327 707 c 1
 317 691 l 1
 291 706 263 717 227 717 c 0
 167 717 135 681 135 610 c 2
 135 519 l 1
 279 519 l 1
 276 499 l 1
 135 499 l 1
 135 118 l 2
 135 48 167 11 227 11 c 0
EndSplineSet
EndChar
StartChar: uni01AF
Encoding: 431 431 366
Width: 640
Flags: W
HStem: -10 22<254.5 387.5 254.5 394> 609 16<528 528> 609 72<528 528> 661 20G<113 136 136 136 505 528 528 528>
VStem: 113 23<207 210 210 681> 505 23<210 609 625 681> 586 20<667.5 700.5>
LayerCount: 2
Fore
SplineSet
606 686 m 0xae
 606 637 578 612 528 609 c 1xae
 528 207 l 2
 528 82 467 -10 321 -10 c 0
 173 -10 113 82 113 207 c 2
 113 681 l 1
 136 681 l 1
 136 210 l 2
 136 93 188 12 321 12 c 0
 454 12 505 95 505 210 c 2
 505 681 l 1
 528 681 l 1
 528 625 l 1
 569 631 586 649 586 686 c 0xde
 586 715 580 738 572 758 c 1
 589 765 l 1
 598 746 606 720 606 686 c 0xae
EndSplineSet
EndChar
StartChar: uni01B1
Encoding: 433 433 368
Width: 689
Flags: W
HStem: -10 21<271.5 418 271.5 425> 660 21<102 227 102 263 462 462 462 588>
VStem: 78 23<223 413.5 223 414.5> 102 161<661 681 661 681 661 681> 427 161<661 681> 588 23<223.5 414>
LayerCount: 2
Fore
SplineSet
345 -10 m 0xe4
 184 -10 78 117 78 320 c 0xe4
 78 509 154 606 227 660 c 1
 102 660 l 1
 102 681 l 1
 263 681 l 1xd4
 263 661 l 1
 178 608 101 507 101 320 c 0
 101 126 198 11 345 11 c 0
 491 11 588 126 588 321 c 0xe4
 588 507 512 608 427 661 c 1
 427 681 l 1
 588 681 l 1
 588 660 l 1xe8
 462 660 l 1
 540 605 611 510 611 321 c 0
 611 117 505 -10 345 -10 c 0xe4
EndSplineSet
EndChar
StartChar: uni01B2
Encoding: 434 434 369
Width: 640
Flags: W
HStem: -10 22<246 356 246 362> 661 20 672 19<442 470>
VStem: 113 23<179 181 181 681> 505 23<290 601>
LayerCount: 2
Fore
SplineSet
451 691 m 0xb8
 499 691 528 663 528 601 c 2xb8
 528 287 l 2
 528 87 429 -10 295 -10 c 0
 182 -10 113 62 113 179 c 2
 113 681 l 1
 136 681 l 1xd8
 136 181 l 2
 136 73 197 12 295 12 c 0
 417 12 505 100 505 290 c 2
 505 601 l 2
 505 646 489 672 451 672 c 0xb8
 433 672 418 667 406 661 c 1xd8
 397 677 l 1
 411 685 429 691 451 691 c 0xb8
EndSplineSet
EndChar
StartChar: uni01B4
Encoding: 436 436 371
Width: 454
Flags: W
HStem: -195 21G<59 59> 0 16<210 225 210 225> 0 21G<210 219 210 210> 499 20G<23 47 47 47> 547 20<440.5 464>
VStem: 23 479<519 557>
LayerCount: 2
Fore
SplineSet
59 -195 m 1xac
 56 -177 l 1
 159 -146 185 -101 219 0 c 1
 210 0 l 1
 23 519 l 1
 47 519 l 1
 225 16 l 1xdc
 374 486 l 2
 393 545 414 567 456 567 c 0
 475 567 490 563 502 557 c 1
 496 539 l 1
 484 544 471 547 457 547 c 0
 424 547 409 530 395 484 c 2
 240 -1 l 2
 203 -115 169 -163 59 -195 c 1xac
EndSplineSet
EndChar
StartChar: uni01B6
Encoding: 438 438 373
Width: 405
Flags: W
HStem: 0 21<59 364> 259 20<87 189 87 202 228 331 87 215> 499 20<58 346 58 374>
VStem: 31 343
LayerCount: 2
Fore
SplineSet
374 519 m 1
 374 501 l 1
 228 279 l 1
 331 279 l 1
 331 259 l 1
 215 259 l 1
 59 21 l 1
 366 21 l 1
 364 0 l 1
 31 0 l 1
 31 18 l 1
 189 259 l 1
 87 259 l 1
 87 279 l 1
 202 279 l 1
 346 499 l 1
 58 499 l 1
 58 519 l 1
 374 519 l 1
EndSplineSet
EndChar
StartChar: uni01B7
Encoding: 439 439 374
Width: 472
Flags: W
HStem: -10 22<177 276.5 177 282> 352 21<155 207 129 129> 661 20<37 367 37 396>
VStem: 129 26<352 373 373 373> 398 24<132.5 240.5>
LayerCount: 2
Fore
SplineSet
207 373 m 2
 348 373 422 306 422 182 c 0
 422 71 348 -10 216 -10 c 0
 128 -10 71 20 23 72 c 1
 38 85 l 1
 86 34 138 12 216 12 c 0
 337 12 398 84 398 181 c 0
 398 300 326 352 207 352 c 2
 129 352 l 1
 129 373 l 1
 367 661 l 1
 37 661 l 1
 37 681 l 1
 396 681 l 1
 396 662 l 1
 155 373 l 1
 207 373 l 2
EndSplineSet
EndChar
StartChar: uni01B9
Encoding: 441 441 376
Width: 438
Flags: W
HStem: -197 21<170.5 262.5 170.5 268.5> 173 21<188.5 283 259 283 259 308> 499 20<86 398 86 86>
VStem: 31 23<-54.5 51.5 -54.5 54> 283 25<173 194>
LayerCount: 2
Fore
SplineSet
400 -103 m 1
 415 -115 l 1
 368 -167 311 -197 226 -197 c 0
 106 -197 31 -116 31 -5 c 0
 31 113 102 194 259 194 c 2
 283 194 l 1
 58 501 l 1
 58 519 l 1
 398 519 l 1
 398 499 l 1
 86 499 l 1
 308 194 l 1
 308 173 l 1
 257 173 l 2
 120 173 54 108 54 -5 c 0
 54 -104 116 -176 225 -176 c 0
 300 -176 353 -154 400 -103 c 1
EndSplineSet
EndChar
StartChar: uni01BA
Encoding: 442 442 377
Width: 443
Flags: W
HStem: -196 21G<142 142> 247 20<143 254 117 117> 499 20<39 342 39 374>
VStem: 40 23<-110.5 -64 -110.5 -60> 117 26<247 267 267 267> 381 22<101.5 180.5>
LayerCount: 2
Fore
SplineSet
142 -196 m 1
 78 -172 40 -141 40 -89 c 0
 40 -31 92 1 212 15 c 0
 333 28 381 59 381 144 c 0
 381 217 334 247 254 247 c 2
 117 247 l 1
 117 267 l 1
 342 499 l 1
 39 499 l 1
 39 519 l 1
 374 519 l 1
 374 501 l 1
 143 267 l 1
 255 267 l 2
 350 267 403 224 403 144 c 0
 403 47 343 10 216 -5 c 0
 111 -17 63 -39 63 -89 c 0
 63 -132 90 -155 149 -179 c 1
 142 -196 l 1
EndSplineSet
EndChar
StartChar: uni01BC
Encoding: 444 444 379
Width: 482
Flags: W
HStem: -10 21<186.5 278.5 186.5 286> 364 22<86 108> 404 21<207 285.5> 661 20<108 397 108 108>
VStem: 86 22<386 661 386 681 386 681> 399 24<156 280.5>
LayerCount: 2
Fore
SplineSet
401 681 m 1
 397 661 l 1
 108 661 l 1
 108 386 l 1
 139 407 178 425 236 425 c 0
 354 425 423 349 423 219 c 0
 423 84 350 -10 222 -10 c 0
 144 -10 87 18 43 69 c 1
 59 83 l 1
 100 35 150 11 223 11 c 0
 334 11 399 93 399 219 c 0
 399 342 336 404 235 404 c 0xbc
 178 404 143 389 104 364 c 1
 86 364 l 1xfc
 86 681 l 1
 401 681 l 1
EndSplineSet
EndChar
StartChar: uni01BD
Encoding: 445 445 380
Width: 420
Flags: W
HStem: -10 21<168 241.5 168 248> 275 21<88 110> 305 21<190.5 251.5> 499 20<110 341 110 110>
VStem: 88 22<296 499 296 519 296 519> 338 23<120 212.5>
LayerCount: 2
Fore
SplineSet
345 519 m 1
 341 499 l 1
 110 499 l 1
 110 296 l 1
 135 312 167 326 214 326 c 0
 307 326 361 265 361 167 c 0
 361 64 300 -10 196 -10 c 0
 133 -10 87 14 49 50 c 1
 63 64 l 1
 100 30 139 11 197 11 c 0
 286 11 338 73 338 167 c 0
 338 258 289 305 214 305 c 0xbc
 166 305 139 295 105 275 c 1
 88 275 l 1xfc
 88 519 l 1
 345 519 l 1
EndSplineSet
EndChar
StartChar: uni01BE
Encoding: 446 446 381
Width: 491
Flags: W
HStem: -5 22<184.5 276.5 184.5 283.5> 572 20<102 171 102 171 193 314> 713 20G<171 171> 716 20G<193 193>
VStem: 171 22<418 572 418 572 418 572 592 733 733 733> 395 23<147 265>
LayerCount: 2
Fore
SplineSet
237 409 m 2xdc
 325 390 418 343 418 202 c 0
 418 82 345 -5 222 -5 c 0
 143 -5 90 26 41 74 c 1
 56 88 l 1
 99 47 148 17 221 17 c 0
 332 17 395 92 395 202 c 0
 395 328 312 369 236 387 c 2
 171 402 l 1
 171 572 l 1
 102 572 l 1
 102 592 l 1
 171 592 l 1
 171 733 l 1xec
 193 736 l 1
 193 592 l 1
 314 592 l 1
 314 572 l 1
 193 572 l 1
 193 418 l 1
 237 409 l 2xdc
EndSplineSet
EndChar
StartChar: uni01BF
Encoding: 447 447 382
Width: 564
Flags: W
HStem: -196 21G<118 118> -192 21G<140 140> -12 21G<140 140> 499 20G<118 137 137 137> 509 20<283.5 367>
VStem: 118 20 469 22<290 406>
LayerCount: 2
Fore
SplineSet
324 529 m 0x6e
 425 529 491 465 491 359 c 0
 491 211 394 119 205 21 c 2
 140 -12 l 1
 140 -192 l 1x6e
 118 -196 l 1
 118 519 l 1
 137 519 l 1xb6
 139 433 l 1
 187 490 242 529 324 529 c 0x6e
197 40 m 2
 381 137 469 222 469 358 c 0
 469 454 411 509 323 509 c 0
 244 509 189 468 140 411 c 1
 140 10 l 1
 197 40 l 2
EndSplineSet
EndChar
StartChar: uni01C1
Encoding: 449 449 384
Width: 406
Flags: W
HStem: 0 21G<123 144 123 123 261 261 261 283> 713 20G<123 123 261 261> 716 20G<144 144 283 283>
VStem: 123 21<0 733 733 733> 261 22<0 733 733 733>
LayerCount: 2
Fore
SplineSet
144 736 m 1xb8
 144 0 l 1
 123 0 l 1
 123 733 l 1xd8
 144 736 l 1xb8
283 736 m 1xb8
 283 0 l 1
 261 0 l 1
 261 733 l 1xd8
 283 736 l 1xb8
EndSplineSet
EndChar
StartChar: uni01C2
Encoding: 450 450 385
Width: 314
Flags: W
HStem: 0 21G<146 167 146 146> 281 19<35 146 35 146 167 279> 430 19<35 146 35 146 167 279> 713 20G<146 146> 716 20G<167 167>
VStem: 146 21<0 281 0 281 300 430 449 733 733 733>
LayerCount: 2
Fore
SplineSet
279 430 m 1xec
 167 430 l 1
 167 300 l 1
 279 300 l 1
 279 281 l 1
 167 281 l 1
 167 0 l 1
 146 0 l 1
 146 281 l 1
 35 281 l 1
 35 300 l 1
 146 300 l 1
 146 430 l 1
 35 430 l 1
 35 449 l 1
 146 449 l 1
 146 733 l 1xf4
 167 736 l 1
 167 449 l 1
 279 449 l 1
 279 430 l 1xec
EndSplineSet
EndChar
StartChar: uni01C3
Encoding: 451 451 386
Width: 293
Flags: W
HStem: -8 46<139 153.5> 713 20G<136 136> 716 20G<157 157>
VStem: 123 47<8.5 21.5> 136 21<192 733 733 733>
LayerCount: 2
Fore
SplineSet
157 736 m 1xa8
 157 192 l 1
 136 192 l 1
 136 733 l 1xc8
 157 736 l 1xa8
146 38 m 0xb0
 161 38 170 28 170 15 c 0
 170 2 161 -8 146 -8 c 0
 132 -8 123 2 123 15 c 0
 123 28 132 38 146 38 c 0xb0
EndSplineSet
EndChar
StartChar: uni01C5
Encoding: 453 453 388
Width: 1024
Flags: W
HStem: 0 21<146 249 678 983> 499 20<677 965 677 993> 641 24<833 833 833 839 827 833> 660 21<146 243 146 146> 716 20G<707 707 959 959>
VStem: 123 23<21 660 21 681 21 681> 518 24<215 482.5>
LayerCount: 2
Fore
SplineSet
948 749 m 1xee
 959 736 l 1
 839 641 l 1
 827 641 l 1
 707 736 l 1
 719 749 l 1
 833 665 l 1
 948 749 l 1xee
245 681 m 2xde
 390 681 542 627 542 348 c 0
 542 63 384 0 249 0 c 2
 123 0 l 1
 123 681 l 1
 245 681 l 2xde
243 660 m 2
 146 660 l 1
 146 21 l 1
 250 21 l 2
 380 21 518 82 518 348 c 0
 518 617 376 660 243 660 c 2
993 519 m 1
 993 501 l 1
 678 21 l 1
 985 21 l 1
 983 0 l 1
 650 0 l 1
 650 18 l 1
 965 499 l 1
 677 499 l 1
 677 519 l 1
 993 519 l 1
EndSplineSet
EndChar
StartChar: uni01C6
Encoding: 454 454 389
Width: 974
Flags: W
HStem: -10 21<214 306.5 214 308> 0 21<628 933> 499 20<627 915 627 943> 509 20<222 314> 641 24<783 783 783 789 777 783> 713 20G<451 451> 716 20G<429 429 657 657 909 909>
VStem: 73 23<179.5 258 179.5 338> 429 22<89 89 123 418 418 418 446 733 0 736 0 736>
LayerCount: 2
Fore
SplineSet
789 641 m 1x6b80
 777 641 l 1
 657 736 l 1
 669 749 l 1
 783 665 l 1
 898 749 l 1
 909 736 l 1
 789 641 l 1x6b80
429 446 m 1x9b80
 429 736 l 1x6b80
 451 733 l 1
 451 0 l 1
 432 0 l 1x6d80
 429 89 l 1
 400 36 351 -10 265 -10 c 0
 149 -10 73 89 73 258 c 0
 73 418 148 529 275 529 c 0
 356 529 402 487 429 446 c 1x9b80
943 519 m 1
 943 501 l 1
 628 21 l 1
 935 21 l 1
 933 0 l 1
 600 0 l 1
 600 18 l 1
 915 499 l 1
 627 499 l 1
 627 519 l 1
 943 519 l 1
266 11 m 0x9b80
 347 11 394 54 429 123 c 1
 429 418 l 1
 399 465 352 509 276 509 c 0
 168 509 95 413 96 258 c 0
 96 101 162 11 266 11 c 0x9b80
EndSplineSet
EndChar
StartChar: uni01C7
Encoding: 455 455 390
Width: 718
Flags: W
HStem: 0 22<146 430> 661 20G<123 146 146 146 579 602 602 602>
VStem: 123 23<22 681 22 681 22 681> 579 23<89 681>
LayerCount: 2
Fore
SplineSet
146 681 m 1
 146 22 l 1
 434 22 l 1
 430 0 l 1
 123 0 l 1
 123 681 l 1
 146 681 l 1
602 681 m 1
 602 87 l 2
 602 -13 579 -53 471 -100 c 1
 464 -83 l 1
 557 -40 579 -4 579 89 c 2
 579 681 l 1
 602 681 l 1
EndSplineSet
EndChar
StartChar: uni01C8
Encoding: 456 456 391
Width: 704
Flags: W
HStem: -195 21G<474 474> 0 22<146 430> 499 20G<565 587 587 587> 661 20G<123 146 146 146> 685 39<568.5 581.5>
VStem: 123 23<22 681 22 681 22 681> 565 22<7 519>
LayerCount: 2
Fore
SplineSet
575 724 m 0
 588 724 595 714 595 704 c 0
 595 694 588 685 575 685 c 0
 562 685 555 694 555 704 c 0
 555 714 562 724 575 724 c 0
146 681 m 1xf6
 146 22 l 1
 434 22 l 1
 430 0 l 1
 123 0 l 1
 123 681 l 1
 146 681 l 1xf6
587 519 m 1
 587 6 l 2
 587 -122 551 -155 474 -195 c 1
 468 -178 l 1
 536 -142 565 -111 565 7 c 2
 565 519 l 1
 587 519 l 1
EndSplineSet
EndChar
StartChar: uni01C9
Encoding: 457 457 392
Width: 543
Flags: W
HStem: -195 21G<313 313> -10 21<169 193 169 194> 0 21G<232 232> 499 20G<404 426 426 426> 685 39<408 421> 713 20G<113 113> 716 20G<135 135>
VStem: 113 22<72 73 73 733 733 733> 404 22<7 519> 414 21
LayerCount: 2
Fore
SplineSet
185 -10 m 0xd380
 142 -10 113 16 113 72 c 2
 113 733 l 1xd580
 135 736 l 1
 135 73 l 2
 135 32 152 11 186 11 c 0xd380
 200 11 214 14 226 19 c 1xb380
 232 0 l 1
 219 -5 203 -10 185 -10 c 0xd380
414 724 m 0xd940
 428 724 435 714 435 704 c 0
 435 694 428 685 414 685 c 0
 402 685 394 694 394 704 c 0
 394 714 402 724 414 724 c 0xd940
426 519 m 1xd380
 426 6 l 2
 426 -122 390 -155 313 -195 c 1
 307 -178 l 1
 375 -142 404 -111 404 7 c 2
 404 519 l 1
 426 519 l 1xd380
EndSplineSet
EndChar
StartChar: uni01CC
Encoding: 460 460 395
Width: 839
Flags: W
HStem: -195 21G<609 609> 0 21G<118 140 118 118 447 469 447 447> 499 20G<118 137 137 137 700 722 722 722> 509 20<289 369.5> 685 39<704 717>
VStem: 118 20 447 22<0 367 367 369 0 414> 700 22<7 519> 710 21
LayerCount: 2
Fore
SplineSet
710 724 m 0xde80
 724 724 731 714 731 704 c 0
 731 694 724 685 710 685 c 0
 698 685 690 694 690 704 c 0
 690 714 698 724 710 724 c 0xde80
330 529 m 0
 425 529 469 471 469 369 c 2
 469 0 l 1
 447 0 l 1
 447 367 l 2
 447 461 409 509 330 509 c 0xdf
 246 509 189 459 140 384 c 1
 140 0 l 1
 118 0 l 1
 118 519 l 1
 137 519 l 1xef
 139 413 l 1
 186 483 248 529 330 529 c 0
700 7 m 2xef
 700 519 l 1
 722 519 l 1
 722 6 l 2
 722 -122 686 -155 609 -195 c 1
 603 -178 l 1
 671 -142 700 -111 700 7 c 2xef
EndSplineSet
EndChar
StartChar: uni01D0
Encoding: 464 464 399
Width: 258
Flags: W
HStem: 0 21G<118 140 118 118> 499 20G<118 140 140 140> 641 24<129 129 129 135 123 129> 716 20G<3 3 255 255>
VStem: 118 22<0 519 0 519>
LayerCount: 2
Fore
SplineSet
243 749 m 1
 255 736 l 1
 135 641 l 1
 123 641 l 1
 3 736 l 1
 14 749 l 1
 129 665 l 1
 243 749 l 1
140 519 m 1
 140 0 l 1
 118 0 l 1
 118 519 l 1
 140 519 l 1
EndSplineSet
EndChar
StartChar: uni01D5
Encoding: 469 469 404
Width: 640
Flags: W
HStem: -10 22<254.5 387.5 254.5 394> 661 20G<113 136 136 136 505 528 528 528> 742 39<231 243 396.5 409> 762 19 850 21<219 426 219 426>
VStem: 113 23<207 210 210 681> 382 40<756.5 767> 505 23<210 681>
LayerCount: 2
Fore
SplineSet
426 850 m 1xdd
 219 850 l 1
 219 871 l 1
 426 871 l 1
 426 850 l 1xdd
237 781 m 0xed
 249 781 257 772 257 762 c 0
 257 751 249 742 237 742 c 0
 225 742 217 751 217 762 c 0
 217 772 225 781 237 781 c 0xed
403 781 m 0xdf
 415 781 422 772 422 762 c 0
 422 751 415 742 403 742 c 0
 390 742 382 751 382 762 c 0
 382 772 390 781 403 781 c 0xdf
528 681 m 1
 528 207 l 2
 528 82 467 -10 321 -10 c 0
 173 -10 113 82 113 207 c 2
 113 681 l 1
 136 681 l 1
 136 210 l 2
 136 93 188 12 321 12 c 0
 454 12 505 95 505 210 c 2
 505 681 l 1
 528 681 l 1
EndSplineSet
EndChar
StartChar: uni01D6
Encoding: 470 470 405
Width: 576
Flags: W
HStem: -10 21<221.5 302 221.5 302> 0 21G<439 459 439 439> 499 20G<113 135 135 135 437 459 459 459> 643 39<199 211 364.5 377> 753 21<185 392 185 392>
VStem: 113 22<149 151 151 519> 205 166<643 643 682 682> 437 22<133 519 0 519>
LayerCount: 2
Fore
SplineSet
392 753 m 1xbf
 185 753 l 1
 185 774 l 1
 392 774 l 1
 392 753 l 1xbf
205 682 m 0
 217 682 225 673 225 662 c 0
 225 651 217 643 205 643 c 0
 193 643 185 651 185 662 c 0
 185 673 193 682 205 682 c 0
371 682 m 0
 383 682 391 673 391 662 c 0
 391 651 383 643 371 643 c 0
 358 643 351 651 351 662 c 0
 351 673 358 682 371 682 c 0
459 519 m 1
 459 0 l 1
 439 0 l 1x7f
 439 106 l 1
 403 41 345 -10 259 -10 c 0
 167 -10 113 46 113 149 c 2
 113 519 l 1
 135 519 l 1
 135 151 l 2
 135 56 181 11 262 11 c 0
 342 11 396 61 437 133 c 1
 437 519 l 1
 459 519 l 1
EndSplineSet
EndChar
StartChar: uni01DA
Encoding: 474 474 409
Width: 576
Flags: W
HStem: -10 21<221.5 302 221.5 302> 0 21G<439 459 439 439> 499 20G<113 135 135 135 437 459 459 459> 643 39<198 210 363.5 376> 691 25<285 285 285 291 279 285>
VStem: 113 22<149 151 151 519> 204 166<643 643 682 682> 437 22<133 519 0 519>
LayerCount: 2
Fore
SplineSet
399 794 m 1xbd
 411 781 l 1
 291 691 l 1
 279 691 l 1
 159 781 l 1
 170 794 l 1
 285 716 l 1
 399 794 l 1xbd
204 682 m 0xb7
 216 682 224 673 224 662 c 0
 224 651 216 643 204 643 c 0
 192 643 184 651 184 662 c 0
 184 673 192 682 204 682 c 0xb7
370 682 m 0
 382 682 389 673 389 662 c 0
 389 651 382 643 370 643 c 0
 357 643 350 651 350 662 c 0
 350 673 357 682 370 682 c 0
459 519 m 1
 459 0 l 1
 439 0 l 1x75
 439 106 l 1
 403 41 345 -10 259 -10 c 0
 167 -10 113 46 113 149 c 2
 113 519 l 1
 135 519 l 1
 135 151 l 2
 135 56 181 11 262 11 c 0
 342 11 396 61 437 133 c 1
 437 519 l 1
 459 519 l 1
EndSplineSet
EndChar
StartChar: uni01DE
Encoding: 478 478 413
Width: 557
Flags: W
HStem: 0 21G<28 51 28 28 505 530 505 505> 203 21<128 428 128 435 121 428> 663 18<278 278> 742 39<190 202 355.5 368> 850 21<178 385 178 385>
VStem: 341 40<756.5 767>
LayerCount: 2
Fore
SplineSet
385 871 m 1
 385 850 l 1
 178 850 l 1
 178 871 l 1
 385 871 l 1
196 742 m 0
 184 742 176 751 176 762 c 0
 176 772 184 781 196 781 c 0
 208 781 216 772 216 762 c 0
 216 751 208 742 196 742 c 0
341 762 m 0
 341 772 349 781 362 781 c 0
 374 781 381 772 381 762 c 0
 381 751 374 742 362 742 c 0
 349 742 341 751 341 762 c 0
505 0 m 1
 435 203 l 1
 121 203 l 1
 51 0 l 1
 28 0 l 1
 265 681 l 1
 292 681 l 1
 530 0 l 1
 505 0 l 1
128 224 m 1
 428 224 l 1
 278 663 l 1
 128 224 l 1
EndSplineSet
EndChar
StartChar: uni01E0
Encoding: 480 480 415
Width: 557
Flags: W
HStem: 0 21G<28 51 28 28 505 530 505 505> 203 21<128 428 128 435 121 428> 663 18<278 278> 849 21<175 382 175 382>
VStem: 258 40<761 771>
LayerCount: 2
Fore
SplineSet
382 870 m 1
 382 849 l 1
 175 849 l 1
 175 870 l 1
 382 870 l 1
258 766 m 0
 258 776 265 785 278 785 c 0
 291 785 298 776 298 766 c 0
 298 756 291 746 278 746 c 0
 265 746 258 756 258 766 c 0
505 0 m 1
 435 203 l 1
 121 203 l 1
 51 0 l 1
 28 0 l 1
 265 681 l 1
 292 681 l 1
 530 0 l 1
 505 0 l 1
128 224 m 1
 428 224 l 1
 278 663 l 1
 128 224 l 1
EndSplineSet
EndChar
StartChar: uni01E1
Encoding: 481 481 416
Width: 528
Flags: W
HStem: -10 21<181 260.5> 288 20<270 274 274 388> 509 20<232 305> 744 22<151 358 151 358>
VStem: 66 24<103 191.5 103 197> 234 41<646 656.5> 388 22<119 288 288 288 308 370 370 372>
LayerCount: 2
Fore
SplineSet
358 766 m 1
 358 744 l 1
 151 744 l 1
 151 766 l 1
 358 766 l 1
234 651 m 0
 234 662 242 671 255 671 c 0
 268 671 275 662 275 651 c 0
 275 641 268 632 255 632 c 0
 242 632 234 641 234 651 c 0
410 110 m 2
 410 41 423 18 457 6 c 1
 451 -10 l 1
 410 3 392 29 391 91 c 1
 354 25 299 -10 222 -10 c 0
 124 -10 66 52 66 144 c 0
 66 250 147 308 270 308 c 2
 388 308 l 1
 388 370 l 2
 388 460 355 509 255 509 c 0
 209 509 163 497 112 476 c 1
 105 495 l 1
 158 517 205 529 255 529 c 0
 365 529 410 474 410 372 c 2
 410 110 l 2
222 11 m 0
 303 11 354 52 388 119 c 1
 388 288 l 1
 274 288 l 2
 160 288 90 239 90 144 c 0
 90 62 140 11 222 11 c 0
EndSplineSet
EndChar
StartChar: uni01E4
Encoding: 484 484 419
Width: 620
Flags: W
HStem: -10 22<277.5 385.5> 212 21<365 510 365 510 533 608> 333 21<365 510 365 365> 670 21<288 378>
VStem: 78 23<233.5 460.5 233.5 464> 510 23<53 212 41 212 233 333 333 333>
LayerCount: 2
Fore
SplineSet
608 233 m 1
 608 212 l 1
 533 212 l 1
 533 41 l 1
 480 10 418 -10 353 -10 c 0
 189 -10 78 110 78 345 c 0
 78 583 216 691 347 691 c 0
 417 691 465 672 516 632 c 1
 503 617 l 1
 455 653 409 670 347 670 c 0
 229 670 101 576 101 345 c 0
 101 122 202 12 353 12 c 0
 419 12 467 28 510 53 c 1
 510 212 l 1
 365 212 l 1
 365 233 l 1
 510 233 l 1
 510 333 l 1
 365 333 l 1
 362 354 l 1
 533 354 l 1
 533 233 l 1
 608 233 l 1
EndSplineSet
EndChar
StartChar: uni01E9
Encoding: 489 489 424
Width: 463
Flags: W
HStem: 0 21G<118 140 118 118 418 418 418 445> 499 20G<392 420 420 420> 713 20G<118 118> 716 20G<140 140> 811 24<260 260 260 266 254 260>
VStem: 118 22<0 733 733 733>
LayerCount: 2
Fore
SplineSet
374 914 m 1xdc
 386 901 l 1
 266 811 l 1
 254 811 l 1
 134 901 l 1
 145 914 l 1
 260 835 l 1
 374 914 l 1xdc
140 736 m 1
 140 0 l 1
 118 0 l 1
 118 733 l 1xec
 140 736 l 1
420 519 m 1
 174 284 l 1
 445 0 l 1
 418 0 l 1
 146 284 l 1
 392 519 l 1
 420 519 l 1
EndSplineSet
EndChar
StartChar: uni01EA
Encoding: 490 490 425
Width: 689
Flags: W
HStem: -203 22<339.5 371.5> -196 21G<416 416> -10 22<271.5 344 344 360> 670 21<272 418>
VStem: 78 23<233 446.5 233 451> 269 24<-140 -98> 588 23<246 448.5>
LayerCount: 2
Fore
SplineSet
415 -1 m 1xbe
 346 -32 293 -64 293 -122 c 0
 293 -158 316 -181 363 -181 c 0xbe
 381 -181 397 -179 418 -174 c 1x7e
 416 -196 l 1
 396 -201 381 -203 362 -203 c 0
 299 -203 269 -169 269 -123 c 0
 269 -73 304 -39 360 -10 c 1
 344 -10 l 2
 185 -10 78 115 78 339 c 0
 78 563 187 691 344 691 c 0
 505 691 611 569 611 340 c 0
 611 152 539 31 415 -1 c 1xbe
101 339 m 0
 101 127 199 12 344 12 c 0
 498 12 588 127 588 340 c 0
 588 557 492 670 344 670 c 0
 200 670 101 554 101 339 c 0
EndSplineSet
EndChar
StartChar: uni01ED
Encoding: 493 493 428
Width: 560
Flags: W
HStem: -203 22<264.5 296.5> -196 21G<341 341> -10 21<222.5 280 280 285> 509 20<225 338.5> 685 21<177 384 177 384>
VStem: 73 23<180 340.5 180 345> 194 24<-140 -98.5> 465 23<189.5 341.5>
LayerCount: 2
Fore
SplineSet
384 706 m 1xbf
 384 685 l 1
 177 685 l 1
 177 706 l 1
 384 706 l 1xbf
338 -2 m 1
 269 -33 218 -64 218 -122 c 0
 218 -158 241 -181 288 -181 c 0xbf
 306 -181 322 -179 343 -174 c 1x7f
 341 -196 l 1
 321 -201 306 -203 287 -203 c 0
 224 -203 194 -169 194 -123 c 0
 194 -74 229 -39 285 -10 c 1
 280 -10 l 2
 151 -10 73 91 73 259 c 0
 73 431 156 529 281 529 c 0
 408 529 488 434 488 262 c 0
 488 117 431 24 338 -2 c 1
96 259 m 0
 96 101 165 11 280 11 c 0
 393 11 465 99 465 262 c 0
 465 421 396 509 281 509 c 0
 169 509 96 422 96 259 c 0
EndSplineSet
EndChar
StartChar: uni01EE
Encoding: 494 494 429
Width: 472
Flags: W
HStem: -10 22<177 276.5 177 282> 352 21<155 207 129 129> 661 20<37 367 37 396> 760 24<217 217 217 223 211 217>
VStem: 129 26<352 373 373 373> 398 24<132.5 240.5>
LayerCount: 2
Fore
SplineSet
223 760 m 1
 211 760 l 1
 91 850 l 1
 102 863 l 1
 217 784 l 1
 331 863 l 1
 343 850 l 1
 223 760 l 1
207 373 m 2
 348 373 422 306 422 182 c 0
 422 71 348 -10 216 -10 c 0
 128 -10 71 20 23 72 c 1
 38 85 l 1
 86 34 138 12 216 12 c 0
 337 12 398 84 398 181 c 0
 398 300 326 352 207 352 c 2
 129 352 l 1
 129 373 l 1
 367 661 l 1
 37 661 l 1
 37 681 l 1
 396 681 l 1
 396 662 l 1
 155 373 l 1
 207 373 l 2
EndSplineSet
EndChar
StartChar: uni01F0
Encoding: 496 496 431
Width: 258
Flags: W
HStem: -195 21G<28 28> 499 20G<119 141 141 141> 641 24<129 129 129 135 123 129> 716 20G<3 3 255 255>
VStem: 119 22<7 519>
LayerCount: 2
Fore
SplineSet
243 749 m 1
 255 736 l 1
 135 641 l 1
 123 641 l 1
 3 736 l 1
 14 749 l 1
 129 665 l 1
 243 749 l 1
141 519 m 1
 141 6 l 2
 141 -122 105 -155 28 -195 c 1
 22 -178 l 1
 90 -142 119 -111 119 7 c 2
 119 519 l 1
 141 519 l 1
EndSplineSet
EndChar
StartChar: uni01F2
Encoding: 498 498 433
Width: 1024
Flags: W
HStem: 0 21<146 249 678 983> 499 20<677 965 677 993> 660 21<146 243 146 146>
VStem: 123 23<21 660 21 681 21 681> 518 24<215 482.5>
LayerCount: 2
Fore
SplineSet
245 681 m 2
 390 681 542 627 542 348 c 0
 542 63 384 0 249 0 c 2
 123 0 l 1
 123 681 l 1
 245 681 l 2
243 660 m 2
 146 660 l 1
 146 21 l 1
 250 21 l 2
 380 21 518 82 518 348 c 0
 518 617 376 660 243 660 c 2
993 519 m 1
 993 501 l 1
 678 21 l 1
 985 21 l 1
 983 0 l 1
 650 0 l 1
 650 18 l 1
 965 499 l 1
 677 499 l 1
 677 519 l 1
 993 519 l 1
EndSplineSet
EndChar
StartChar: uni01F3
Encoding: 499 499 434
Width: 974
Flags: W
HStem: -10 21<214 306.5 214 308> 0 21<628 933> 499 20<627 915 627 943> 509 20<222 314> 713 20G<451 451> 716 20G<429 429>
VStem: 73 23<179.5 258 179.5 338> 429 22<89 89 123 418 418 418 446 733 0 736 0 736>
LayerCount: 2
Fore
SplineSet
429 446 m 1x97
 429 736 l 1x67
 451 733 l 1
 451 0 l 1
 432 0 l 1x6b
 429 89 l 1
 400 36 351 -10 265 -10 c 0
 149 -10 73 89 73 258 c 0
 73 418 148 529 275 529 c 0
 356 529 402 487 429 446 c 1x97
943 519 m 1
 943 501 l 1
 628 21 l 1
 935 21 l 1
 933 0 l 1
 600 0 l 1
 600 18 l 1
 915 499 l 1
 627 499 l 1
 627 519 l 1
 943 519 l 1
266 11 m 0x97
 347 11 394 54 429 123 c 1
 429 418 l 1
 399 465 352 509 276 509 c 0
 168 509 95 413 96 258 c 0
 96 101 162 11 266 11 c 0x97
EndSplineSet
EndChar
StartChar: uni01F7
Encoding: 503 503 438
Width: 558
Flags: W
HStem: 0 21G<123 146 123 123> 661 20G<123 146 146 146> 670 21<284 371>
VStem: 123 23<0 224 0 245 245 596 618 681> 477 24<449 565.5>
LayerCount: 2
Fore
SplineSet
326 691 m 0xb8
 430 691 501 625 501 516 c 0
 501 371 394 309 256 262 c 2
 146 224 l 1
 146 0 l 1
 123 0 l 1
 123 681 l 1
 146 681 l 1xd8
 146 618 l 1
 187 656 242 691 326 691 c 0xb8
258 284 m 2
 381 326 477 382 477 516 c 0
 477 615 416 670 326 670 c 0
 242 670 188 634 146 596 c 1
 146 245 l 1
 258 284 l 2
EndSplineSet
EndChar
StartChar: uni01F9
Encoding: 505 505 440
Width: 581
Flags: W
HStem: 0 21G<118 140 118 118 447 469 447 447> 499 20G<118 137 137 137> 509 20<289 369.5> 718 20G<205 205>
VStem: 118 20 447 22<0 367 367 369 0 414>
LayerCount: 2
Fore
SplineSet
391 670 m 1xbc
 383 654 l 1
 205 738 l 1
 215 761 l 1
 391 670 l 1xbc
330 529 m 0
 425 529 469 471 469 369 c 2
 469 0 l 1
 447 0 l 1
 447 367 l 2
 447 461 409 509 330 509 c 0xbc
 246 509 189 459 140 384 c 1
 140 0 l 1
 118 0 l 1
 118 519 l 1
 137 519 l 1xdc
 139 413 l 1
 186 483 248 529 330 529 c 0
EndSplineSet
EndChar
StartChar: uni0203
Encoding: 515 515 450
Width: 528
Flags: W
HStem: -10 21<181 260.5> 288 20<270 274 274 388> 509 20<232 305> 704 21<230.5 277.5>
VStem: 66 24<103 191.5 103 197> 388 22<119 288 288 288 308 370 370 372>
LayerCount: 2
Fore
SplineSet
254 704 m 0
 207 704 175 679 162 635 c 1
 146 639 l 1
 156 689 196 725 254 725 c 0
 313 725 353 689 362 639 c 1
 346 635 l 1
 334 679 301 704 254 704 c 0
410 110 m 2
 410 41 423 18 457 6 c 1
 451 -10 l 1
 410 3 392 29 391 91 c 1
 354 25 299 -10 222 -10 c 0
 124 -10 66 52 66 144 c 0
 66 250 147 308 270 308 c 2
 388 308 l 1
 388 370 l 2
 388 460 355 509 255 509 c 0
 209 509 163 497 112 476 c 1
 105 495 l 1
 158 517 205 529 255 529 c 0
 365 529 410 474 410 372 c 2
 410 110 l 2
222 11 m 0
 303 11 354 52 388 119 c 1
 388 288 l 1
 274 288 l 2
 160 288 90 239 90 144 c 0
 90 62 140 11 222 11 c 0
EndSplineSet
EndChar
StartChar: uni0205
Encoding: 517 517 452
Width: 526
Flags: W
HStem: -10 21<227.5 311 227.5 313.5> 246 19<96 439 96 459 96 439> 509 20<224.5 331>
VStem: 73 23<246 246 246 265 246 340.5> 439 22<277 292 292 355>
LayerCount: 2
Fore
SplineSet
240 661 m 1
 223 652 l 1
 146 780 l 1
 169 791 l 1
 240 661 l 1
343 664 m 1
 327 656 l 1
 256 778 l 1
 278 790 l 1
 343 664 l 1
461 284 m 0
 461 270 460 257 459 246 c 1
 96 246 l 1
 101 87 175 11 280 11 c 0
 342 11 382 31 427 68 c 1
 439 51 l 1
 394 13 347 -10 280 -10 c 0
 154 -10 73 87 73 255 c 0
 73 426 152 529 272 529 c 0
 400 529 461 429 461 284 c 0
439 265 m 1
 439 292 l 2
 439 418 388 509 274 509 c 0
 175 509 99 430 96 265 c 1
 439 265 l 1
EndSplineSet
EndChar
StartChar: uni020B
Encoding: 523 523 458
Width: 258
Flags: W
HStem: 0 21G<118 140 118 118> 499 20G<118 140 140 140> 704 21<105.5 152.5>
VStem: 118 22<0 519 0 519>
LayerCount: 2
Fore
SplineSet
129 725 m 0
 188 725 228 689 237 639 c 1
 221 635 l 1
 209 679 176 704 129 704 c 0
 82 704 50 679 37 635 c 1
 21 639 l 1
 31 689 71 725 129 725 c 0
140 519 m 1
 140 0 l 1
 118 0 l 1
 118 519 l 1
 140 519 l 1
EndSplineSet
EndChar
StartChar: uni020C
Encoding: 524 524 459
Width: 689
Flags: W
HStem: -10 22<271.5 421 271.5 427.5> 670 21<272 418>
VStem: 78 23<233 446.5 233 451> 588 23<233.5 448.5>
LayerCount: 2
Fore
SplineSet
229 917 m 1
 300 787 l 1
 283 778 l 1
 206 906 l 1
 229 917 l 1
338 916 m 1
 403 790 l 1
 387 782 l 1
 316 904 l 1
 338 916 l 1
344 691 m 0
 505 691 611 569 611 340 c 0
 611 119 511 -10 344 -10 c 0
 185 -10 78 115 78 339 c 0
 78 563 187 691 344 691 c 0
344 670 m 0
 200 670 101 554 101 339 c 0
 101 127 199 12 344 12 c 0
 498 12 588 127 588 340 c 0
 588 557 492 670 344 670 c 0
EndSplineSet
EndChar
StartChar: uni0210
Encoding: 528 528 463
Width: 572
Flags: W
HStem: 0 21G<123 146 123 123 501 528 501 501> 324 21<146 287 287 313 146 287> 660 21<146 269 146 146>
VStem: 123 23<0 324 345 660> 473 23<448.5 553>
LayerCount: 2
Fore
SplineSet
240 787 m 1
 223 778 l 1
 146 906 l 1
 169 917 l 1
 240 787 l 1
343 790 m 1
 327 782 l 1
 256 904 l 1
 278 916 l 1
 343 790 l 1
501 0 m 1
 313 324 l 1
 146 324 l 1
 146 0 l 1
 123 0 l 1
 123 681 l 1
 272 681 l 2
 431 681 496 616 496 504 c 0
 496 393 428 343 337 327 c 1
 528 0 l 1
 501 0 l 1
146 345 m 1
 287 345 l 2
 398 345 473 393 473 504 c 0
 473 602 420 660 269 660 c 2
 146 660 l 1
 146 345 l 1
EndSplineSet
EndChar
StartChar: uni0212
Encoding: 530 530 465
Width: 572
Flags: W
HStem: 0 21G<123 146 123 123 501 528 501 501> 324 21<146 287 287 313 146 287> 660 21<146 269 146 146> 866 21<260.5 307.5>
VStem: 123 23<0 324 345 660> 473 23<448.5 553>
LayerCount: 2
Fore
SplineSet
284 866 m 0
 237 866 205 841 192 797 c 1
 176 801 l 1
 186 851 226 887 284 887 c 0
 343 887 383 851 392 801 c 1
 376 797 l 1
 364 841 331 866 284 866 c 0
501 0 m 1
 313 324 l 1
 146 324 l 1
 146 0 l 1
 123 0 l 1
 123 681 l 1
 272 681 l 2
 431 681 496 616 496 504 c 0
 496 393 428 343 337 327 c 1
 528 0 l 1
 501 0 l 1
146 345 m 1
 287 345 l 2
 398 345 473 393 473 504 c 0
 473 602 420 660 269 660 c 2
 146 660 l 1
 146 345 l 1
EndSplineSet
EndChar
StartChar: uni0216
Encoding: 534 534 469
Width: 640
Flags: W
HStem: -10 22<254.5 387.5 254.5 394> 661 20G<113 136 136 136 505 528 528 528> 866 21<296.5 343.5>
VStem: 113 23<207 210 210 681> 505 23<210 681>
LayerCount: 2
Fore
SplineSet
320 887 m 0
 379 887 419 851 428 801 c 1
 412 797 l 1
 400 841 367 866 320 866 c 0
 273 866 241 841 228 797 c 1
 212 801 l 1
 222 851 262 887 320 887 c 0
528 681 m 1
 528 207 l 2
 528 82 467 -10 321 -10 c 0
 173 -10 113 82 113 207 c 2
 113 681 l 1
 136 681 l 1
 136 210 l 2
 136 93 188 12 321 12 c 0
 454 12 505 95 505 210 c 2
 505 681 l 1
 528 681 l 1
EndSplineSet
EndChar
StartChar: uni021A
Encoding: 538 538 473
Width: 476
Flags: W
HStem: 0 21G<226 249 226 226> 659 22<16 226 16 463 249 459 249 249>
VStem: 212 49<-125 -112.5> 226 23<0 659 0 659>
LayerCount: 2
Fore
SplineSet
463 681 m 1xd0
 459 659 l 1
 249 659 l 1
 249 0 l 1
 226 0 l 1
 226 659 l 1
 16 659 l 1
 16 681 l 1
 463 681 l 1xd0
236 -96 m 0xe0
 253 -96 261 -106 261 -119 c 0
 261 -131 258 -139 247 -162 c 2
 212 -258 l 1
 197 -258 l 1
 228 -142 l 1
 217 -138 212 -131 212 -119 c 0
 212 -106 222 -96 236 -96 c 0xe0
EndSplineSet
EndChar
StartChar: uni021B
Encoding: 539 539 474
Width: 331
Flags: W
HStem: -10 21<197 245 197 246.5> 499 20<28 113 28 113 135 276>
VStem: 113 22<117 118 118 499 519 650 650 650> 199 49<-125 -112.5>
LayerCount: 2
Fore
SplineSet
327 20 m 1
 299 3 267 -10 226 -10 c 0
 156 -10 113 33 113 117 c 2
 113 499 l 1
 28 499 l 1
 28 519 l 1
 113 519 l 1
 113 650 l 1
 135 652 l 1
 135 519 l 1
 279 519 l 1
 276 499 l 1
 135 499 l 1
 135 118 l 2
 135 48 167 11 227 11 c 0
 263 11 291 22 317 37 c 1
 327 20 l 1
223 -96 m 0
 240 -96 248 -106 248 -119 c 0
 248 -131 245 -139 234 -162 c 2
 199 -258 l 1
 184 -258 l 1
 215 -142 l 1
 204 -138 199 -131 199 -119 c 0
 199 -106 209 -96 223 -96 c 0
EndSplineSet
EndChar
StartChar: uni021D
Encoding: 541 541 476
Width: 444
Flags: W
HStem: 255 19<140 190 190 210 137 190> 509 20<166 242>
VStem: 330 23<355 427> 356 22<99 184.5>
LayerCount: 2
Fore
SplineSet
200 529 m 0
 292 529 353 478 353 391 c 0xe0
 353 316 311 277 246 266 c 1
 322 264 378 228 378 147 c 0
 378 44 290 -35 72 -87 c 1
 68 -68 l 1
 275 -15 356 51 356 147 c 0xd0
 356 222 298 255 210 255 c 2
 137 255 l 1
 140 274 l 1
 190 274 l 2
 285 274 330 319 330 391 c 0
 330 463 284 509 200 509 c 0
 132 509 94 491 45 461 c 1
 33 477 l 1
 82 510 132 529 200 529 c 0
EndSplineSet
EndChar
StartChar: uni0221
Encoding: 545 545 480
Width: 650
Flags: W
HStem: -10 21<213.5 306 213.5 308 531 583.5> 162 20<563 614> 509 20<221 313.5> 713 20G<451 451> 716 20G<429 429>
VStem: 73 23<179.5 258 179.5 338> 429 22<123 418 418 418 446 733> 661 22<71 117>
LayerCount: 2
Fore
SplineSet
593 182 m 0xef
 649 182 683 145 683 98 c 0
 683 34 627 -10 552 -10 c 0
 510 -10 475 5 454 32 c 1
 410 -55 l 1
 390 -47 l 1
 441 51 l 1
 436 63 432 76 430 91 c 1
 401 37 352 -10 264 -10 c 0
 149 -10 73 89 73 258 c 0
 73 418 147 529 275 529 c 0
 356 529 402 487 429 446 c 1
 429 736 l 1xef
 451 733 l 1xf7
 451 110 l 2
 451 98 452 87 455 77 c 1
 488 139 528 182 593 182 c 0xef
265 11 m 0
 347 11 394 54 429 123 c 1
 429 418 l 1
 399 465 352 509 275 509 c 0
 167 509 95 413 96 258 c 0
 96 101 162 11 265 11 c 0
552 11 m 0
 615 11 661 44 661 98 c 0
 661 136 635 162 593 162 c 0
 533 162 499 121 464 54 c 1
 480 26 510 11 552 11 c 0
EndSplineSet
EndChar
StartChar: uni0222
Encoding: 546 546 481
Width: 629
Flags: W
HStem: -10 22<242.5 388 242.5 394.5> 372 21<249.5 380.5 249.5 386.5> 661 20G<127 150 150 150 483 505 505 505>
VStem: 78 23<137 237> 127 23<548 681> 483 22<548 681> 528 23<138.5 240.5 134 246.5>
LayerCount: 2
Fore
SplineSet
393 384 m 1
 497 361 551 290 551 191 c 0
 551 77 475 -10 314 -10 c 0
 159 -10 78 74 78 189 c 0xfe
 78 285 133 360 237 384 c 1
 153 408 127 474 127 548 c 2
 127 681 l 1
 150 681 l 1
 150 548 l 2
 150 465 184 393 315 393 c 0
 446 393 483 464 483 548 c 2
 483 681 l 1
 505 681 l 1
 505 548 l 2xec
 505 475 476 409 393 384 c 1
314 12 m 0xfe
 462 12 528 86 528 191 c 0
 528 302 459 372 314 372 c 0
 174 372 101 299 101 189 c 0
 101 85 171 12 314 12 c 0xfe
EndSplineSet
EndChar
StartChar: uni0223
Encoding: 547 547 482
Width: 556
Flags: W
HStem: -10 21<220.5 337.5 220.5 344> 399 20<223 333.5 223 340> 712 20G<111 133 133 133 426 448 448 448>
VStem: 73 23<144.5 253> 111 22<567 732> 426 22<567 732> 460 23<146 256.5 141.5 262>
LayerCount: 2
Fore
SplineSet
342 411 m 1
 436 387 483 309 483 204 c 0
 483 79 410 -10 278 -10 c 0
 150 -10 73 76 73 202 c 0xfe
 73 304 122 385 215 410 c 1
 138 433 111 495 111 567 c 2
 111 732 l 1
 133 732 l 1
 133 567 l 2
 133 488 168 419 278 419 c 0
 389 419 426 490 426 567 c 2
 426 732 l 1
 448 732 l 1
 448 567 l 2xec
 448 495 418 434 342 411 c 1
278 11 m 0xfe
 397 11 460 88 460 204 c 0
 460 320 402 399 278 399 c 0
 158 399 96 317 96 202 c 0
 96 87 163 11 278 11 c 0xfe
EndSplineSet
EndChar
StartChar: uni022C
Encoding: 556 556 491
Width: 689
Flags: W
HStem: -10 22<271.5 421 271.5 427.5> 670 21<272 418> 758 19<382.5 414.5 382.5 417.5> 801 20<274 303> 878 21<237 444 237 444>
VStem: 78 23<233 446.5 233 451> 588 23<233.5 448.5>
LayerCount: 2
Fore
SplineSet
444 878 m 1
 237 878 l 1
 237 899 l 1
 444 899 l 1
 444 878 l 1
403 758 m 0
 355 758 320 801 286 801 c 0
 262 801 247 791 226 766 c 1
 212 774 l 1
 234 804 256 821 286 821 c 0xfe
 325 821 362 777 403 777 c 0
 426 777 441 788 462 819 c 1
 476 811 l 1
 455 772 432 758 403 758 c 0
344 691 m 0
 505 691 611 569 611 340 c 0
 611 119 511 -10 344 -10 c 0
 185 -10 78 115 78 339 c 0
 78 563 187 691 344 691 c 0
344 670 m 0
 200 670 101 554 101 339 c 0
 101 127 199 12 344 12 c 0
 498 12 588 127 588 340 c 0
 588 557 492 670 344 670 c 0
EndSplineSet
EndChar
StartChar: uni022D
Encoding: 557 557 492
Width: 560
Flags: W
HStem: -10 21<222.5 336.5 222.5 343> 509 20<225 338.5> 605 20<319.5 351.5 319.5 354.5> 649 19<211 240> 727 22<177 384 177 384>
VStem: 73 23<180 340.5 180 345> 465 23<180.5 341.5>
LayerCount: 2
Fore
SplineSet
384 727 m 1
 177 727 l 1
 177 749 l 1
 384 749 l 1
 384 727 l 1
340 605 m 0
 292 605 257 649 223 649 c 0
 199 649 184 638 163 614 c 1
 149 622 l 1
 171 652 193 668 223 668 c 0xfe
 262 668 299 625 340 625 c 0
 363 625 378 636 399 666 c 1
 413 658 l 1
 392 620 369 605 340 605 c 0
281 529 m 0
 408 529 488 434 488 262 c 0
 488 89 406 -10 280 -10 c 0
 151 -10 73 91 73 259 c 0
 73 431 156 529 281 529 c 0
281 509 m 0
 169 509 96 422 96 259 c 0
 96 101 165 11 280 11 c 0
 393 11 465 99 465 262 c 0
 465 421 396 509 281 509 c 0
EndSplineSet
EndChar
StartChar: uni022E
Encoding: 558 558 493
Width: 689
Flags: W
HStem: -10 22<271.5 421 271.5 427.5> 670 21<272 418> 811 39<338 351>
VStem: 78 23<233 446.5 233 451> 344 21 588 23<233.5 448.5>
LayerCount: 2
Fore
SplineSet
344 850 m 0
 358 850 365 840 365 830 c 0
 365 820 358 811 344 811 c 0
 332 811 324 820 324 830 c 0
 324 840 332 850 344 850 c 0
344 691 m 0
 505 691 611 569 611 340 c 0
 611 119 511 -10 344 -10 c 0
 185 -10 78 115 78 339 c 0
 78 563 187 691 344 691 c 0
344 670 m 0
 200 670 101 554 101 339 c 0
 101 127 199 12 344 12 c 0
 498 12 588 127 588 340 c 0
 588 557 492 670 344 670 c 0
EndSplineSet
EndChar
StartChar: uni0230
Encoding: 560 560 495
Width: 689
Flags: W
HStem: -10 22<271.5 421 271.5 427.5> 670 21<272 418> 746 39<337.5 350.5> 849 21<241 448 241 448>
VStem: 78 23<233 446.5 233 451> 344 104 588 23<233.5 448.5>
LayerCount: 2
Fore
SplineSet
448 849 m 1
 241 849 l 1
 241 870 l 1
 448 870 l 1
 448 849 l 1
344 785 m 0
 357 785 364 776 364 766 c 0
 364 756 357 746 344 746 c 0
 331 746 324 756 324 766 c 0
 324 776 331 785 344 785 c 0
344 691 m 0
 505 691 611 569 611 340 c 0
 611 119 511 -10 344 -10 c 0
 185 -10 78 115 78 339 c 0
 78 563 187 691 344 691 c 0
344 670 m 0
 200 670 101 554 101 339 c 0
 101 127 199 12 344 12 c 0
 498 12 588 127 588 340 c 0
 588 557 492 670 344 670 c 0
EndSplineSet
EndChar
StartChar: uni0231
Encoding: 561 561 496
Width: 560
Flags: W
HStem: -10 21<222.5 336.5 222.5 343> 509 20<225 338.5> 651 20<274.5 287.5> 744 22<177 384 177 384>
VStem: 73 23<180 340.5 180 345> 260 41<646 656.5> 465 23<180.5 341.5>
LayerCount: 2
Fore
SplineSet
384 744 m 1
 177 744 l 1
 177 766 l 1
 384 766 l 1
 384 744 l 1
281 671 m 0
 294 671 301 662 301 651 c 0
 301 641 294 632 281 632 c 0
 268 632 260 641 260 651 c 0
 260 662 268 671 281 671 c 0
281 529 m 0
 408 529 488 434 488 262 c 0
 488 89 406 -10 280 -10 c 0
 151 -10 73 91 73 259 c 0
 73 431 156 529 281 529 c 0
281 509 m 0
 169 509 96 422 96 259 c 0
 96 101 165 11 280 11 c 0
 393 11 465 99 465 262 c 0
 465 421 396 509 281 509 c 0
EndSplineSet
EndChar
StartChar: uni0232
Encoding: 562 562 497
Width: 494
Flags: W
HStem: 0 21G<237 260 237 237> 661 20G<21 47 47 47 447 473 473 473> 811 21<144 351 144 351>
VStem: 237 23<0 270 270 270>
LayerCount: 2
Fore
SplineSet
351 811 m 1
 144 811 l 1
 144 832 l 1
 351 832 l 1
 351 811 l 1
473 681 m 1
 260 271 l 1
 260 0 l 1
 237 0 l 1
 237 270 l 1
 21 681 l 1
 47 681 l 1
 249 292 l 1
 447 681 l 1
 473 681 l 1
EndSplineSet
EndChar
StartChar: uni0233
Encoding: 563 563 498
Width: 444
Flags: W
HStem: -195 21G<59 59> 0 17<211 225 211 225> 0 21G<211 219 211 211> 499 20G<23 47 47 47 396 421 421 421> 685 21<118 325 118 325>
VStem: 23 398<519 519>
LayerCount: 2
Fore
SplineSet
325 685 m 1xbc
 118 685 l 1
 118 706 l 1
 325 706 l 1
 325 685 l 1xbc
421 519 m 1
 240 -1 l 2
 200 -116 169 -163 59 -195 c 1
 56 -177 l 1
 159 -146 181 -103 219 0 c 1
 211 0 l 1
 23 519 l 1
 47 519 l 1
 225 17 l 1xdc
 396 519 l 1
 421 519 l 1
EndSplineSet
EndChar
StartChar: uni0234
Encoding: 564 564 499
Width: 334
Flags: W
HStem: -10 21<214 266.5 214 273> 162 20<246.5 298> 713 20G<113 113> 716 20G<135 135>
VStem: 113 22<110 733 733 733> 344 22<71 117>
LayerCount: 2
Fore
SplineSet
277 182 m 0xdc
 333 182 366 145 366 98 c 0
 366 34 311 -10 235 -10 c 0
 193 -10 158 5 137 32 c 1
 93 -55 l 1
 74 -47 l 1
 125 51 l 1
 117 68 113 87 113 110 c 2
 113 733 l 1xec
 135 736 l 1
 135 110 l 2
 135 98 136 87 139 77 c 1
 172 139 211 182 277 182 c 0xdc
235 11 m 0
 298 11 344 44 344 98 c 0
 344 136 319 162 277 162 c 0
 216 162 183 121 148 54 c 1
 164 26 193 11 235 11 c 0
EndSplineSet
EndChar
StartChar: uni0235
Encoding: 565 565 500
Width: 667
Flags: W
HStem: -10 21<548 600.5 547.5 606.5> 0 21G<118 140 118 118> 162 20<580.5 631.5> 499 20G<118 137 137 137> 509 20<289 369.5>
VStem: 118 20 447 22<110 367 367 369> 678 22<71 117>
LayerCount: 2
Fore
SplineSet
611 182 m 0xaf
 666 182 700 145 700 98 c 0
 700 34 644 -10 569 -10 c 0
 527 -10 492 5 471 32 c 1
 427 -55 l 1
 408 -47 l 1
 459 52 l 1
 451 68 447 88 447 110 c 2
 447 367 l 2
 447 461 409 509 330 509 c 0xaf
 246 509 189 459 140 384 c 1
 140 0 l 1
 118 0 l 1
 118 519 l 1
 137 519 l 1x77
 139 413 l 1
 186 483 248 529 330 529 c 0
 425 529 469 471 469 369 c 2
 469 110 l 2
 469 98 470 87 473 76 c 1
 506 139 545 182 611 182 c 0xaf
569 11 m 0
 632 11 678 44 678 98 c 0
 678 136 652 162 611 162 c 0
 550 162 516 121 481 54 c 1
 497 26 526 11 569 11 c 0
EndSplineSet
EndChar
StartChar: uni0237
Encoding: 567 567 502
Width: 258
Flags: W
HStem: -195 21G<28 28> 499 20G<119 141 141 141>
VStem: 119 22<7 519>
LayerCount: 2
Fore
SplineSet
141 519 m 1
 141 6 l 2
 141 -122 105 -155 28 -195 c 1
 22 -178 l 1
 90 -142 119 -111 119 7 c 2
 119 519 l 1
 141 519 l 1
EndSplineSet
EndChar
StartChar: uni0239
Encoding: 569 569 504
Width: 836
Flags: W
HStem: -196 21G<409 409> -192 21G<431 431> -10 21<209 292 209 293 552 632.5> 499 20G<412 428 428 428> 509 20<217 300 556.5 637.5>
VStem: 73 23<179.5 258 179.5 338> 409 22<-192 87 87 87 124 408> 740 23<183.5 344>
LayerCount: 2
Fore
SplineSet
591 529 m 0x6f
 698 529 763 435 763 264 c 0
 763 95 697 -10 584 -10 c 0
 518 -10 464 34 431 89 c 1
 431 -192 l 1x6f
 409 -196 l 1
 409 87 l 1
 380 36 331 -10 255 -10 c 0
 149 -10 73 89 73 258 c 0
 73 418 147 529 266 529 c 0
 338 529 382 483 410 436 c 1xaf
 412 519 l 1
 428 519 l 1x77
 431 434 l 1
 469 489 522 529 591 529 c 0x6f
256 11 m 0
 328 11 373 53 409 121 c 1
 409 409 l 1
 377 461 333 509 267 509 c 0
 167 509 95 413 96 258 c 0
 96 101 162 11 256 11 c 0
583 11 m 0
 682 11 740 103 740 264 c 0
 740 424 684 509 591 509 c 0
 521 509 476 468 431 408 c 1
 431 124 l 1
 470 52 521 11 583 11 c 0
EndSplineSet
EndChar
StartChar: uni023B
Encoding: 571 571 506
Width: 538
Flags: W
HStem: -10 22<325 380.5 325 381.5> 666 20G<395 400> 670 21<277 354.5 269.5 355> 712 20G<429 429> 717 20G<413 413>
VStem: 78 23<263.5 455 263.5 458.5>
LayerCount: 2
Fore
SplineSet
513 54 m 1xac
 472 19 421 -10 342 -10 c 0
 306 -10 271 -3 241 11 c 1
 220 -66 l 1
 203 -62 l 1
 225 19 l 1
 135 67 78 177 78 340 c 0
 78 577 195 691 344 691 c 0xac
 365 691 383 689 400 686 c 1
 413 737 l 1xcc
 429 732 l 1
 416 682 l 1
 451 672 479 655 505 633 c 1xb4
 492 617 l 1
 466 638 441 653 411 662 c 1
 246 33 l 1
 275 19 308 12 342 12 c 0
 419 12 461 39 499 71 c 1
 513 54 l 1xac
101 340 m 0
 101 187 152 87 231 41 c 1
 395 666 l 1
 380 669 364 670 346 670 c 0
 208 670 101 570 101 340 c 0
EndSplineSet
EndChar
StartChar: uni023C
Encoding: 572 572 507
Width: 464
Flags: W
HStem: -10 21<270 310 270 313> 505 20G<324 329> 509 20<229 291.5>
VStem: 73 23<200.5 339 200.5 341.5>
LayerCount: 2
Fore
SplineSet
423 44 m 1xb0
 387 12 342 -10 284 -10 c 0
 255 -10 228 -5 204 5 c 1
 185 -66 l 1
 168 -62 l 1
 189 13 l 1
 117 51 73 135 73 257 c 0
 73 426 156 529 283 529 c 0xb0
 300 529 315 528 329 525 c 1
 346 586 l 1
 363 582 l 1
 346 521 l 1
 372 513 395 499 418 479 c 1
 405 464 l 1
 386 481 365 494 341 501 c 1xd0
 210 26 l 1
 232 16 257 11 283 11 c 0
 337 11 377 30 410 59 c 1
 423 44 l 1xb0
96 257 m 0
 96 144 134 69 194 34 c 1
 324 505 l 1
 312 508 299 509 284 509 c 0
 174 509 96 421 96 257 c 0
EndSplineSet
EndChar
StartChar: uni023D
Encoding: 573 573 508
Width: 477
Flags: W
HStem: 0 22<167 451> 352 21<35 144 35 144 167 279> 661 20G<144 167 167 167>
VStem: 144 23<22 22 22 352 373 681>
LayerCount: 2
Fore
SplineSet
167 22 m 1
 456 22 l 1
 451 0 l 1
 144 0 l 1
 144 352 l 1
 35 352 l 1
 35 373 l 1
 144 373 l 1
 144 681 l 1
 167 681 l 1
 167 373 l 1
 279 373 l 1
 279 352 l 1
 167 352 l 1
 167 22 l 1
EndSplineSet
EndChar
StartChar: uni0240
Encoding: 576 576 511
Width: 410
Flags: W
HStem: -197 20<294.5 360.5 294.5 364> 0 21G<31 31> 499 20<58 346 58 374>
VStem: 31 25<16 16 16 18 16 18>
LayerCount: 2
Fore
SplineSet
348 -197 m 0
 221 -197 233 -24 31 0 c 1
 31 18 l 1
 346 499 l 1
 58 499 l 1
 58 519 l 1
 374 519 l 1
 374 501 l 1
 56 16 l 1
 239 -11 241 -177 348 -177 c 0
 373 -177 391 -169 408 -157 c 1
 419 -171 l 1
 401 -186 380 -197 348 -197 c 0
EndSplineSet
EndChar
StartChar: uni0241
Encoding: 577 577 512
Width: 453
Flags: W
HStem: 0 21G<166 166 166 189> 670 21<180 272.5>
VStem: 166 23<0 273 0 289 0 289> 390 23<432.5 544.5>
LayerCount: 2
Fore
SplineSet
166 0 m 1
 166 289 l 1
 237 307 l 2
 326 330 390 372 390 493 c 0
 390 596 328 670 217 670 c 0
 143 670 88 639 38 593 c 1
 23 608 l 1
 79 661 138 691 217 691 c 0
 342 691 413 606 413 493 c 0
 413 354 334 308 238 285 c 2
 189 273 l 1
 189 0 l 1
 166 0 l 1
EndSplineSet
EndChar
StartChar: uni0242
Encoding: 578 578 513
Width: 416
Flags: W
HStem: 0 21G<137 137 137 159> 509 20<146 230.5>
VStem: 137 22<0 155 0 171 0 171> 341 22<302 398>
LayerCount: 2
Fore
SplineSet
137 0 m 1
 137 171 l 1
 207 189 l 2
 279 207 341 252 341 352 c 0
 341 444 279 509 182 509 c 0
 110 509 64 478 26 445 c 1
 13 459 l 1
 55 499 105 529 183 529 c 0
 292 529 363 454 363 352 c 0
 363 234 285 187 208 167 c 2
 159 155 l 1
 159 0 l 1
 137 0 l 1
EndSplineSet
EndChar
StartChar: uni0244
Encoding: 580 580 515
Width: 664
Flags: W
HStem: -10 22<266.5 399.5 266.5 406> 520 18<65 125 65 125 148 517 540 599> 520 161<65 148 65 148 125 148 125 517>
VStem: 125 23<207 210 210 520 538 681> 517 23<210 520 538 681>
LayerCount: 2
Fore
SplineSet
599 538 m 1xd8
 599 520 l 1
 540 520 l 1
 540 207 l 2
 540 82 479 -10 333 -10 c 0
 185 -10 125 82 125 207 c 2
 125 520 l 1
 65 520 l 1
 65 538 l 1
 125 538 l 1xd8
 125 681 l 1
 148 681 l 1xb8
 148 538 l 1
 517 538 l 1xd8
 517 681 l 1
 540 681 l 1xb8
 540 538 l 1
 599 538 l 1xd8
517 210 m 2
 517 520 l 1
 148 520 l 1
 148 210 l 2
 148 93 200 12 333 12 c 0
 466 12 517 95 517 210 c 2
EndSplineSet
EndChar
StartChar: uni0248
Encoding: 584 584 519
Width: 291
Flags: W
HStem: 332 21<25 138 25 138 161 269> 661 20G<138 161 161 161>
VStem: 138 23<89 332 353 681>
LayerCount: 2
Fore
SplineSet
269 353 m 1
 269 332 l 1
 161 332 l 1
 161 87 l 2
 161 -13 138 -53 30 -100 c 1
 23 -83 l 1
 116 -40 138 -4 138 89 c 2
 138 332 l 1
 25 332 l 1
 25 353 l 1
 138 353 l 1
 138 681 l 1
 161 681 l 1
 161 353 l 1
 269 353 l 1
EndSplineSet
EndChar
StartChar: uni024E
Encoding: 590 590 525
Width: 494
Flags: W
HStem: 0 21G<237 260 237 237> 567 17<21 72 21 81 21 72 106 106 106 389 423 473> 567 114<21 47 21 81 21 47 21 106 21 389 447 473>
VStem: 237 23<0 270 270 270>
LayerCount: 2
Fore
SplineSet
473 681 m 1xb0
 423 584 l 1
 473 584 l 1
 473 567 l 1
 414 567 l 1
 260 271 l 1
 260 0 l 1
 237 0 l 1
 237 270 l 1
 81 567 l 1
 21 567 l 1
 21 584 l 1
 72 584 l 1xd0
 21 681 l 1
 47 681 l 1xb0
 97 584 l 1
 398 584 l 1xd0
 447 681 l 1
 473 681 l 1xb0
249 290 m 1
 389 567 l 1
 106 567 l 1
 249 290 l 1
EndSplineSet
EndChar
StartChar: uni024F
Encoding: 591 591 526
Width: 441
Flags: W
HStem: -195 21G<57 57> 0 17<209 224 209 224> 0 21G<209 218 209 209> 364 18<23 71 23 77 23 71 101 101 101 342 372 420> 364 155<23 46 21 77 23 23 21 101 21 342 395 420>
VStem: 21 399<364 519>
LayerCount: 2
Fore
SplineSet
420 519 m 1xac
 372 382 l 1
 420 382 l 1
 420 364 l 1
 366 364 l 1
 238 -1 l 2
 198 -116 167 -163 57 -195 c 1
 55 -177 l 1
 158 -146 180 -103 218 0 c 1
 209 0 l 1
 77 364 l 1
 23 364 l 1
 23 382 l 1
 71 382 l 1xb4
 21 519 l 1
 46 519 l 1xac
 95 382 l 1
 348 382 l 1xb4
 395 519 l 1
 420 519 l 1xac
224 17 m 1xd4
 342 364 l 1
 101 364 l 1
 224 17 l 1xd4
EndSplineSet
EndChar
StartChar: uni0393
Encoding: 915 915 529
Width: 512
Flags: W
HStem: 0 21G<123 146 123 123> 659 22<146 495 146 146>
VStem: 123 23<0 659 0 681 0 681>
LayerCount: 2
Fore
SplineSet
499 681 m 1
 495 659 l 1
 146 659 l 1
 146 0 l 1
 123 0 l 1
 123 681 l 1
 499 681 l 1
EndSplineSet
EndChar
StartChar: uni0394
Encoding: 916 916 530
Width: 567
Flags: W
HStem: 0 21<58 509 58 540> 663 18<284 284>
VStem: 28 512<0 0>
LayerCount: 2
Fore
SplineSet
298 681 m 1
 540 0 l 1
 28 0 l 1
 270 681 l 1
 298 681 l 1
284 663 m 1
 58 21 l 1
 509 21 l 1
 284 663 l 1
EndSplineSet
EndChar
StartChar: uni039B
Encoding: 923 923 537
Width: 557
Flags: W
HStem: 0 21G<28 51 28 28 505 530 505 505> 663 18<278 278>
VStem: 28 502<0 0>
LayerCount: 2
Fore
SplineSet
292 681 m 1
 530 0 l 1
 505 0 l 1
 278 663 l 1
 51 0 l 1
 28 0 l 1
 265 681 l 1
 292 681 l 1
EndSplineSet
EndChar
StartChar: uni03A6
Encoding: 934 934 547
Width: 767
Flags: W
HStem: 0 93<373 373 373 394 373 395 372 373> 73 20<372 373> 590 21<372 373> 590 91<373 373 394 394>
VStem: 48 23<265.5 422.5 265.5 425> 372 22<0 93 73 93> 696 23<261.5 418.5>
LayerCount: 2
Fore
SplineSet
719 342 m 0x6e
 719 176 616 82 395 73 c 1x6e
 395 0 l 1
 372 0 l 1xae
 372 73 l 1
 150 78 48 181 48 342 c 0
 48 508 151 602 372 611 c 1x6e
 372 681 l 1
 395 681 l 1x5e
 395 611 l 1
 617 606 719 503 719 342 c 0x6e
394 93 m 1
 597 103 696 181 696 342 c 0
 696 495 598 586 394 590 c 1
 394 93 l 1
71 342 m 0
 71 189 169 98 373 93 c 1
 373 590 l 1
 170 581 71 503 71 342 c 0
EndSplineSet
EndChar
StartChar: uni03B4
Encoding: 948 948 554
Width: 557
Flags: W
HStem: -10 21<223.5 338.5 223.5 344.5> 672 20G<430 430> 716 21<241.5 310.5>
VStem: 73 23<161.5 299.5> 126 23<586 644 586 650> 461 23<158 299>
LayerCount: 2
Fore
SplineSet
290 487 m 0
 427 435 484 373 484 233 c 0
 484 71 409 -10 280 -10 c 0
 152 -10 73 76 73 235 c 0xb4
 73 364 141 444 246 484 c 1
 162 518 126 553 126 616 c 0
 126 684 187 737 280 737 c 0xbc
 341 737 385 721 430 692 c 1xf4
 416 676 l 1
 374 703 338 716 283 716 c 0
 200 716 149 673 149 615 c 0xbc
 149 557 178 529 290 487 c 0
280 11 m 0
 397 11 461 83 461 233 c 0
 461 365 414 420 268 476 c 1
 172 441 96 366 96 235 c 0
 96 88 167 11 280 11 c 0
EndSplineSet
EndChar
StartChar: uni03B7
Encoding: 951 951 557
Width: 583
Flags: W
HStem: -196 21G<470 470> -192 21G<448 448> 0 21G<119 141 119 119> 503 20G<118 118> 509 20<289.5 370.5>
VStem: 119 22<0 363 363 384 0 398> 448 22<-192 367 367 369 -196 414>
LayerCount: 2
Fore
SplineSet
331 529 m 0x6e
 426 529 470 471 470 369 c 2
 470 -196 l 1xae
 448 -192 l 1
 448 367 l 2
 448 461 410 509 331 509 c 0x6e
 247 509 190 459 141 384 c 1
 141 0 l 1
 119 0 l 1
 119 363 l 2
 119 433 110 481 98 520 c 1
 118 523 l 1x76
 131 490 137 450 139 410 c 1
 185 481 248 529 331 529 c 0x6e
EndSplineSet
EndChar
StartChar: uni03BA
Encoding: 954 954 560
Width: 479
Flags: W
HStem: -7 17<454 461> -7 21G<454 454> 0 21G<119 141 119 119> 503 20G<119 119> 507 20G<415 415>
VStem: 119 22<0 361 0 363 0 398>
LayerCount: 2
Fore
SplineSet
433 517 m 1x2c
 176 267 l 1
 408 45 l 2
 429 25 440 15 461 10 c 1x94
 454 -7 l 1
 429 -3 416 9 392 32 c 2x4c
 148 267 l 1
 415 527 l 1
 433 517 l 1x2c
119 523 m 1
 131 484 141 446 141 361 c 2
 141 0 l 1
 119 0 l 1x2c
 119 363 l 2
 119 433 110 481 98 520 c 1
 119 523 l 1
EndSplineSet
EndChar
StartChar: uni03C1
Encoding: 961 961 567
Width: 559
Flags: W
HStem: -196 21G<108 108> -192 21G<130 130> -10 21<256.5 342 256.5 349> 509 20<239.5 347.5>
VStem: 108 22<-192 85 116 295> 458 23<179 342.5>
LayerCount: 2
Fore
SplineSet
295 529 m 0x7c
 416 529 481 427 481 264 c 0
 481 82 405 -10 293 -10 c 0
 220 -10 165 29 130 85 c 1
 130 -192 l 1x7c
 108 -196 l 1xbc
 108 298 l 2
 108 431 168 529 295 529 c 0x7c
292 11 m 0
 392 11 458 94 458 264 c 0
 458 421 401 509 294 509 c 0
 185 509 130 425 130 295 c 2
 130 116 l 1
 166 50 221 11 292 11 c 0
EndSplineSet
EndChar
StartChar: uni03C3
Encoding: 963 963 569
Width: 567
Flags: W
HStem: -10 21<222.5 336.5 222.5 343> 499 20G<506 506> 504.5 22.5 510 17<330 333 330 330>
VStem: 73 23<180.5 336.5 180.5 339> 465 23<181 324.5 175.5 326>
LayerCount: 2
Fore
SplineSet
506 519 m 1xcc
 506 501 l 1
 366 508 l 1xac
 438 470 488 387 488 262 c 0
 488 89 406 -10 280 -10 c 0
 151 -10 73 91 73 259 c 0
 73 419 146 527 319 527 c 0x9c
 371 527 446 523 506 519 c 1xcc
465 262 m 0
 465 390 411 472 333 510 c 1
 330 510 l 2x9c
 161 511 96 414 96 259 c 0
 96 102 165 11 280 11 c 0
 393 11 465 100 465 262 c 0
EndSplineSet
EndChar
StartChar: uni03C8
Encoding: 968 968 574
Width: 733
Flags: W
HStem: -196 21G<355 355> -192 21G<377 377> -10 21<355 355> 499 20G<104 126 126 126 355 377 377 377 591 614 614 614>
VStem: 103 22<134.5 198 134.5 199> 355 22<-192 -10 -192 -10 -192 -10 11 519> 617 23<178 318>
LayerCount: 2
Fore
SplineSet
640 274 m 0x7e
 640 69 548 -2 377 -10 c 1
 377 -192 l 1x7e
 355 -196 l 1xbe
 355 -10 l 1
 191 -8 103 59 103 199 c 2
 104 519 l 1
 126 519 l 1
 125 198 l 2
 125 71 203 13 355 11 c 1
 355 519 l 1
 377 519 l 1
 377 11 l 1
 536 16 617 83 617 273 c 0
 617 363 608 429 591 519 c 1
 614 519 l 1
 631 429 640 363 640 274 c 0x7e
EndSplineSet
EndChar
StartChar: uni03D0
Encoding: 976 976 576
Width: 569
Flags: W
HStem: -10 21<226 348.5 226 353.5> 406 17<302 358.5> 716 21<281.5 369>
VStem: 73 23<344 344 344 365 344 483> 440 23<617 644.5> 478 23<156.5 282.5>
LayerCount: 2
Fore
SplineSet
311 423 m 0
 422 423 501 359 501 223 c 0xf4
 501 82 414 -10 293 -10 c 0
 145 -10 73 110 73 351 c 0
 73 615 209 737 337 737 c 0
 412 737 463 685 463 617 c 0xfc
 463 522 408 472 264 418 c 1
 276 420 293 423 311 423 c 0
335 716 m 0
 228 716 101 622 96 365 c 1
 179 397 l 2
 409 486 439 536 440 617 c 0xfc
 440 672 403 716 335 716 c 0
294 11 m 0
 403 11 478 91 478 222 c 0
 478 343 407 406 310 406 c 0
 259 406 224 395 179 377 c 2
 96 344 l 1
 97 119 158 11 294 11 c 0
EndSplineSet
EndChar
StartChar: uni03D5
Encoding: 981 981 579
Width: 619
Flags: W
HStem: -196 21G<299 299> -192 21G<321 321> 7 20<299 299> 493 19<299 299> 713 20G<299 299> 716 20G<321 321>
VStem: 58 23<187 331.5 187 334.5> 299 21<-196 27 7 27 27 493> 538 23<187 333>
LayerCount: 2
Fore
SplineSet
561 261 m 0x7780
 561 107 479 12 321 7 c 1
 321 -192 l 1x7780
 299 -196 l 1
 299 7 l 1
 145 11 58 106 58 260 c 0
 58 409 140 508 299 512 c 1
 299 733 l 1xbb80
 321 736 l 1
 321 512 l 1
 475 508 561 414 561 261 c 0x7780
320 27 m 1
 461 31 538 113 538 261 c 0
 538 405 458 489 320 493 c 1
 320 27 l 1
81 260 m 0
 81 114 161 31 299 27 c 1
 299 493 l 1
 157 487 81 403 81 260 c 0
EndSplineSet
EndChar
StartChar: uni03D6
Encoding: 982 982 580
Width: 728
Flags: W
HStem: -10 21<204.5 266 204.5 269 459 519> 499 20<140 143 143 175 199 199 199 531 555 660 555 555>
VStem: 88 23<138.5 273 138.5 279.5> 352 23<177 310 310 310> 617 23<134 272>
LayerCount: 2
Fore
SplineSet
660 519 m 1
 660 499 l 1
 555 499 l 1
 601 437 640 341 640 215 c 0
 640 42 561 -10 490 -10 c 0
 421 -10 371 31 364 125 c 1
 352 31 301 -10 237 -10 c 0
 152 -10 88 60 88 216 c 0
 88 343 126 432 175 499 c 1
 143 499 l 2
 109 499 95 497 73 490 c 1
 67 508 l 1
 89 517 98 519 140 519 c 2
 660 519 l 1
489 11 m 0
 549 11 617 55 617 213 c 0
 617 331 582 421 531 499 c 1
 199 499 l 1
 146 421 111 331 111 215 c 0
 111 62 174 11 235 11 c 0
 297 11 352 53 352 177 c 2
 352 310 l 1
 375 314 l 1
 375 176 l 2
 375 51 429 11 489 11 c 0
EndSplineSet
EndChar
StartChar: uni2032
Encoding: 8242 8242 588
Width: 276
Flags: W
HStem: 441 240
VStem: 83 110
LayerCount: 2
Fore
SplineSet
83 441 m 1
 170 681 l 1
 193 681 l 1
 101 441 l 1
 83 441 l 1
EndSplineSet
EndChar
StartChar: uni2034
Encoding: 8244 8244 590
Width: 516
Flags: W
HStem: 441 240
LayerCount: 2
Fore
SplineSet
83 441 m 1
 170 681 l 1
 193 681 l 1
 101 441 l 1
 83 441 l 1
203 441 m 1
 290 681 l 1
 313 681 l 1
 221 441 l 1
 203 441 l 1
323 441 m 1
 410 681 l 1
 433 681 l 1
 341 441 l 1
 323 441 l 1
EndSplineSet
EndChar
StartChar: uni210E
Encoding: 8462 8462 592
Width: 581
Flags: W
HStem: 0 21G<81 103 81 81 410 432 410 410> 510 19<328 405.5> 716 20G<207 207>
VStem: 464.84 22
LayerCount: 2
Fore
SplineSet
369 529 m 0
 461 529 498 470 484 369 c 2
 432 0 l 1
 410 0 l 1
 462 367 l 2
 475 462 445 510 366 510 c 0
 280 510 211 437 148 315 c 1
 103 0 l 1
 81 0 l 1
 185 733 l 1
 207 736 l 1
 154 359 l 1
 211 472 287 529 369 529 c 0
EndSplineSet
EndChar
StartChar: uni2113
Encoding: 8467 8467 593
Width: 359
Flags: W
HStem: -10 21<155 179 155 179.5> 0 21G<218 218> 717 20<193 248>
VStem: 98 22<72 73 73 238 238 238 279 573> 304 22<561 650.5>
LayerCount: 2
Fore
SplineSet
172 11 m 0xb8
 186 11 199 14 211 19 c 1x78
 218 0 l 1
 205 -5 188 -10 171 -10 c 0
 127 -10 98 16 98 72 c 2
 98 238 l 1
 44 196 l 1
 33 211 l 1
 98 261 l 1
 98 573 l 2
 98 681 153 737 222 737 c 0
 288 737 326 689 326 618 c 0
 326 504 273 385 120 256 c 1
 120 73 l 2
 120 32 138 11 172 11 c 0xb8
222 717 m 0
 164 717 120 673 120 573 c 2
 120 279 l 1
 251 396 304 503 304 618 c 0
 304 683 274 717 222 717 c 0
EndSplineSet
EndChar
StartChar: uni2136
Encoding: 8502 8502 599
Width: 491
Flags: W
HStem: 0 20<46 365 387 458 43 365> 539 20<72 248 72 248>
VStem: 365 22<20 400 400 402>
LayerCount: 2
Fore
SplineSet
387 20 m 1
 458 20 l 1
 458 0 l 1
 43 0 l 1
 46 20 l 1
 365 20 l 1
 365 400 l 2
 365 498 346 539 248 539 c 2
 72 539 l 1
 72 559 l 1
 248 559 l 2
 362 559 387 512 387 402 c 2
 387 20 l 1
EndSplineSet
EndChar
StartChar: uni2138
Encoding: 8504 8504 601
Width: 469
Flags: W
HStem: 0 21G<264 286 264 264> 539 20<21 312 21 426 332 423 332 332>
VStem: 264 22<0 299 0 300 0 361>
LayerCount: 2
Fore
SplineSet
426 559 m 1
 423 539 l 1
 332 539 l 1
 298 485 286 418 286 299 c 2
 286 0 l 1
 264 0 l 1
 264 300 l 2
 264 422 279 485 312 539 c 1
 21 539 l 1
 21 559 l 1
 426 559 l 1
EndSplineSet
EndChar
StartChar: uni2206
Encoding: 8710 8710 603
Width: 567
Flags: W
HStem: 0 21<58 509> 661 20G<262.893 305.107>
LayerCount: 2
Fore
SplineSet
298 681 m 1
 540 0 l 1
 28 0 l 1
 270 681 l 1
 298 681 l 1
284 663 m 1
 58 21 l 1
 509 21 l 1
 284 663 l 1
EndSplineSet
EndChar
StartChar: uniFB00
Encoding: 64256 64256 950
Width: 588
Flags: W
HStem: 0 21G<121 143 121 121 402 424 402 402> 499 20<31 121 31 121 143 402 424 568> 706 21<220.5 283.5 212.5 284> 716 21<503 546.5>
VStem: 121 22<0 499 0 499 519 604> 402 22<0 499 0 499 519 614>
LayerCount: 2
Fore
SplineSet
527 716 m 0xdc
 466 716 424 686 424 614 c 2
 424 519 l 1
 571 519 l 1
 568 499 l 1
 424 499 l 1
 424 0 l 1
 402 0 l 1
 402 499 l 1
 143 499 l 1
 143 0 l 1
 121 0 l 1
 121 499 l 1
 31 499 l 1
 31 519 l 1
 121 519 l 1
 121 607 l 2
 121 685 170 727 255 727 c 0
 312 727 359 716 422 689 c 1xec
 443 721 480 737 526 737 c 0
 568 737 608 725 642 706 c 1
 633 689 l 1
 600 706 566 716 527 716 c 0xdc
402 519 m 1
 402 617 l 2
 402 638 406 656 412 672 c 1
 355 696 311 706 257 706 c 0xec
 184 706 143 676 143 604 c 2
 143 519 l 1
 402 519 l 1
EndSplineSet
EndChar
StartChar: u1D41D
Encoding: 119837 119837 634
Width: 575
Flags: W
HStem: -11 40<220.5 301.5> 0 21G<426 466 426 426> 493 39<229 309 207 311> 715 20G<466 466> 721 20G<420 420>
VStem: 67 48<259 259> 420 46<133 410 410 410 459 735 0 741 0 741>
LayerCount: 2
Fore
SplineSet
420 741 m 1xae
 466 735 l 1
 466 0 l 1
 426 0 l 1x76
 421 82 l 1
 392 32 342 -11 261 -11 c 0
 142 -11 67 92 67 259 c 0
 67 420 143 532 271 532 c 0
 347 532 391 496 420 459 c 1
 420 741 l 1xae
267 29 m 0xae
 341 29 384 67 420 133 c 1
 420 410 l 1
 389 456 345 493 277 493 c 0
 181 493 114 409 115 259 c 0
 116 111 174 29 267 29 c 0xae
EndSplineSet
EndChar
StartChar: u1D422
Encoding: 119842 119842 639
Width: 264
Flags: W
HStem: 0 21G<109 155 109 109> 502 20G<109 155 155 155> 674 70<121 143>
VStem: 96 72<699.5 718.5> 109 46<0 522 0 522>
LayerCount: 2
Fore
SplineSet
132 744 m 0xf0
 154 744 168 728 168 709 c 0
 168 690 154 674 132 674 c 0
 110 674 96 690 96 709 c 0
 96 728 110 744 132 744 c 0xf0
155 522 m 1xe8
 155 0 l 1
 109 0 l 1
 109 522 l 1
 155 522 l 1xe8
EndSplineSet
EndChar
StartChar: u1D424
Encoding: 119844 119844 641
Width: 479
Flags: W
HStem: 0 21G<109 155 109 109 412 412 412 468> 502 20G<390 445 445 445> 715 20G<109 109> 721 20G<155 155>
VStem: 109 46<0 735 735 735>
LayerCount: 2
Fore
SplineSet
155 741 m 1xd8
 155 0 l 1
 109 0 l 1
 109 735 l 1xe8
 155 741 l 1xd8
445 522 m 1
 216 287 l 1
 468 0 l 1
 412 0 l 1
 161 285 l 1
 390 522 l 1
 445 522 l 1
EndSplineSet
EndChar
StartChar: u1D42E
Encoding: 119854 119854 651
Width: 576
Flags: W
HStem: -11 40<225 293.5> 0 21G<428 467 428 428> 502 20G<104 150 150 150 421 467 467 467>
VStem: 104 46<149 153 153 522> 421 46<141 522 0 522>
LayerCount: 2
Fore
SplineSet
467 522 m 1xb8
 467 0 l 1
 428 0 l 1x78
 425 97 l 1
 390 35 335 -11 252 -11 c 0
 158 -11 104 46 104 149 c 2
 104 522 l 1
 150 522 l 1
 150 153 l 2
 150 66 189 29 261 29 c 0
 334 29 383 76 421 141 c 1
 421 522 l 1
 467 522 l 1xb8
EndSplineSet
EndChar
StartChar: u1D42F
Encoding: 119855 119855 652
Width: 462
Flags: W
HStem: 0 40<235 235 235 264 206 235> 502 20G<17 68 68 68 395 445 445 445>
VStem: 17 428<522 522>
LayerCount: 2
Fore
SplineSet
445 522 m 1
 264 0 l 1
 206 0 l 1
 17 522 l 1
 68 522 l 1
 235 40 l 1
 395 522 l 1
 445 522 l 1
EndSplineSet
EndChar
StartChar: u1D433
Encoding: 119859 119859 656
Width: 412
Flags: W
HStem: 0 41<84 374> 481 41<53 328 53 382>
VStem: 29 353
LayerCount: 2
Fore
SplineSet
382 522 m 1
 382 485 l 1
 84 41 l 1
 379 41 l 1
 374 0 l 1
 29 0 l 1
 29 36 l 1
 328 481 l 1
 53 481 l 1
 53 522 l 1
 382 522 l 1
EndSplineSet
EndChar
StartChar: u1D439
Encoding: 119865 119865 662
Width: 471
Flags: W
HStem: 0 21G<86 109 86 86> 335 21<159 407 156 410> 660 21<202 492 202 202>
VStem: 86 412
LayerCount: 2
Fore
SplineSet
498 681 m 1
 492 660 l 1
 202 660 l 1
 159 356 l 1
 410 356 l 1
 407 335 l 1
 156 335 l 1
 109 0 l 1
 86 0 l 1
 182 681 l 1
 498 681 l 1
EndSplineSet
EndChar
StartChar: u1D43B
Encoding: 119867 119867 664
Width: 660
Flags: W
HStem: 0 21G<86 109 86 86 477 477 477 500> 351 21<161 527 158 530> 661 20G<182 205 205 205 573 596 596 596>
VStem: 86 510
LayerCount: 2
Fore
SplineSet
109 0 m 1
 86 0 l 1
 182 681 l 1
 205 681 l 1
 161 372 l 1
 530 372 l 1
 573 681 l 1
 596 681 l 1
 500 0 l 1
 477 0 l 1
 527 351 l 1
 158 351 l 1
 109 0 l 1
EndSplineSet
EndChar
StartChar: u1D43F
Encoding: 119871 119871 668
Width: 452
Flags: W
HStem: 0 22<112 393> 661 20G<182 205 205 205>
VStem: 86 315<0 22>
LayerCount: 2
Fore
SplineSet
205 681 m 1
 112 22 l 1
 401 22 l 1
 393 0 l 1
 86 0 l 1
 182 681 l 1
 205 681 l 1
EndSplineSet
EndChar
StartChar: u1D44A
Encoding: 119882 119882 679
Width: 790
Flags: W
HStem: 0 24<546 546 546 556 530 546> 659 22<451 451>
VStem: 97 714<681 681>
LayerCount: 2
Fore
SplineSet
811 681 m 1
 556 0 l 1
 530 0 l 1
 451 659 l 1
 187 0 l 1
 160 0 l 1
 97 681 l 1
 120 681 l 1
 178 26 l 1
 440 681 l 1
 468 681 l 1
 546 24 l 1
 788 681 l 1
 811 681 l 1
EndSplineSet
EndChar
StartChar: u1D44F
Encoding: 119887 119887 684
Width: 565
Flags: W
HStem: -10 21<215.5 333.5 215.5 340.5> 509 20<307.5 388> 716 20G<207 207>
VStem: 476 22<277.5 394.5>
LayerCount: 2
Fore
SplineSet
345 529 m 0
 444 529 498 463 498 339 c 0
 498 202 436 -10 245 -10 c 0
 186 -10 145 0 85 24 c 1
 185 733 l 1
 207 736 l 1
 166 436 l 1
 212 490 270 529 345 529 c 0
345 509 m 0
 266 509 214 468 161 408 c 1
 110 39 l 1
 150 22 187 11 244 11 c 0
 423 11 476 216 476 339 c 0
 476 450 431 509 345 509 c 0
EndSplineSet
EndChar
StartChar: u1D453
Encoding: 119891 119891 688
Width: 307
Flags: W
HStem: -195 21G<-32 -32> 499 20<67 155 65 157 179 320 67 176> 717 20<279 329.5>
VStem: -39 463
LayerCount: 2
Fore
SplineSet
309 717 m 0
 249 717 202 686 192 614 c 2
 179 519 l 1
 326 519 l 1
 320 499 l 1
 176 499 l 1
 107 5 l 2
 90 -123 51 -155 -32 -195 c 1
 -39 -177 l 1
 35 -141 69 -110 86 7 c 2
 155 499 l 1
 65 499 l 1
 67 519 l 1
 157 519 l 1
 171 617 l 2
 182 695 237 737 308 737 c 0
 353 737 389 725 424 702 c 1
 414 686 l 1
 378 707 350 717 309 717 c 0
EndSplineSet
EndChar
StartChar: u1D456
Encoding: 119894 119894 690
Width: 258
Flags: W
HStem: 0 21G<81 103 81 81> 499 20G<155 177 177 177> 685 39<186.5 196.5>
VStem: 172 40<700.5 708>
LayerCount: 2
Fore
SplineSet
190 685 m 0
 179 685 172 692 172 702 c 0
 172 714 180 724 193 724 c 0
 205 724 212 717 212 706 c 0
 212 695 203 685 190 685 c 0
177 519 m 1
 103 0 l 1
 81 0 l 1
 155 519 l 1
 177 519 l 1
EndSplineSet
EndChar
StartChar: u1D45C
Encoding: 119900 119900 696
Width: 561
Flags: W
HStem: -10 21<195.5 330 195.5 339> 509 20<231.5 367>
VStem: 69 22<136 255 136 262.5> 471 22<265 386>
LayerCount: 2
Fore
SplineSet
244 -10 m 0
 133 -10 69 66 69 196 c 0
 69 329 131 529 318 529 c 0
 428 529 493 458 493 327 c 0
 493 197 434 -10 244 -10 c 0
244 11 m 0
 416 11 471 203 471 327 c 0
 471 445 416 509 318 509 c 0
 145 509 91 315 91 195 c 0
 91 77 147 11 244 11 c 0
EndSplineSet
EndChar
StartChar: u1D45D
Encoding: 119901 119901 697
Width: 564
Flags: W
HStem: -197 21G<54 54> -10 21<217.5 332.5 214.5 340> 499 20G<155 174 174 174> 509 20<307.5 387.5>
VStem: 476 22<277.5 395>
LayerCount: 2
Fore
SplineSet
54 -197 m 1xd8
 155 519 l 1
 174 519 l 1xe8
 164 437 l 1
 213 492 271 529 344 529 c 0
 444 529 498 462 498 339 c 0
 498 202 436 -10 244 -10 c 0
 191 -10 148 0 106 17 c 1
 76 -194 l 1
 54 -197 l 1xd8
243 11 m 0
 422 11 476 216 476 339 c 0
 476 451 431 509 344 509 c 0xd8
 266 509 213 468 161 408 c 1
 109 39 l 1
 145 23 186 11 243 11 c 0
EndSplineSet
EndChar
StartChar: u1D470
Encoding: 119920 119920 716
Width: 277
Flags: W
HStem: 0 21G<77 125 77 77> 664 20G<174 221 221 221>
VStem: 77 144
LayerCount: 2
Fore
SplineSet
221 684 m 1
 125 0 l 1
 77 0 l 1
 174 684 l 1
 221 684 l 1
EndSplineSet
EndChar
StartChar: u1D471
Encoding: 119921 119921 717
Width: 285
Flags: W
HStem: 664 20G<187 235 235 235>
VStem: -33 268
LayerCount: 2
Fore
SplineSet
235 684 m 1
 152 89 l 2
 135 -25 95 -67 -22 -113 c 1
 -33 -77 l 1
 63 -35 92 1 104 95 c 2
 187 684 l 1
 235 684 l 1
EndSplineSet
EndChar
StartChar: u1D477
Encoding: 119927 119927 723
Width: 565
Flags: W
HStem: 0 21G<77 125 77 77> 271 42<169 267 163 271> 643 41<215 322 215 215>
VStem: 500 49<463 561.5>
LayerCount: 2
Fore
SplineSet
326 684 m 2
 468 684 549 631 549 514 c 0
 549 392 485 271 267 271 c 2
 163 271 l 1
 125 0 l 1
 77 0 l 1
 174 684 l 1
 326 684 l 2
271 313 m 2
 453 313 500 412 500 514 c 0
 500 609 435 643 322 643 c 2
 215 643 l 1
 169 313 l 1
 271 313 l 2
EndSplineSet
EndChar
StartChar: u1D47B
Encoding: 119931 119931 727
Width: 486
Flags: W
HStem: 0 21G<182 230 182 182> 640 44<74 272 68 535 320 523 320 320>
VStem: 68 467<640 684>
LayerCount: 2
Fore
SplineSet
535 684 m 1
 523 640 l 1
 320 640 l 1
 230 0 l 1
 182 0 l 1
 272 640 l 1
 68 640 l 1
 74 684 l 1
 535 684 l 1
EndSplineSet
EndChar
StartChar: u1D47E
Encoding: 119934 119934 730
Width: 802
Flags: W
HStem: 0 46<555 555 555 579 521 555> 632 52<453 453>
VStem: 92 737<684 684>
LayerCount: 2
Fore
SplineSet
829 684 m 1
 579 0 l 1
 521 0 l 1
 453 632 l 1
 207 0 l 1
 149 0 l 1
 92 684 l 1
 139 684 l 1
 186 48 l 1
 432 684 l 1
 487 684 l 1
 555 46 l 1
 783 684 l 1
 829 684 l 1
EndSplineSet
EndChar
StartChar: u1D48B
Encoding: 119947 119947 743
Width: 265
Flags: W
HStem: -200 21G<-38 -38> 502 20G<147 193 193 193> 674 70<187.5 204>
VStem: 160 71<702 716>
LayerCount: 2
Fore
SplineSet
193 674 m 0
 173 674 160 687 160 705 c 0
 160 727 176 744 199 744 c 0
 219 744 231 731 231 713 c 0
 231 691 215 674 193 674 c 0
-38 -200 m 1
 -51 -166 l 1
 22 -130 59 -101 76 15 c 2
 147 522 l 1
 193 522 l 1
 121 13 l 2
 102 -124 57 -158 -38 -200 c 1
EndSplineSet
EndChar
StartChar: u1D48C
Encoding: 119948 119948 744
Width: 514
Flags: W
HStem: 0 21G<72 118 72 72 381 432 381 381> 494 38<336 391.5> 721 20G<222 222>
VStem: 441 48<380.5 442>
LayerCount: 2
Fore
SplineSet
222 741 m 1
 171 381 l 1
 230 489 300 532 372 532 c 0
 442 532 489 491 489 423 c 0
 489 337 427 273 313 237 c 1
 432 0 l 1
 381 0 l 1
 257 253 l 1
 378 286 441 341 441 420 c 0
 441 464 419 494 364 494 c 0
 286 494 216 421 160 301 c 1
 118 0 l 1
 72 0 l 1
 176 735 l 1
 222 741 l 1
EndSplineSet
EndChar
StartChar: u1D494
Encoding: 119956 119956 752
Width: 453
Flags: W
HStem: -11 41<156.5 235 156.5 255.5> 493 39<216 281.5>
VStem: 78 47<374.5 427 374.5 434> 340 48<107 172>
LayerCount: 2
Fore
SplineSet
256 532 m 0
 319 532 368 513 412 475 c 1
 386 447 l 1
 347 477 308 493 255 493 c 0
 177 493 125 457 125 397 c 0
 125 352 151 324 242 296 c 0
 347 263 388 221 388 147 c 0
 388 59 321 -11 190 -11 c 0
 105 -11 50 20 9 58 c 1
 36 86 l 1
 78 52 123 30 190 30 c 0
 280 30 340 70 340 144 c 0
 340 200 314 229 218 259 c 0
 111 292 78 333 78 396 c 0
 78 472 147 532 256 532 c 0
EndSplineSet
EndChar
StartChar: u1D49A
Encoding: 119962 119962 758
Width: 458
Flags: W
HStem: -201 21G<-5 -5> 0 21G<163 181 163 163> 502 20G<54 103 103 103 428 478 478 478>
VStem: -8 486
LayerCount: 2
Fore
SplineSet
478 522 m 1
 226 -4 l 2
 172 -118 119 -173 -5 -201 c 1
 -8 -164 l 1
 101 -136 131 -96 181 0 c 1
 163 0 l 1
 54 522 l 1
 103 522 l 1
 199 35 l 1
 428 522 l 1
 478 522 l 1
EndSplineSet
EndChar
StartChar: u1D6A9
Encoding: 120489 120489 763
Width: 594
Flags: W
HStem: 0 41<162 300> 340 40<162 312 312 318 162 312> 643 41<162 264 264 269 162 162>
VStem: 115 47<41 340 380 643> 456 49<469.5 558> 488 50<136.5 241>
LayerCount: 2
Fore
SplineSet
380 363 m 1xf4
 464 355 538 306 538 188 c 0xf4
 538 63 448 0 300 0 c 2
 115 0 l 1
 115 684 l 1
 264 684 l 2
 416 684 505 628 505 514 c 0xf8
 505 424 453 376 380 363 c 1xf4
269 643 m 2
 162 643 l 1
 162 380 l 1
 312 380 l 2
 398 380 456 428 456 511 c 0xf8
 456 605 388 643 269 643 c 2
301 41 m 2xf4
 416 41 488 85 488 188 c 0
 488 294 415 340 318 340 c 2
 162 340 l 1
 162 41 l 1
 301 41 l 2xf4
EndSplineSet
EndChar
StartChar: u1D6AA
Encoding: 120490 120490 764
Width: 508
Flags: W
HStem: 0 21G<115 162 115 115> 640 44<162 491 162 162>
VStem: 115 47<0 640 0 684 0 684>
LayerCount: 2
Fore
SplineSet
498 684 m 1
 491 640 l 1
 162 640 l 1
 162 0 l 1
 115 0 l 1
 115 684 l 1
 498 684 l 1
EndSplineSet
EndChar
StartChar: u1D6B2
Encoding: 120498 120498 772
Width: 562
Flags: W
HStem: 0 21G<20 68 20 20 491 542 491 491> 645 39<281 281>
VStem: 20 522<0 0>
LayerCount: 2
Fore
SplineSet
311 684 m 1
 542 0 l 1
 491 0 l 1
 281 645 l 1
 68 0 l 1
 20 0 l 1
 251 684 l 1
 311 684 l 1
EndSplineSet
EndChar
StartChar: u1D6BA
Encoding: 120506 120506 780
Width: 490
Flags: W
HStem: 0 42<109 443 109 443> 642 42<109 443 109 109>
VStem: 47 396<0 32 32 32 652 684>
LayerCount: 2
Fore
SplineSet
443 684 m 1
 443 642 l 1
 109 642 l 1
 328 352 l 1
 328 327 l 1
 109 42 l 1
 443 42 l 1
 443 0 l 1
 47 0 l 1
 47 32 l 1
 281 339 l 1
 47 652 l 1
 47 684 l 1
 443 684 l 1
EndSplineSet
EndChar
StartChar: u1D6BD
Encoding: 120509 120509 783
Width: 784
Flags: W
HStem: 0 110<370 370 370 414 370 415 369 370> 71 39<369 370> 574 39<369 370> 574 110<370 370 414 414>
VStem: 42 49<270 419 270 428> 370 44<110 574> 693 49<265.5 414.5>
LayerCount: 2
Fore
SplineSet
742 343 m 0x6e
 742 170 630 80 415 71 c 1x5e
 415 0 l 1
 369 0 l 1x9e
 369 71 l 1
 151 77 42 180 42 342 c 0
 42 514 154 604 369 613 c 1x6e
 369 684 l 1
 415 684 l 1x9e
 415 613 l 1
 633 607 742 504 742 343 c 0x6e
414 110 m 1x9e
 599 120 693 188 693 343 c 0
 693 486 598 569 414 574 c 1
 414 110 l 1x9e
91 342 m 0
 91 198 186 115 370 110 c 1
 370 574 l 1
 185 564 91 496 91 342 c 0
EndSplineSet
EndChar
StartChar: u1D6BF
Encoding: 120511 120511 785
Width: 662
Flags: W
HStem: 0 21G<307 355 307 307> 203 41<307 308> 664 20G<42 90 90 90 308 354 354 354 572 620 620 620>
VStem: 42 48<426 430 430 684> 308 46<244 684 244 684> 572 48<430 684>
LayerCount: 2
Fore
SplineSet
572 684 m 1
 620 684 l 1
 620 427 l 2
 620 286 527 210 355 203 c 1
 355 0 l 1
 307 0 l 1
 307 203 l 1
 134 211 42 286 42 426 c 2
 42 684 l 1
 90 684 l 1
 90 430 l 2
 90 311 163 250 308 244 c 1
 308 684 l 1
 354 684 l 1
 354 244 l 1
 499 251 572 311 572 430 c 2
 572 684 l 1
EndSplineSet
EndChar
StartChar: u1D6CD
Encoding: 120525 120525 799
Width: 584
Flags: W
HStem: -200 21G<109 109> -195 21G<155 155> -11 42<232.5 293.5 232.5 299.5> -8 21G<451 451> -3 21G<494 494> 502 20G<109 155 155 155 419 465 465 465>
VStem: 109 46<-195 -74 104.5 148 148 522> 419 46<155 176 176 522>
LayerCount: 2
Fore
SplineSet
494 -3 m 1x4f
 451 -8 l 1x57
 435 32 429 58 425 107 c 1
 389 44 339 -11 260 -11 c 0
 200 -11 166 15 147 57 c 1
 153 13 155 -22 155 -74 c 2
 155 -195 l 1x67
 109 -200 l 1
 109 522 l 1
 155 522 l 1
 155 148 l 2
 155 61 205 31 260 31 c 0xa7
 327 31 380 76 419 155 c 1
 419 522 l 1
 465 522 l 1
 465 176 l 2
 465 98 477 46 494 -3 c 1x4f
EndSplineSet
EndChar
StartChar: u1D6D5
Encoding: 120533 120533 807
Width: 443
Flags: W
HStem: -7 21G<272 272> 481 41<87 92 92 192 238 432 238 238>
VStem: 192 46<115 118 118 481>
LayerCount: 2
Fore
SplineSet
432 481 m 1
 238 481 l 1
 238 118 l 2
 238 63 252 44 286 30 c 1
 272 -7 l 1
 213 12 192 44 192 115 c 2
 192 481 l 1
 92 481 l 2
 53 481 40 479 12 471 c 1
 2 509 l 1
 30 520 51 522 87 522 c 2
 432 522 l 1
 432 481 l 1
EndSplineSet
EndChar
StartChar: u1D6D6
Encoding: 120534 120534 808
Width: 560
Flags: W
HStem: -11 40<235.5 308.5 235.5 323.5> 502 20G<104 150 150 150 402 449 449 449>
VStem: 104 46<158 161 161 522> 428 47<174 307.5>
LayerCount: 2
Fore
SplineSet
449 522 m 1
 463 443 475 357 475 262 c 0
 475 71 378 -11 269 -11 c 0
 177 -11 104 46 104 158 c 2
 104 522 l 1
 150 522 l 1
 150 161 l 2
 150 68 201 29 270 29 c 0
 347 29 428 84 428 264 c 0
 428 351 417 440 402 522 c 1
 449 522 l 1
EndSplineSet
EndChar
StartChar: u1D6DE
Encoding: 120542 120542 816
Width: 591
Flags: W
HStem: -9 21G<164 164> -8 21G<510 510> 509 20G<81 81> 511 20G<427 427>
VStem: 114 46<345 404 404 431.5> 431 46<89.5 117 117 176>
LayerCount: 2
Fore
SplineSet
477 117 m 2x5c
 477 62 491 43 525 30 c 1
 510 -8 l 1x5c
 452 11 431 46 431 118 c 0
 431 234 437 422 438 470 c 1
 164 -9 l 1
 114 6 l 1
 114 404 l 2
 114 459 100 478 66 492 c 1
 81 529 l 1xac
 139 510 160 475 160 403 c 0
 160 287 154 100 153 51 c 1
 427 531 l 1
 477 516 l 1
 477 117 l 2x5c
EndSplineSet
EndChar
StartChar: u1D6F1
Encoding: 120561 120561 835
Width: 656
Flags: W
HStem: 0 21G<86 109 86 86 474 497 474 474> 660 21<202 567 202 202>
VStem: 86 506
LayerCount: 2
Fore
SplineSet
592 681 m 1
 497 0 l 1
 474 0 l 1
 567 660 l 1
 202 660 l 1
 109 0 l 1
 86 0 l 1
 182 681 l 1
 592 681 l 1
EndSplineSet
EndChar
StartChar: u1D6FB
Encoding: 120571 120571 845
Width: 562
Flags: W
HStem: 0 21G<171.712 213.927> 660 21<58 509>
LayerCount: 2
Fore
SplineSet
176 0 m 1
 30 681 l 1
 542 681 l 1
 204 0 l 1
 176 0 l 1
192 18 m 1
 509 660 l 1
 58 660 l 1
 192 18 l 1
EndSplineSet
EndChar
StartChar: u1D6FC
Encoding: 120572 120572 846
Width: 584
Flags: W
HStem: -10 21<171 251.5 171 257> -3 21G<475 475> 499 20G<520 543 543 543> 509 20<217.5 336.5>
VStem: 67 23<122 245 122 248> 424 15 430 20.5
LayerCount: 2
Fore
SplineSet
291 529 m 0x9c
 388 529 435 476 439 299 c 1
 520 519 l 1xac
 543 519 l 1
 448 270 l 1
 453 68 l 2
 454 31 467 22 484 16 c 1
 475 -3 l 1
 451 4 430 16 430 64 c 2x6a
 428 225 l 1x9a
 371 54 305 -10 209 -10 c 0
 118 -10 67 53 67 180 c 0
 67 316 126 529 291 529 c 0x9c
291 509 m 0
 144 509 90 310 90 180 c 0
 90 64 132 11 210 11 c 0
 293 11 361 70 424 265 c 1
 418 456 382 509 291 509 c 0
EndSplineSet
EndChar
StartChar: u1D6FF
Encoding: 120575 120575 849
Width: 558
Flags: W
HStem: -10 21<196 332.5 196 339> 663 20G<495 495> 716 21<294.5 372>
VStem: 67 22<133.5 247.5 133.5 251.5> 176 23<580 634 580 640> 464 22<237.5 334.5>
LayerCount: 2
Fore
SplineSet
344 737 m 0
 402 737 453 717 495 683 c 1
 480 669 l 1
 441 700 400 716 344 716 c 0
 245 716 199 663 199 605 c 0
 199 555 229 525 318 490 c 0
 434 444 486 390 486 287 c 0
 486 174 433 -10 245 -10 c 0
 132 -10 67 66 67 188 c 0
 67 315 117 428 280 484 c 1
 208 517 176 549 176 605 c 0
 176 675 236 737 344 737 c 0
301 476 m 1
 132 417 89 307 89 188 c 0
 89 79 146 11 246 11 c 0
 419 11 464 188 464 287 c 0
 464 382 418 429 301 476 c 1
EndSplineSet
EndChar
StartChar: u1D704
Encoding: 120580 120580 854
Width: 251
Flags: W
HStem: -5 21G<142 142> 499 20G<149 171 171 171>
VStem: 88.56 21.92
LayerCount: 2
Fore
SplineSet
171 519 m 1
 113 106 l 2
 105 50 115 30 150 13 c 1
 142 -5 l 1
 95 15 82 43 91 107 c 2
 149 519 l 1
 171 519 l 1
EndSplineSet
EndChar
StartChar: u1D710
Encoding: 120592 120592 866
Width: 556
Flags: W
HStem: -10 21<181 332> 499 20G<149 171 171 171 450 472 472 472>
VStem: 95.62 22.29 453 22<335.5 442>
LayerCount: 2
Fore
SplineSet
472 519 m 1
 474 491 475 459 475 425 c 0
 475 232 434 -10 230 -10 c 0
 132 -10 84 59 98 157 c 2
 149 519 l 1
 171 519 l 1
 120 156 l 2
 108 67 148 12 231 11 c 0
 415 9 453 246 453 425 c 0
 453 459 452 492 450 519 c 1
 472 519 l 1
EndSplineSet
EndChar
StartChar: u1D71A
Encoding: 120602 120602 876
Width: 558
Flags: W
HStem: -196 21G<331 331> 22 21<221 326 221 333> 509 20<272 369.5>
VStem: 71.47 22.22 464 22<271.5 390>
LayerCount: 2
Fore
SplineSet
109 111 m 1
 96 15 l 2
 84 -70 118 -100 220 -117 c 0
 316 -133 341 -153 353 -190 c 1
 331 -196 l 1
 317 -164 297 -152 211 -136 c 0
 104 -117 60 -83 74 15 c 2
 113 298 l 2
 131 432 205 529 326 529 c 0
 429 529 486 456 486 333 c 0
 486 196 411 22 255 22 c 0
 185 22 135 59 109 111 c 1
325 509 m 0
 219 509 152 424 134 294 c 2
 113 141 l 1
 139 80 187 43 255 43 c 0
 397 43 464 210 464 333 c 0
 464 447 414 509 325 509 c 0
EndSplineSet
EndChar
StartChar: u1D731
Encoding: 120625 120625 899
Width: 783
Flags: W
HStem: 0 110<348 348 348 378 331 348> 71 39<342 348> 575 38 575 109<457 457>
VStem: 52 48<241 363 241 373> 422 47 706 48<322 443.5>
LayerCount: 2
Fore
SplineSet
754 383 m 0x9a
 754 239 678 82 388 71 c 1
 378 0 l 1
 331 0 l 1x9a
 342 71 l 1
 147 77 52 165 52 301 c 0
 52 445 128 602 417 613 c 1
 427 684 l 1
 474 684 l 1x5e
 464 613 l 1xaa
 656 607 754 519 754 383 c 0x9a
392 111 m 1
 650 125 706 260 706 384 c 0
 706 503 624 571 457 575 c 1
 392 111 l 1
348 110 m 1
 413 574 l 1
 156 560 100 425 100 301 c 0
 100 181 182 114 348 110 c 1
EndSplineSet
EndChar
StartChar: u1D734
Encoding: 120628 120628 902
Width: 690
Flags: W
HStem: 0 43<61 187 61 247 54 187 446 560> 653 41<296.5 460>
VStem: 75 50<206.5 335.5 200 346> 588 49<362 506>
LayerCount: 2
Fore
SplineSet
403 694 m 0
 547 694 637 601 637 427 c 0
 637 286 596 112 446 43 c 1
 567 43 l 1
 560 0 l 1
 368 0 l 1
 373 43 l 1
 547 104 588 293 588 431 c 0
 588 581 518 653 402 653 c 0
 191 653 125 414 125 257 c 0
 125 143 169 79 252 42 c 1
 247 0 l 1
 54 0 l 1
 61 43 l 1
 187 43 l 1
 112 85 75 152 75 261 c 0
 75 431 159 694 403 694 c 0
EndSplineSet
EndChar
StartChar: u1D735
Encoding: 120629 120629 903
Width: 585
Flags: W
HStem: 0 21G<168.965 242.708> 643 41<92 498>
LayerCount: 2
Fore
SplineSet
173 0 m 1
 35 684 l 1
 565 684 l 1
 233 0 l 1
 173 0 l 1
208 40 m 1
 498 643 l 1
 92 643 l 1
 208 40 l 1
EndSplineSet
EndChar
StartChar: u1D736
Encoding: 120630 120630 904
Width: 587
Flags: W
HStem: -11 40<180 250 180 258> -6 21G<477 477> 493 39<225 332> 502 20G<508 554 554 554>
VStem: 61 48<129.5 243 129.5 253> 414 27 419 41.5
LayerCount: 2
Fore
SplineSet
292 532 m 0xac
 385 532 434 484 441 329 c 1
 508 522 l 1x9c
 554 522 l 1
 458 265 l 1
 463 82 l 2
 464 50 477 40 496 33 c 1
 477 -6 l 1
 446 1 419 20 419 71 c 2x5a
 418 191 l 1xaa
 369 52 304 -11 212 -11 c 0
 118 -11 61 54 61 183 c 0
 61 323 122 532 292 532 c 0xac
292 493 m 0
 158 493 109 303 109 183 c 0
 109 76 145 29 215 29 c 0
 285 29 354 79 414 265 c 1xaa
 406 447 372 493 292 493 c 0
EndSplineSet
EndChar
StartChar: u1D73B
Encoding: 120635 120635 909
Width: 367
Flags: W
HStem: -203 21G<184 184> 696 39<115 280 104 451>
VStem: 42 49<179.5 288.5 179.5 293> 286 49<-73.5 -33>
LayerCount: 2
Fore
SplineSet
184 -203 m 1
 168 -171 l 1
 252 -134 286 -95 286 -52 c 0
 286 -14 264 3 182 38 c 0
 90 76 42 119 42 217 c 0
 42 369 150 524 400 701 c 1
 372 697 337 696 280 696 c 2
 104 696 l 1
 115 735 l 1
 451 735 l 1
 453 700 l 1
 184 499 91 359 91 218 c 0
 91 141 124 108 211 71 c 0
 294 36 335 9 335 -51 c 0
 335 -101 305 -152 184 -203 c 1
EndSplineSet
EndChar
StartChar: u1D73F
Encoding: 120639 120639 913
Width: 502
Flags: W
HStem: -9 21G<429 429> 0 21G<76 76 76 122> 509 20G<170 170> 512 20G<451 451>
VStem: 132.87 45.75
LayerCount: 2
Fore
SplineSet
429 -9 m 1xa8
 393 2 377 18 355 45 c 2
 167 272 l 1
 451 532 l 1x98
 484 508 l 1
 224 270 l 1
 387 75 l 2
 409 47 421 37 447 26 c 1
 429 -9 l 1xa8
76 0 m 1x68
 126 356 l 2
 137 434 133 483 127 524 c 1
 170 529 l 1
 178 491 185 448 170 345 c 2
 122 0 l 1
 76 0 l 1x68
EndSplineSet
EndChar
StartChar: u1D745
Encoding: 120645 120645 919
Width: 579
Flags: W
HStem: -7 21G<444 444> 0 21G<94 140 94 94> 482 40<143.5 575 208 433 208 208 479 569 479 479>
VStem: 378.81 45.77
LayerCount: 2
Fore
SplineSet
479 482 m 1x70
 427 117 l 2
 419 62 430 44 462 28 c 1
 444 -7 l 1xb0
 388 15 372 46 381 117 c 2
 433 482 l 1
 208 482 l 1
 140 0 l 1
 94 0 l 1
 162 482 l 1
 125 482 105 480 72 472 c 1
 66 510 l 1
 100 519 128 522 181 522 c 2
 575 522 l 1
 569 482 l 1
 479 482 l 1x70
EndSplineSet
EndChar
StartChar: u1D747
Encoding: 120647 120647 921
Width: 455
Flags: W
HStem: -203 21G<211 211> 493 39<241 340>
VStem: 65 47<183 276.5 183 284> 313 49<-73 -31>
LayerCount: 2
Fore
SplineSet
211 -203 m 1
 195 -171 l 1
 279 -134 313 -95 313 -51 c 0
 313 -11 291 5 203 41 c 0
 110 78 65 124 65 227 c 0
 65 341 128 532 316 532 c 0
 373 532 417 516 458 479 c 1
 431 451 l 1
 399 479 363 493 317 493 c 0
 165 493 112 327 112 226 c 0
 112 140 154 105 232 75 c 0
 323 39 362 12 362 -49 c 0
 362 -101 332 -152 211 -203 c 1
EndSplineSet
EndChar
StartChar: u1D74B
Encoding: 120651 120651 925
Width: 716
Flags: W
HStem: -203 21G<266 266> -10 38<294 298> 494 38<484.5 543.5> 502 20G<173 220 220 220>
VStem: 74 47<130.5 237 130.5 239.5> 605 46<361 410.5>
LayerCount: 2
Fore
SplineSet
515 532 m 0xec
 597 532 651 485 651 361 c 0
 650 187 611 2 339 -10 c 1
 312 -197 l 1
 266 -203 l 1
 294 -10 l 1
 146 -1 74 59 74 187 c 0
 74 292 117 410 173 522 c 1
 220 522 l 1xdc
 162 409 121 286 121 188 c 0
 121 73 184 36 298 28 c 1
 344 351 l 2
 362 477 426 532 515 532 c 0xec
515 494 m 0
 454 494 406 464 388 342 c 2
 344 28 l 1
 574 40 605 203 605 362 c 0
 605 459 572 494 515 494 c 0
EndSplineSet
EndChar
StartChar: u1D752
Encoding: 120658 120658 932
Width: 576
Flags: W
HStem: -7 21G<119 119 466 466> 511 20G<110 110> 512 20G<457 457>
VStem: 128 48<415 463.5> 400 48<60.5 109>
LayerCount: 2
Fore
SplineSet
448 109 m 2xb8
 442 67 449 46 484 28 c 1
 466 -7 l 1
 420 12 400 37 400 84 c 0
 400 119 446 397 460 471 c 1
 119 -7 l 1
 71 8 l 1
 128 415 l 2
 134 457 127 478 92 496 c 1
 110 531 l 1
 156 512 176 487 176 440 c 0xd8
 176 405 130 127 116 53 c 1
 457 532 l 1
 506 516 l 1
 448 109 l 2xb8
EndSplineSet
EndChar
StartChar: u1D754
Encoding: 120660 120660 934
Width: 562
Flags: W
HStem: -202 21G<320 320> 23 41<229 323.5 229 341> 494 38<274.5 364>
VStem: 60.85 47.15 449 48<275.5 386>
LayerCount: 2
Fore
SplineSet
121 98 m 1
 108 3 l 2
 99 -69 134 -93 231 -109 c 0
 324 -125 353 -149 365 -189 c 1
 320 -202 l 1
 306 -171 288 -161 206 -146 c 0
 102 -127 49 -92 63 9 c 2
 102 292 l 2
 122 435 199 532 325 532 c 0
 435 532 497 457 497 333 c 0
 497 198 420 23 262 23 c 0
 196 23 148 54 121 98 c 1
324 494 m 0
 225 494 165 413 147 282 c 2
 128 146 l 1
 154 94 198 64 260 64 c 0
 387 64 449 218 449 333 c 0
 449 439 404 494 324 494 c 0
EndSplineSet
EndChar
StartChar: u1D7D2
Encoding: 120786 120786 940
Width: 513
Flags: W
HStem: 0 21G<340 385 340 340> 178 40<96 340 96 340 385 476>
VStem: 340 45<0 178 0 178 0 218>
LayerCount: 2
Fore
SplineSet
476 218 m 1
 476 178 l 1
 385 178 l 1
 385 0 l 1
 340 0 l 1
 340 178 l 1
 47 178 l 1
 47 214 l 1
 251 675 l 1
 290 659 l 1
 96 218 l 1
 340 218 l 1
 345 418 l 1
 385 418 l 1
 385 218 l 1
 476 218 l 1
EndSplineSet
EndChar
StartChar: u1D7D5
Encoding: 120789 120789 943
Width: 434
Flags: W
HStem: -7 21G<131 131> 624 40<32 348 32 397>
VStem: 32 365<627 664 627 664 627 664>
LayerCount: 2
Fore
SplineSet
397 664 m 1
 397 627 l 1
 131 -7 l 1
 87 8 l 1
 348 624 l 1
 32 624 l 1
 32 664 l 1
 397 664 l 1
EndSplineSet
EndChar
